G04 #@! TF.FileFunction,Copper,L1,Top,Signal*
%FSLAX46Y46*%
G04 Gerber Fmt 4.6, Leading zero omitted, Abs format (unit mm)*
G04 Created by KiCad (PCBNEW 4.0.7-e2-6376~61~ubuntu18.04.1) date Sat Jun  9 20:52:15 2018*
%MOMM*%
%LPD*%
G01*
G04 APERTURE LIST*
%ADD10C,0.100000*%
%ADD11R,1.700000X1.700000*%
%ADD12O,1.700000X1.700000*%
%ADD13R,1.700000X0.900000*%
%ADD14R,1.000000X1.600000*%
%ADD15R,2.600000X1.600000*%
%ADD16R,1.200000X1.200000*%
%ADD17R,1.200000X0.900000*%
%ADD18R,1.850000X1.850000*%
%ADD19C,1.850000*%
%ADD20R,2.301240X1.399540*%
%ADD21R,1.998980X1.998980*%
%ADD22R,1.300000X1.550000*%
%ADD23R,1.727200X2.032000*%
%ADD24O,1.727200X2.032000*%
%ADD25R,3.800000X2.000000*%
%ADD26R,1.500000X2.000000*%
%ADD27R,2.500000X1.100000*%
%ADD28O,2.500000X1.100000*%
%ADD29C,0.500000*%
%ADD30C,0.250000*%
%ADD31C,0.254000*%
G04 APERTURE END LIST*
D10*
D11*
X122100000Y-98700000D03*
D12*
X124640000Y-98700000D03*
X127180000Y-98700000D03*
X129720000Y-98700000D03*
X132260000Y-98700000D03*
X134800000Y-98700000D03*
D13*
X119400000Y-102750000D03*
X119400000Y-105650000D03*
D14*
X112600000Y-100800000D03*
X115600000Y-100800000D03*
D15*
X112400000Y-114100000D03*
X116000000Y-114100000D03*
D16*
X121800000Y-105300000D03*
X121800000Y-103100000D03*
D17*
X131800000Y-102450000D03*
X131800000Y-105750000D03*
X129000000Y-102450000D03*
X129000000Y-105750000D03*
D16*
X126600000Y-105200000D03*
X126600000Y-103000000D03*
D18*
X112900000Y-97100000D03*
D19*
X115400000Y-97100000D03*
D13*
X124300000Y-105550000D03*
X124300000Y-102650000D03*
X137300000Y-102650000D03*
X137300000Y-105550000D03*
X112900000Y-117750000D03*
X112900000Y-120650000D03*
X115700000Y-117750000D03*
X115700000Y-120650000D03*
X134500000Y-102650000D03*
X134500000Y-105550000D03*
D20*
X143900360Y-130100000D03*
X148299640Y-130100000D03*
D21*
X141098740Y-130100000D03*
X151101260Y-130100000D03*
D22*
X116550000Y-130480000D03*
X112050000Y-130480000D03*
X112050000Y-122520000D03*
X116550000Y-122520000D03*
D23*
X142590000Y-123600000D03*
D24*
X145130000Y-123600000D03*
X147670000Y-123600000D03*
X150210000Y-123600000D03*
D25*
X114200000Y-109950000D03*
D26*
X114200000Y-103650000D03*
X111900000Y-103650000D03*
X116500000Y-103650000D03*
D27*
X136000000Y-123100000D03*
D28*
X136000000Y-121100000D03*
X136000000Y-119100000D03*
X136000000Y-117100000D03*
X136000000Y-115100000D03*
X136000000Y-113100000D03*
X136000000Y-111100000D03*
X136000000Y-109100000D03*
X120600000Y-109100000D03*
X120700000Y-111100000D03*
X120600000Y-113100000D03*
X120600000Y-115100000D03*
X120600000Y-117100000D03*
X120600000Y-119100000D03*
X120600000Y-121100000D03*
X120600000Y-123100000D03*
D29*
X111900000Y-103650000D02*
X111900000Y-102500000D01*
X111900000Y-102500000D02*
X111300000Y-101900000D01*
X111300000Y-101900000D02*
X111300000Y-101200000D01*
X111300000Y-101200000D02*
X111700000Y-100800000D01*
X111700000Y-100800000D02*
X112600000Y-100800000D01*
X112600000Y-100800000D02*
X113200000Y-100800000D01*
X113200000Y-100800000D02*
X113700000Y-100300000D01*
X113700000Y-100300000D02*
X113700000Y-99600000D01*
X113700000Y-99600000D02*
X112900000Y-98800000D01*
X112900000Y-98800000D02*
X112900000Y-97100000D01*
D30*
X111300000Y-101900000D02*
X111300000Y-101200000D01*
X111900000Y-102500000D02*
X111300000Y-101900000D01*
X111900000Y-103650000D02*
X111900000Y-102700000D01*
X111300000Y-101200000D02*
X111700000Y-100800000D01*
X111700000Y-100800000D02*
X112600000Y-100800000D01*
X112900000Y-98800000D02*
X112900000Y-97100000D01*
X113700000Y-99600000D02*
X112900000Y-98800000D01*
X113700000Y-100300000D02*
X113700000Y-99600000D01*
X113200000Y-100800000D02*
X113700000Y-100300000D01*
X121800000Y-103100000D02*
X121800000Y-104100000D01*
X122300000Y-109100000D02*
X121300000Y-109100000D01*
X122900000Y-108500000D02*
X122300000Y-109100000D01*
X122900000Y-104700000D02*
X122900000Y-108500000D01*
X122500000Y-104300000D02*
X122900000Y-104700000D01*
X122000000Y-104300000D02*
X122500000Y-104300000D01*
X121800000Y-104100000D02*
X122000000Y-104300000D01*
X112050000Y-122520000D02*
X112050000Y-121650000D01*
X111600000Y-119200000D02*
X112100000Y-118700000D01*
X111600000Y-121200000D02*
X111600000Y-119200000D01*
X112050000Y-121650000D02*
X111600000Y-121200000D01*
X112050000Y-122520000D02*
X114580000Y-122520000D01*
X115700000Y-121400000D02*
X115700000Y-120650000D01*
X114580000Y-122520000D02*
X115700000Y-121400000D01*
X116000000Y-112300000D02*
X119200000Y-109100000D01*
X116000000Y-114100000D02*
X116000000Y-112300000D01*
X119200000Y-109100000D02*
X121300000Y-109100000D01*
X117000000Y-101100000D02*
X117000000Y-101000000D01*
X117000000Y-101000000D02*
X116800000Y-100800000D01*
X117000000Y-101500000D02*
X117000000Y-101100000D01*
X116800000Y-100800000D02*
X116600000Y-100800000D01*
X112050000Y-130480000D02*
X112050000Y-122520000D01*
X112050000Y-122520000D02*
X112050000Y-121950000D01*
X114400000Y-116900000D02*
X116000000Y-115300000D01*
X114400000Y-118200000D02*
X114400000Y-116900000D01*
X112100000Y-118700000D02*
X113900000Y-118700000D01*
X113900000Y-118700000D02*
X114400000Y-118200000D01*
X116000000Y-115300000D02*
X116000000Y-114100000D01*
X119350000Y-109100000D02*
X121300000Y-109100000D01*
X116500000Y-103650000D02*
X116500000Y-102500000D01*
X116600000Y-100800000D02*
X115600000Y-100800000D01*
X117000000Y-102000000D02*
X117000000Y-101500000D01*
X116500000Y-102500000D02*
X117000000Y-102000000D01*
X115600000Y-100800000D02*
X115000000Y-100800000D01*
X115400000Y-98800000D02*
X115400000Y-97100000D01*
X114600000Y-99600000D02*
X115400000Y-98800000D01*
X114600000Y-100400000D02*
X114600000Y-99600000D01*
X115000000Y-100800000D02*
X114600000Y-100400000D01*
D29*
X135900000Y-104800000D02*
X134800000Y-103700000D01*
X134500000Y-103400000D02*
X134500000Y-102650000D01*
X134800000Y-103700000D02*
X134500000Y-103400000D01*
X135300000Y-109100000D02*
X135300000Y-108200000D01*
X137300000Y-103400000D02*
X137300000Y-102650000D01*
X135900000Y-104800000D02*
X137300000Y-103400000D01*
X135900000Y-107600000D02*
X135900000Y-104800000D01*
X135300000Y-108200000D02*
X135900000Y-107600000D01*
X137300000Y-102650000D02*
X137300000Y-99200000D01*
X119400000Y-98700000D02*
X121100000Y-97000000D01*
X121100000Y-97000000D02*
X135100000Y-97000000D01*
X119400000Y-101000000D02*
X119400000Y-98700000D01*
X137300000Y-99200000D02*
X135100000Y-97000000D01*
D30*
X119700000Y-101300000D02*
X119400000Y-101600000D01*
X119800000Y-101300000D02*
X119700000Y-101300000D01*
X119700000Y-101300000D02*
X119400000Y-101000000D01*
X124300000Y-102650000D02*
X124300000Y-102100000D01*
X123500000Y-101300000D02*
X119800000Y-101300000D01*
X119800000Y-101300000D02*
X119400000Y-101300000D01*
X124300000Y-102100000D02*
X123500000Y-101300000D01*
D29*
X119400000Y-102750000D02*
X119400000Y-101600000D01*
X119400000Y-101600000D02*
X119400000Y-101300000D01*
X119400000Y-101300000D02*
X119400000Y-101000000D01*
X112400000Y-114100000D02*
X112400000Y-116300000D01*
X112400000Y-116300000D02*
X112900000Y-116800000D01*
X112900000Y-116800000D02*
X112900000Y-117750000D01*
X112400000Y-114100000D02*
X112400000Y-113100000D01*
X112400000Y-113100000D02*
X114200000Y-111300000D01*
X114200000Y-111300000D02*
X114200000Y-109950000D01*
X114200000Y-109950000D02*
X114200000Y-103650000D01*
X114200000Y-109950000D02*
X116750000Y-109950000D01*
X116750000Y-109950000D02*
X117900000Y-108800000D01*
X117900000Y-108800000D02*
X117900000Y-104900000D01*
X117900000Y-104900000D02*
X119400000Y-103400000D01*
X119400000Y-103400000D02*
X119400000Y-102750000D01*
D30*
X137300000Y-102650000D02*
X137300000Y-102800000D01*
X134500000Y-103000000D02*
X134500000Y-102650000D01*
X133600000Y-110800000D02*
X135300000Y-109100000D01*
X133600000Y-119200000D02*
X133600000Y-110800000D01*
X134500000Y-120100000D02*
X133600000Y-119200000D01*
X138500000Y-120100000D02*
X134500000Y-120100000D01*
X142000000Y-123600000D02*
X138500000Y-120100000D01*
X142590000Y-123600000D02*
X142000000Y-123600000D01*
X142590000Y-126810000D02*
X142590000Y-123600000D01*
X141098740Y-128301260D02*
X142590000Y-126810000D01*
X141098740Y-130100000D02*
X141098740Y-128301260D01*
X119300000Y-102750000D02*
X119300000Y-103300000D01*
X117900000Y-104700000D02*
X117900000Y-107200000D01*
X119300000Y-103300000D02*
X117900000Y-104700000D01*
X117900000Y-107200000D02*
X117900000Y-107400000D01*
X117900000Y-107400000D02*
X117900000Y-107600000D01*
X117900000Y-107600000D02*
X117900000Y-108800000D01*
X117900000Y-108800000D02*
X116750000Y-109950000D01*
X112400000Y-113100000D02*
X114200000Y-111300000D01*
X114200000Y-111300000D02*
X114200000Y-109950000D01*
X112900000Y-117750000D02*
X112900000Y-116800000D01*
X112900000Y-116800000D02*
X112400000Y-116300000D01*
X114200000Y-109950000D02*
X114250000Y-109950000D01*
X119300000Y-102750000D02*
X119700000Y-102750000D01*
X112400000Y-114100000D02*
X112400000Y-114800000D01*
X141098740Y-130100000D02*
X141098740Y-129201260D01*
X143900360Y-130100000D02*
X141098740Y-130100000D01*
X119400000Y-105650000D02*
X119400000Y-106300000D01*
X121800000Y-106200000D02*
X121800000Y-105300000D01*
X121400000Y-106600000D02*
X121800000Y-106200000D01*
X119700000Y-106600000D02*
X121400000Y-106600000D01*
X119400000Y-106300000D02*
X119700000Y-106600000D01*
X119400000Y-105650000D02*
X119400000Y-105900000D01*
X121800000Y-105600000D02*
X121800000Y-105300000D01*
X121500000Y-105300000D02*
X121600000Y-105400000D01*
X131800000Y-102450000D02*
X131800000Y-100600000D01*
X132260000Y-100140000D02*
X132260000Y-98700000D01*
X131800000Y-100600000D02*
X132260000Y-100140000D01*
X132200000Y-98760000D02*
X132260000Y-98700000D01*
X116550000Y-122520000D02*
X117720000Y-122520000D01*
X119600000Y-124400000D02*
X119900000Y-124400000D01*
X117720000Y-122520000D02*
X119600000Y-124400000D01*
X131800000Y-105750000D02*
X131800000Y-104900000D01*
X134200000Y-104300000D02*
X134500000Y-104600000D01*
X132400000Y-104300000D02*
X134200000Y-104300000D01*
X131800000Y-104900000D02*
X132400000Y-104300000D01*
X132000000Y-122300000D02*
X131600000Y-122300000D01*
X131700000Y-122300000D02*
X131700000Y-122200000D01*
X131600000Y-122300000D02*
X131700000Y-122300000D01*
X135300000Y-123100000D02*
X132800000Y-123100000D01*
X132800000Y-123100000D02*
X132000000Y-122300000D01*
X132000000Y-122300000D02*
X131800000Y-122100000D01*
X127000000Y-124400000D02*
X129500000Y-124400000D01*
X129500000Y-124400000D02*
X131700000Y-122200000D01*
X119900000Y-124400000D02*
X127000000Y-124400000D01*
X131800000Y-122100000D02*
X131800000Y-119400000D01*
X131700000Y-122200000D02*
X131800000Y-122100000D01*
X131800000Y-105750000D02*
X131800000Y-119400000D01*
X134500000Y-104600000D02*
X134500000Y-105550000D01*
X116550000Y-130480000D02*
X116550000Y-122520000D01*
X127180000Y-99380000D02*
X127180000Y-98700000D01*
X129000000Y-102450000D02*
X129000000Y-100520000D01*
X129000000Y-100520000D02*
X127180000Y-98700000D01*
X127200000Y-98720000D02*
X127180000Y-98700000D01*
X129000000Y-105750000D02*
X129000000Y-118900000D01*
X126800000Y-121100000D02*
X121300000Y-121100000D01*
X129000000Y-118900000D02*
X126800000Y-121100000D01*
X124300000Y-105550000D02*
X124300000Y-106200000D01*
X126600000Y-106200000D02*
X126600000Y-105200000D01*
X126300000Y-106500000D02*
X126600000Y-106200000D01*
X124600000Y-106500000D02*
X126300000Y-106500000D01*
X124300000Y-106200000D02*
X124600000Y-106500000D01*
X127600000Y-105300000D02*
X127600000Y-104500000D01*
X126600000Y-104000000D02*
X126600000Y-103000000D01*
X126800000Y-104200000D02*
X126600000Y-104000000D01*
X127300000Y-104200000D02*
X126800000Y-104200000D01*
X127600000Y-104500000D02*
X127300000Y-104200000D01*
X122400000Y-115100000D02*
X126100000Y-115100000D01*
X127600000Y-113600000D02*
X127600000Y-110400000D01*
X126100000Y-115100000D02*
X127600000Y-113600000D01*
X126600000Y-103000000D02*
X126600000Y-103363602D01*
X127600000Y-105300000D02*
X127600000Y-110400000D01*
X126600000Y-101650000D02*
X125850000Y-100900000D01*
X124300000Y-100900000D02*
X122100000Y-98700000D01*
X126600000Y-103000000D02*
X126600000Y-101650000D01*
X125850000Y-100900000D02*
X124300000Y-100900000D01*
X122400000Y-115100000D02*
X121300000Y-115100000D01*
X121300000Y-115100000D02*
X121600000Y-115100000D01*
X123000000Y-123100000D02*
X128000000Y-123100000D01*
X130000000Y-121100000D02*
X130000000Y-118600000D01*
X128000000Y-123100000D02*
X130000000Y-121100000D01*
X130000000Y-106700000D02*
X130000000Y-105200000D01*
X130000000Y-118600000D02*
X130000000Y-106700000D01*
X124640000Y-100040000D02*
X124640000Y-98700000D01*
X125000000Y-100400000D02*
X124640000Y-100040000D01*
X127200000Y-100400000D02*
X125000000Y-100400000D01*
X127700000Y-100900000D02*
X127200000Y-100400000D01*
X130000000Y-105200000D02*
X127800000Y-103000000D01*
X127800000Y-103000000D02*
X127800000Y-101000000D01*
X127800000Y-101000000D02*
X127700000Y-100900000D01*
X121300000Y-123100000D02*
X123000000Y-123100000D01*
X137300000Y-105550000D02*
X137300000Y-107200000D01*
X137300000Y-107200000D02*
X137800000Y-107700000D01*
X137800000Y-118900000D02*
X137800000Y-107700000D01*
X137600000Y-119100000D02*
X137800000Y-118900000D01*
X135300000Y-119100000D02*
X137600000Y-119100000D01*
X112900000Y-120650000D02*
X112900000Y-119800000D01*
X119100000Y-113100000D02*
X121300000Y-113100000D01*
X113500000Y-119200000D02*
X116300000Y-119200000D01*
X118600000Y-113600000D02*
X119100000Y-113100000D01*
X118600000Y-116900000D02*
X118600000Y-113600000D01*
X116300000Y-119200000D02*
X118600000Y-116900000D01*
X112900000Y-119800000D02*
X113500000Y-119200000D01*
X112900000Y-120650000D02*
X112900000Y-120300000D01*
X120400000Y-113100000D02*
X121300000Y-113100000D01*
X115700000Y-117750000D02*
X115700000Y-117200000D01*
X117900000Y-115000000D02*
X117900000Y-112300000D01*
X115700000Y-117200000D02*
X117900000Y-115000000D01*
X119100000Y-111100000D02*
X121300000Y-111100000D01*
X117900000Y-112300000D02*
X119100000Y-111100000D01*
X115700000Y-117750000D02*
X116450000Y-117750000D01*
X145130000Y-123600000D02*
X145130000Y-126530000D01*
X146800000Y-130100000D02*
X148299640Y-130100000D01*
X146200000Y-129500000D02*
X146800000Y-130100000D01*
X146200000Y-127600000D02*
X146200000Y-129500000D01*
X145130000Y-126530000D02*
X146200000Y-127600000D01*
X148299640Y-130100000D02*
X151101260Y-130100000D01*
D31*
G36*
X157388338Y-88621046D02*
X157802333Y-88897669D01*
X158078953Y-89311660D01*
X158190000Y-89869931D01*
X158190000Y-129930069D01*
X158078953Y-130488340D01*
X157802333Y-130902331D01*
X157388338Y-131178954D01*
X156830069Y-131290000D01*
X152709611Y-131290000D01*
X152748190Y-131099490D01*
X152748190Y-129743599D01*
X154564699Y-129743599D01*
X154828281Y-130381515D01*
X155315918Y-130870004D01*
X155953373Y-131134699D01*
X156643599Y-131135301D01*
X157281515Y-130871719D01*
X157770004Y-130384082D01*
X158034699Y-129746627D01*
X158035301Y-129056401D01*
X157771719Y-128418485D01*
X157284082Y-127929996D01*
X156646627Y-127665301D01*
X155956401Y-127664699D01*
X155318485Y-127928281D01*
X154829996Y-128415918D01*
X154565301Y-129053373D01*
X154564699Y-129743599D01*
X152748190Y-129743599D01*
X152748190Y-129100510D01*
X152703912Y-128865193D01*
X152564840Y-128649069D01*
X152352640Y-128504079D01*
X152100750Y-128453070D01*
X150101770Y-128453070D01*
X149866453Y-128497348D01*
X149650329Y-128636420D01*
X149556163Y-128774236D01*
X149450260Y-128752790D01*
X147149020Y-128752790D01*
X146960000Y-128788357D01*
X146960000Y-127600000D01*
X146902148Y-127309161D01*
X146737401Y-127062599D01*
X145890000Y-126215198D01*
X145890000Y-125044648D01*
X146189670Y-124844415D01*
X146400000Y-124529634D01*
X146610330Y-124844415D01*
X147096511Y-125169271D01*
X147670000Y-125283345D01*
X148243489Y-125169271D01*
X148729670Y-124844415D01*
X148940000Y-124529634D01*
X149150330Y-124844415D01*
X149636511Y-125169271D01*
X150210000Y-125283345D01*
X150783489Y-125169271D01*
X151269670Y-124844415D01*
X151594526Y-124358234D01*
X151708600Y-123784745D01*
X151708600Y-123415255D01*
X151594526Y-122841766D01*
X151269670Y-122355585D01*
X150783489Y-122030729D01*
X150210000Y-121916655D01*
X149636511Y-122030729D01*
X149150330Y-122355585D01*
X148940000Y-122670366D01*
X148729670Y-122355585D01*
X148243489Y-122030729D01*
X147670000Y-121916655D01*
X147096511Y-122030729D01*
X146610330Y-122355585D01*
X146400000Y-122670366D01*
X146189670Y-122355585D01*
X145703489Y-122030729D01*
X145130000Y-121916655D01*
X144556511Y-122030729D01*
X144070330Y-122355585D01*
X144055500Y-122377780D01*
X143991927Y-122224302D01*
X143813299Y-122045673D01*
X143579910Y-121949000D01*
X142875750Y-121949000D01*
X142717000Y-122107750D01*
X142717000Y-123473000D01*
X142737000Y-123473000D01*
X142737000Y-123727000D01*
X142717000Y-123727000D01*
X142717000Y-125092250D01*
X142875750Y-125251000D01*
X143579910Y-125251000D01*
X143813299Y-125154327D01*
X143991927Y-124975698D01*
X144055500Y-124822220D01*
X144070330Y-124844415D01*
X144370000Y-125044648D01*
X144370000Y-126530000D01*
X144427852Y-126820839D01*
X144592599Y-127067401D01*
X145440000Y-127914802D01*
X145440000Y-128891225D01*
X145410678Y-128861903D01*
X145177289Y-128765230D01*
X144186110Y-128765230D01*
X144027360Y-128923980D01*
X144027360Y-129973000D01*
X145527230Y-129973000D01*
X145582582Y-129917648D01*
X145662599Y-130037401D01*
X146262599Y-130637401D01*
X146501580Y-130797083D01*
X146501580Y-130799770D01*
X146545858Y-131035087D01*
X146684930Y-131251211D01*
X146741700Y-131290000D01*
X145458775Y-131290000D01*
X145589307Y-131159469D01*
X145685980Y-130926080D01*
X145685980Y-130385750D01*
X145527230Y-130227000D01*
X144027360Y-130227000D01*
X144027360Y-130247000D01*
X143773360Y-130247000D01*
X143773360Y-130227000D01*
X141225740Y-130227000D01*
X141225740Y-130247000D01*
X140971740Y-130247000D01*
X140971740Y-130227000D01*
X139623000Y-130227000D01*
X139464250Y-130385750D01*
X139464250Y-131225800D01*
X139490843Y-131290000D01*
X136727000Y-131290000D01*
X136727000Y-128974200D01*
X139464250Y-128974200D01*
X139464250Y-129814250D01*
X139623000Y-129973000D01*
X140971740Y-129973000D01*
X140971740Y-128624260D01*
X141225740Y-128624260D01*
X141225740Y-129973000D01*
X143773360Y-129973000D01*
X143773360Y-128923980D01*
X143614610Y-128765230D01*
X142646672Y-128765230D01*
X142636557Y-128740811D01*
X142457928Y-128562183D01*
X142224539Y-128465510D01*
X141384490Y-128465510D01*
X141225740Y-128624260D01*
X140971740Y-128624260D01*
X140812990Y-128465510D01*
X139972941Y-128465510D01*
X139739552Y-128562183D01*
X139560923Y-128740811D01*
X139464250Y-128974200D01*
X136727000Y-128974200D01*
X136727000Y-125500000D01*
X136718315Y-125453841D01*
X136691035Y-125411447D01*
X136649410Y-125383006D01*
X136600000Y-125373000D01*
X120100000Y-125373000D01*
X120053841Y-125381685D01*
X120011447Y-125408965D01*
X119983006Y-125450590D01*
X119973000Y-125500000D01*
X119973000Y-131290000D01*
X117840352Y-131290000D01*
X117847440Y-131255000D01*
X117847440Y-129705000D01*
X117803162Y-129469683D01*
X117664090Y-129253559D01*
X117451890Y-129108569D01*
X117310000Y-129079836D01*
X117310000Y-123921742D01*
X117435317Y-123898162D01*
X117651441Y-123759090D01*
X117745958Y-123620760D01*
X119062598Y-124937401D01*
X119227345Y-125047480D01*
X119309161Y-125102148D01*
X119600000Y-125160000D01*
X129500000Y-125160000D01*
X129790839Y-125102148D01*
X130037401Y-124937401D01*
X131800000Y-123174802D01*
X132262599Y-123637401D01*
X132509161Y-123802148D01*
X132800000Y-123860000D01*
X134142074Y-123860000D01*
X134146838Y-123885317D01*
X134285910Y-124101441D01*
X134498110Y-124246431D01*
X134750000Y-124297440D01*
X137250000Y-124297440D01*
X137485317Y-124253162D01*
X137701441Y-124114090D01*
X137846431Y-123901890D01*
X137849699Y-123885750D01*
X141091400Y-123885750D01*
X141091400Y-124742309D01*
X141188073Y-124975698D01*
X141366701Y-125154327D01*
X141600090Y-125251000D01*
X142304250Y-125251000D01*
X142463000Y-125092250D01*
X142463000Y-123727000D01*
X141250150Y-123727000D01*
X141091400Y-123885750D01*
X137849699Y-123885750D01*
X137897440Y-123650000D01*
X137897440Y-122550000D01*
X137880071Y-122457691D01*
X141091400Y-122457691D01*
X141091400Y-123314250D01*
X141250150Y-123473000D01*
X142463000Y-123473000D01*
X142463000Y-122107750D01*
X142304250Y-121949000D01*
X141600090Y-121949000D01*
X141366701Y-122045673D01*
X141188073Y-122224302D01*
X141091400Y-122457691D01*
X137880071Y-122457691D01*
X137853162Y-122314683D01*
X137714090Y-122098559D01*
X137526385Y-121970306D01*
X137574851Y-121937922D01*
X137831726Y-121553480D01*
X137921929Y-121100000D01*
X137831726Y-120646520D01*
X137574851Y-120262078D01*
X137332283Y-120100000D01*
X137574851Y-119937922D01*
X137631042Y-119853825D01*
X137890839Y-119802148D01*
X138137401Y-119637401D01*
X138337401Y-119437401D01*
X138502148Y-119190839D01*
X138560000Y-118900000D01*
X138560000Y-107700000D01*
X138502148Y-107409161D01*
X138337401Y-107162599D01*
X138060000Y-106885198D01*
X138060000Y-106647440D01*
X138150000Y-106647440D01*
X138385317Y-106603162D01*
X138601441Y-106464090D01*
X138746431Y-106251890D01*
X138797440Y-106000000D01*
X138797440Y-105100000D01*
X138753162Y-104864683D01*
X138614090Y-104648559D01*
X138401890Y-104503569D01*
X138150000Y-104452560D01*
X136450000Y-104452560D01*
X136214683Y-104496838D01*
X135998559Y-104635910D01*
X135899367Y-104781083D01*
X135814090Y-104648559D01*
X135601890Y-104503569D01*
X135350000Y-104452560D01*
X135230672Y-104452560D01*
X135202148Y-104309161D01*
X135037401Y-104062599D01*
X134737401Y-103762599D01*
X134627002Y-103688833D01*
X134627002Y-103576252D01*
X134785750Y-103735000D01*
X135476310Y-103735000D01*
X135709699Y-103638327D01*
X135888327Y-103459698D01*
X135900000Y-103431517D01*
X135911673Y-103459698D01*
X136090301Y-103638327D01*
X136323690Y-103735000D01*
X137014250Y-103735000D01*
X137173000Y-103576250D01*
X137173000Y-102777000D01*
X137427000Y-102777000D01*
X137427000Y-103576250D01*
X137585750Y-103735000D01*
X138276310Y-103735000D01*
X138509699Y-103638327D01*
X138688327Y-103459698D01*
X138785000Y-103226309D01*
X138785000Y-102935750D01*
X138626250Y-102777000D01*
X137427000Y-102777000D01*
X137173000Y-102777000D01*
X135973750Y-102777000D01*
X135900000Y-102850750D01*
X135826250Y-102777000D01*
X134627000Y-102777000D01*
X134627000Y-102797000D01*
X134373000Y-102797000D01*
X134373000Y-102777000D01*
X134353000Y-102777000D01*
X134353000Y-102523000D01*
X134373000Y-102523000D01*
X134373000Y-101723750D01*
X134627000Y-101723750D01*
X134627000Y-102523000D01*
X135826250Y-102523000D01*
X135900000Y-102449250D01*
X135973750Y-102523000D01*
X137173000Y-102523000D01*
X137173000Y-101723750D01*
X137427000Y-101723750D01*
X137427000Y-102523000D01*
X138626250Y-102523000D01*
X138785000Y-102364250D01*
X138785000Y-102073691D01*
X138688327Y-101840302D01*
X138509699Y-101661673D01*
X138276310Y-101565000D01*
X137585750Y-101565000D01*
X137427000Y-101723750D01*
X137173000Y-101723750D01*
X137014250Y-101565000D01*
X136323690Y-101565000D01*
X136090301Y-101661673D01*
X135911673Y-101840302D01*
X135900000Y-101868483D01*
X135888327Y-101840302D01*
X135709699Y-101661673D01*
X135476310Y-101565000D01*
X134785750Y-101565000D01*
X134627000Y-101723750D01*
X134373000Y-101723750D01*
X134214250Y-101565000D01*
X133523690Y-101565000D01*
X133290301Y-101661673D01*
X133111673Y-101840302D01*
X133046841Y-101996819D01*
X133003162Y-101764683D01*
X132864090Y-101548559D01*
X132651890Y-101403569D01*
X132560000Y-101384961D01*
X132560000Y-100914802D01*
X132797401Y-100677401D01*
X132962148Y-100430840D01*
X133020000Y-100140000D01*
X133020000Y-99972954D01*
X133310054Y-99779147D01*
X133530000Y-99449974D01*
X133749946Y-99779147D01*
X134231715Y-100101054D01*
X134800000Y-100214093D01*
X135368285Y-100101054D01*
X135850054Y-99779147D01*
X136171961Y-99297378D01*
X136285000Y-98729093D01*
X136285000Y-98670907D01*
X136171961Y-98102622D01*
X135850054Y-97620853D01*
X135368285Y-97298946D01*
X134800000Y-97185907D01*
X134231715Y-97298946D01*
X133749946Y-97620853D01*
X133530000Y-97950026D01*
X133310054Y-97620853D01*
X132828285Y-97298946D01*
X132260000Y-97185907D01*
X131691715Y-97298946D01*
X131209946Y-97620853D01*
X130990000Y-97950026D01*
X130770054Y-97620853D01*
X130288285Y-97298946D01*
X129720000Y-97185907D01*
X129151715Y-97298946D01*
X128669946Y-97620853D01*
X128450000Y-97950026D01*
X128230054Y-97620853D01*
X127748285Y-97298946D01*
X127180000Y-97185907D01*
X126611715Y-97298946D01*
X126129946Y-97620853D01*
X125910000Y-97950026D01*
X125690054Y-97620853D01*
X125208285Y-97298946D01*
X124640000Y-97185907D01*
X124071715Y-97298946D01*
X123589946Y-97620853D01*
X123562150Y-97662452D01*
X123553162Y-97614683D01*
X123414090Y-97398559D01*
X123201890Y-97253569D01*
X122950000Y-97202560D01*
X121250000Y-97202560D01*
X121014683Y-97246838D01*
X120798559Y-97385910D01*
X120653569Y-97598110D01*
X120602560Y-97850000D01*
X120602560Y-99550000D01*
X120646838Y-99785317D01*
X120785910Y-100001441D01*
X120998110Y-100146431D01*
X121250000Y-100197440D01*
X122522638Y-100197440D01*
X123762599Y-101437401D01*
X123953565Y-101565000D01*
X123323690Y-101565000D01*
X123090301Y-101661673D01*
X122911673Y-101840302D01*
X122833942Y-102027960D01*
X122651890Y-101903569D01*
X122400000Y-101852560D01*
X121200000Y-101852560D01*
X120964683Y-101896838D01*
X120811226Y-101995585D01*
X120788327Y-101940302D01*
X120609699Y-101761673D01*
X120376310Y-101665000D01*
X119685750Y-101665000D01*
X119527000Y-101823750D01*
X119527000Y-102623000D01*
X119547000Y-102623000D01*
X119547000Y-102877000D01*
X119527000Y-102877000D01*
X119527000Y-103676250D01*
X119685750Y-103835000D01*
X120376310Y-103835000D01*
X120563382Y-103757512D01*
X120596838Y-103935317D01*
X120735910Y-104151441D01*
X120805711Y-104199134D01*
X120748559Y-104235910D01*
X120603569Y-104448110D01*
X120563555Y-104645703D01*
X120501890Y-104603569D01*
X120250000Y-104552560D01*
X118550000Y-104552560D01*
X118314683Y-104596838D01*
X118098559Y-104735910D01*
X117953569Y-104948110D01*
X117902560Y-105200000D01*
X117902560Y-106100000D01*
X117946838Y-106335317D01*
X118085910Y-106551441D01*
X118298110Y-106696431D01*
X118550000Y-106747440D01*
X118802489Y-106747440D01*
X118862599Y-106837401D01*
X119162599Y-107137401D01*
X119409161Y-107302148D01*
X119700000Y-107360000D01*
X121400000Y-107360000D01*
X121690839Y-107302148D01*
X121937401Y-107137401D01*
X122140000Y-106934802D01*
X122140000Y-108185198D01*
X122107873Y-108217325D01*
X121790409Y-108005203D01*
X121336929Y-107915000D01*
X119863071Y-107915000D01*
X119409591Y-108005203D01*
X119025149Y-108262078D01*
X118938301Y-108392055D01*
X118909160Y-108397852D01*
X118662599Y-108562599D01*
X116735000Y-110490198D01*
X116735000Y-110235750D01*
X116576250Y-110077000D01*
X114327000Y-110077000D01*
X114327000Y-111426250D01*
X114485750Y-111585000D01*
X115640198Y-111585000D01*
X115462599Y-111762599D01*
X115297852Y-112009161D01*
X115240000Y-112300000D01*
X115240000Y-112652560D01*
X114700000Y-112652560D01*
X114464683Y-112696838D01*
X114248559Y-112835910D01*
X114202031Y-112904006D01*
X114059698Y-112761673D01*
X113826309Y-112665000D01*
X112685750Y-112665000D01*
X112527000Y-112823750D01*
X112527000Y-113973000D01*
X112547000Y-113973000D01*
X112547000Y-114227000D01*
X112527000Y-114227000D01*
X112527000Y-115376250D01*
X112685750Y-115535000D01*
X113826309Y-115535000D01*
X114059698Y-115438327D01*
X114200936Y-115297090D01*
X114235910Y-115351441D01*
X114448110Y-115496431D01*
X114681504Y-115543694D01*
X113862599Y-116362599D01*
X113697852Y-116609161D01*
X113686745Y-116665000D01*
X113185750Y-116665000D01*
X113027000Y-116823750D01*
X113027000Y-117623000D01*
X113047000Y-117623000D01*
X113047000Y-117877000D01*
X113027000Y-117877000D01*
X113027000Y-117897000D01*
X112773000Y-117897000D01*
X112773000Y-117877000D01*
X111573750Y-117877000D01*
X111415000Y-118035750D01*
X111415000Y-118310198D01*
X111062599Y-118662599D01*
X110897852Y-118909161D01*
X110840000Y-119200000D01*
X110840000Y-121200000D01*
X110876943Y-121385723D01*
X110803569Y-121493110D01*
X110752560Y-121745000D01*
X110752560Y-123295000D01*
X110796838Y-123530317D01*
X110935910Y-123746441D01*
X111148110Y-123891431D01*
X111290000Y-123920164D01*
X111290000Y-129078258D01*
X111164683Y-129101838D01*
X110948559Y-129240910D01*
X110803569Y-129453110D01*
X110752560Y-129705000D01*
X110752560Y-131255000D01*
X110759146Y-131290000D01*
X107269931Y-131290000D01*
X106711660Y-131178953D01*
X106297669Y-130902333D01*
X106021046Y-130488338D01*
X105910000Y-129930069D01*
X105910000Y-129743599D01*
X106064699Y-129743599D01*
X106328281Y-130381515D01*
X106815918Y-130870004D01*
X107453373Y-131134699D01*
X108143599Y-131135301D01*
X108781515Y-130871719D01*
X109270004Y-130384082D01*
X109534699Y-129746627D01*
X109535301Y-129056401D01*
X109271719Y-128418485D01*
X108784082Y-127929996D01*
X108146627Y-127665301D01*
X107456401Y-127664699D01*
X106818485Y-127928281D01*
X106329996Y-128415918D01*
X106065301Y-129053373D01*
X106064699Y-129743599D01*
X105910000Y-129743599D01*
X105910000Y-117173691D01*
X111415000Y-117173691D01*
X111415000Y-117464250D01*
X111573750Y-117623000D01*
X112773000Y-117623000D01*
X112773000Y-116823750D01*
X112614250Y-116665000D01*
X111923690Y-116665000D01*
X111690301Y-116761673D01*
X111511673Y-116940302D01*
X111415000Y-117173691D01*
X105910000Y-117173691D01*
X105910000Y-114385750D01*
X110465000Y-114385750D01*
X110465000Y-115026310D01*
X110561673Y-115259699D01*
X110740302Y-115438327D01*
X110973691Y-115535000D01*
X112114250Y-115535000D01*
X112273000Y-115376250D01*
X112273000Y-114227000D01*
X110623750Y-114227000D01*
X110465000Y-114385750D01*
X105910000Y-114385750D01*
X105910000Y-113173690D01*
X110465000Y-113173690D01*
X110465000Y-113814250D01*
X110623750Y-113973000D01*
X112273000Y-113973000D01*
X112273000Y-112823750D01*
X112114250Y-112665000D01*
X110973691Y-112665000D01*
X110740302Y-112761673D01*
X110561673Y-112940301D01*
X110465000Y-113173690D01*
X105910000Y-113173690D01*
X105910000Y-110235750D01*
X111665000Y-110235750D01*
X111665000Y-111076309D01*
X111761673Y-111309698D01*
X111940301Y-111488327D01*
X112173690Y-111585000D01*
X113914250Y-111585000D01*
X114073000Y-111426250D01*
X114073000Y-110077000D01*
X111823750Y-110077000D01*
X111665000Y-110235750D01*
X105910000Y-110235750D01*
X105910000Y-108823691D01*
X111665000Y-108823691D01*
X111665000Y-109664250D01*
X111823750Y-109823000D01*
X114073000Y-109823000D01*
X114073000Y-108473750D01*
X114327000Y-108473750D01*
X114327000Y-109823000D01*
X116576250Y-109823000D01*
X116735000Y-109664250D01*
X116735000Y-108823691D01*
X116638327Y-108590302D01*
X116459699Y-108411673D01*
X116226310Y-108315000D01*
X114485750Y-108315000D01*
X114327000Y-108473750D01*
X114073000Y-108473750D01*
X113914250Y-108315000D01*
X112173690Y-108315000D01*
X111940301Y-108411673D01*
X111761673Y-108590302D01*
X111665000Y-108823691D01*
X105910000Y-108823691D01*
X105910000Y-101200000D01*
X110414999Y-101200000D01*
X110415000Y-101200005D01*
X110415000Y-101899995D01*
X110414999Y-101900000D01*
X110464352Y-102148110D01*
X110482367Y-102238675D01*
X110571431Y-102371969D01*
X110553569Y-102398110D01*
X110502560Y-102650000D01*
X110502560Y-104650000D01*
X110546838Y-104885317D01*
X110685910Y-105101441D01*
X110898110Y-105246431D01*
X111150000Y-105297440D01*
X112650000Y-105297440D01*
X112885317Y-105253162D01*
X113049492Y-105147518D01*
X113090301Y-105188327D01*
X113323690Y-105285000D01*
X113914250Y-105285000D01*
X114073000Y-105126250D01*
X114073000Y-103777000D01*
X114053000Y-103777000D01*
X114053000Y-103523000D01*
X114073000Y-103523000D01*
X114073000Y-102173750D01*
X113914250Y-102015000D01*
X113584983Y-102015000D01*
X113696431Y-101851890D01*
X113747440Y-101600000D01*
X113747440Y-101478141D01*
X113825790Y-101425790D01*
X114188389Y-101063191D01*
X114452560Y-101327362D01*
X114452560Y-101600000D01*
X114496838Y-101835317D01*
X114612461Y-102015000D01*
X114485750Y-102015000D01*
X114327000Y-102173750D01*
X114327000Y-103523000D01*
X114347000Y-103523000D01*
X114347000Y-103777000D01*
X114327000Y-103777000D01*
X114327000Y-105126250D01*
X114485750Y-105285000D01*
X115076310Y-105285000D01*
X115309699Y-105188327D01*
X115351660Y-105146366D01*
X115498110Y-105246431D01*
X115750000Y-105297440D01*
X117250000Y-105297440D01*
X117485317Y-105253162D01*
X117701441Y-105114090D01*
X117846431Y-104901890D01*
X117897440Y-104650000D01*
X117897440Y-103035750D01*
X117915000Y-103035750D01*
X117915000Y-103326309D01*
X118011673Y-103559698D01*
X118190301Y-103738327D01*
X118423690Y-103835000D01*
X119114250Y-103835000D01*
X119273000Y-103676250D01*
X119273000Y-102877000D01*
X118073750Y-102877000D01*
X117915000Y-103035750D01*
X117897440Y-103035750D01*
X117897440Y-102650000D01*
X117853162Y-102414683D01*
X117718989Y-102206173D01*
X117725450Y-102173691D01*
X117915000Y-102173691D01*
X117915000Y-102464250D01*
X118073750Y-102623000D01*
X119273000Y-102623000D01*
X119273000Y-101823750D01*
X119114250Y-101665000D01*
X118423690Y-101665000D01*
X118190301Y-101761673D01*
X118011673Y-101940302D01*
X117915000Y-102173691D01*
X117725450Y-102173691D01*
X117760000Y-102000000D01*
X117760000Y-101000000D01*
X117702148Y-100709161D01*
X117537401Y-100462599D01*
X117337401Y-100262599D01*
X117090839Y-100097852D01*
X116800000Y-100040000D01*
X116747440Y-100040000D01*
X116747440Y-100000000D01*
X116703162Y-99764683D01*
X116564090Y-99548559D01*
X116351890Y-99403569D01*
X116100000Y-99352560D01*
X115922242Y-99352560D01*
X115937401Y-99337401D01*
X116102148Y-99090839D01*
X116160000Y-98800000D01*
X116160000Y-98473897D01*
X116282514Y-98423275D01*
X116721732Y-97984823D01*
X116959728Y-97411664D01*
X116960270Y-96791058D01*
X116816703Y-96443599D01*
X144664699Y-96443599D01*
X144928281Y-97081515D01*
X145415918Y-97570004D01*
X146053373Y-97834699D01*
X146743599Y-97835301D01*
X147381515Y-97571719D01*
X147870004Y-97084082D01*
X148134699Y-96446627D01*
X148135301Y-95756401D01*
X147871719Y-95118485D01*
X147384082Y-94629996D01*
X146746627Y-94365301D01*
X146056401Y-94364699D01*
X145418485Y-94628281D01*
X144929996Y-95115918D01*
X144665301Y-95753373D01*
X144664699Y-96443599D01*
X116816703Y-96443599D01*
X116723275Y-96217486D01*
X116284823Y-95778268D01*
X115711664Y-95540272D01*
X115091058Y-95539730D01*
X114517486Y-95776725D01*
X114399251Y-95894754D01*
X114289090Y-95723559D01*
X114076890Y-95578569D01*
X113825000Y-95527560D01*
X111975000Y-95527560D01*
X111739683Y-95571838D01*
X111523559Y-95710910D01*
X111378569Y-95923110D01*
X111327560Y-96175000D01*
X111327560Y-98025000D01*
X111371838Y-98260317D01*
X111510910Y-98476441D01*
X111723110Y-98621431D01*
X111975000Y-98672440D01*
X112015000Y-98672440D01*
X112015000Y-98799995D01*
X112014999Y-98800000D01*
X112064895Y-99050839D01*
X112082367Y-99138675D01*
X112225280Y-99352560D01*
X112100000Y-99352560D01*
X111864683Y-99396838D01*
X111648559Y-99535910D01*
X111503569Y-99748110D01*
X111460110Y-99962717D01*
X111361325Y-99982367D01*
X111074210Y-100174210D01*
X111074208Y-100174213D01*
X110674210Y-100574210D01*
X110482367Y-100861325D01*
X110482367Y-100861326D01*
X110414999Y-101200000D01*
X105910000Y-101200000D01*
X105910000Y-90743599D01*
X106064699Y-90743599D01*
X106328281Y-91381515D01*
X106815918Y-91870004D01*
X107453373Y-92134699D01*
X108143599Y-92135301D01*
X108781515Y-91871719D01*
X109270004Y-91384082D01*
X109534699Y-90746627D01*
X109534701Y-90743599D01*
X154564699Y-90743599D01*
X154828281Y-91381515D01*
X155315918Y-91870004D01*
X155953373Y-92134699D01*
X156643599Y-92135301D01*
X157281515Y-91871719D01*
X157770004Y-91384082D01*
X158034699Y-90746627D01*
X158035301Y-90056401D01*
X157771719Y-89418485D01*
X157284082Y-88929996D01*
X156646627Y-88665301D01*
X155956401Y-88664699D01*
X155318485Y-88928281D01*
X154829996Y-89415918D01*
X154565301Y-90053373D01*
X154564699Y-90743599D01*
X109534701Y-90743599D01*
X109535301Y-90056401D01*
X109271719Y-89418485D01*
X108784082Y-88929996D01*
X108146627Y-88665301D01*
X107456401Y-88664699D01*
X106818485Y-88928281D01*
X106329996Y-89415918D01*
X106065301Y-90053373D01*
X106064699Y-90743599D01*
X105910000Y-90743599D01*
X105910000Y-89869931D01*
X106021046Y-89311662D01*
X106297669Y-88897667D01*
X106711660Y-88621047D01*
X107269931Y-88510000D01*
X156830069Y-88510000D01*
X157388338Y-88621046D01*
X157388338Y-88621046D01*
G37*
X157388338Y-88621046D02*
X157802333Y-88897669D01*
X158078953Y-89311660D01*
X158190000Y-89869931D01*
X158190000Y-129930069D01*
X158078953Y-130488340D01*
X157802333Y-130902331D01*
X157388338Y-131178954D01*
X156830069Y-131290000D01*
X152709611Y-131290000D01*
X152748190Y-131099490D01*
X152748190Y-129743599D01*
X154564699Y-129743599D01*
X154828281Y-130381515D01*
X155315918Y-130870004D01*
X155953373Y-131134699D01*
X156643599Y-131135301D01*
X157281515Y-130871719D01*
X157770004Y-130384082D01*
X158034699Y-129746627D01*
X158035301Y-129056401D01*
X157771719Y-128418485D01*
X157284082Y-127929996D01*
X156646627Y-127665301D01*
X155956401Y-127664699D01*
X155318485Y-127928281D01*
X154829996Y-128415918D01*
X154565301Y-129053373D01*
X154564699Y-129743599D01*
X152748190Y-129743599D01*
X152748190Y-129100510D01*
X152703912Y-128865193D01*
X152564840Y-128649069D01*
X152352640Y-128504079D01*
X152100750Y-128453070D01*
X150101770Y-128453070D01*
X149866453Y-128497348D01*
X149650329Y-128636420D01*
X149556163Y-128774236D01*
X149450260Y-128752790D01*
X147149020Y-128752790D01*
X146960000Y-128788357D01*
X146960000Y-127600000D01*
X146902148Y-127309161D01*
X146737401Y-127062599D01*
X145890000Y-126215198D01*
X145890000Y-125044648D01*
X146189670Y-124844415D01*
X146400000Y-124529634D01*
X146610330Y-124844415D01*
X147096511Y-125169271D01*
X147670000Y-125283345D01*
X148243489Y-125169271D01*
X148729670Y-124844415D01*
X148940000Y-124529634D01*
X149150330Y-124844415D01*
X149636511Y-125169271D01*
X150210000Y-125283345D01*
X150783489Y-125169271D01*
X151269670Y-124844415D01*
X151594526Y-124358234D01*
X151708600Y-123784745D01*
X151708600Y-123415255D01*
X151594526Y-122841766D01*
X151269670Y-122355585D01*
X150783489Y-122030729D01*
X150210000Y-121916655D01*
X149636511Y-122030729D01*
X149150330Y-122355585D01*
X148940000Y-122670366D01*
X148729670Y-122355585D01*
X148243489Y-122030729D01*
X147670000Y-121916655D01*
X147096511Y-122030729D01*
X146610330Y-122355585D01*
X146400000Y-122670366D01*
X146189670Y-122355585D01*
X145703489Y-122030729D01*
X145130000Y-121916655D01*
X144556511Y-122030729D01*
X144070330Y-122355585D01*
X144055500Y-122377780D01*
X143991927Y-122224302D01*
X143813299Y-122045673D01*
X143579910Y-121949000D01*
X142875750Y-121949000D01*
X142717000Y-122107750D01*
X142717000Y-123473000D01*
X142737000Y-123473000D01*
X142737000Y-123727000D01*
X142717000Y-123727000D01*
X142717000Y-125092250D01*
X142875750Y-125251000D01*
X143579910Y-125251000D01*
X143813299Y-125154327D01*
X143991927Y-124975698D01*
X144055500Y-124822220D01*
X144070330Y-124844415D01*
X144370000Y-125044648D01*
X144370000Y-126530000D01*
X144427852Y-126820839D01*
X144592599Y-127067401D01*
X145440000Y-127914802D01*
X145440000Y-128891225D01*
X145410678Y-128861903D01*
X145177289Y-128765230D01*
X144186110Y-128765230D01*
X144027360Y-128923980D01*
X144027360Y-129973000D01*
X145527230Y-129973000D01*
X145582582Y-129917648D01*
X145662599Y-130037401D01*
X146262599Y-130637401D01*
X146501580Y-130797083D01*
X146501580Y-130799770D01*
X146545858Y-131035087D01*
X146684930Y-131251211D01*
X146741700Y-131290000D01*
X145458775Y-131290000D01*
X145589307Y-131159469D01*
X145685980Y-130926080D01*
X145685980Y-130385750D01*
X145527230Y-130227000D01*
X144027360Y-130227000D01*
X144027360Y-130247000D01*
X143773360Y-130247000D01*
X143773360Y-130227000D01*
X141225740Y-130227000D01*
X141225740Y-130247000D01*
X140971740Y-130247000D01*
X140971740Y-130227000D01*
X139623000Y-130227000D01*
X139464250Y-130385750D01*
X139464250Y-131225800D01*
X139490843Y-131290000D01*
X136727000Y-131290000D01*
X136727000Y-128974200D01*
X139464250Y-128974200D01*
X139464250Y-129814250D01*
X139623000Y-129973000D01*
X140971740Y-129973000D01*
X140971740Y-128624260D01*
X141225740Y-128624260D01*
X141225740Y-129973000D01*
X143773360Y-129973000D01*
X143773360Y-128923980D01*
X143614610Y-128765230D01*
X142646672Y-128765230D01*
X142636557Y-128740811D01*
X142457928Y-128562183D01*
X142224539Y-128465510D01*
X141384490Y-128465510D01*
X141225740Y-128624260D01*
X140971740Y-128624260D01*
X140812990Y-128465510D01*
X139972941Y-128465510D01*
X139739552Y-128562183D01*
X139560923Y-128740811D01*
X139464250Y-128974200D01*
X136727000Y-128974200D01*
X136727000Y-125500000D01*
X136718315Y-125453841D01*
X136691035Y-125411447D01*
X136649410Y-125383006D01*
X136600000Y-125373000D01*
X120100000Y-125373000D01*
X120053841Y-125381685D01*
X120011447Y-125408965D01*
X119983006Y-125450590D01*
X119973000Y-125500000D01*
X119973000Y-131290000D01*
X117840352Y-131290000D01*
X117847440Y-131255000D01*
X117847440Y-129705000D01*
X117803162Y-129469683D01*
X117664090Y-129253559D01*
X117451890Y-129108569D01*
X117310000Y-129079836D01*
X117310000Y-123921742D01*
X117435317Y-123898162D01*
X117651441Y-123759090D01*
X117745958Y-123620760D01*
X119062598Y-124937401D01*
X119227345Y-125047480D01*
X119309161Y-125102148D01*
X119600000Y-125160000D01*
X129500000Y-125160000D01*
X129790839Y-125102148D01*
X130037401Y-124937401D01*
X131800000Y-123174802D01*
X132262599Y-123637401D01*
X132509161Y-123802148D01*
X132800000Y-123860000D01*
X134142074Y-123860000D01*
X134146838Y-123885317D01*
X134285910Y-124101441D01*
X134498110Y-124246431D01*
X134750000Y-124297440D01*
X137250000Y-124297440D01*
X137485317Y-124253162D01*
X137701441Y-124114090D01*
X137846431Y-123901890D01*
X137849699Y-123885750D01*
X141091400Y-123885750D01*
X141091400Y-124742309D01*
X141188073Y-124975698D01*
X141366701Y-125154327D01*
X141600090Y-125251000D01*
X142304250Y-125251000D01*
X142463000Y-125092250D01*
X142463000Y-123727000D01*
X141250150Y-123727000D01*
X141091400Y-123885750D01*
X137849699Y-123885750D01*
X137897440Y-123650000D01*
X137897440Y-122550000D01*
X137880071Y-122457691D01*
X141091400Y-122457691D01*
X141091400Y-123314250D01*
X141250150Y-123473000D01*
X142463000Y-123473000D01*
X142463000Y-122107750D01*
X142304250Y-121949000D01*
X141600090Y-121949000D01*
X141366701Y-122045673D01*
X141188073Y-122224302D01*
X141091400Y-122457691D01*
X137880071Y-122457691D01*
X137853162Y-122314683D01*
X137714090Y-122098559D01*
X137526385Y-121970306D01*
X137574851Y-121937922D01*
X137831726Y-121553480D01*
X137921929Y-121100000D01*
X137831726Y-120646520D01*
X137574851Y-120262078D01*
X137332283Y-120100000D01*
X137574851Y-119937922D01*
X137631042Y-119853825D01*
X137890839Y-119802148D01*
X138137401Y-119637401D01*
X138337401Y-119437401D01*
X138502148Y-119190839D01*
X138560000Y-118900000D01*
X138560000Y-107700000D01*
X138502148Y-107409161D01*
X138337401Y-107162599D01*
X138060000Y-106885198D01*
X138060000Y-106647440D01*
X138150000Y-106647440D01*
X138385317Y-106603162D01*
X138601441Y-106464090D01*
X138746431Y-106251890D01*
X138797440Y-106000000D01*
X138797440Y-105100000D01*
X138753162Y-104864683D01*
X138614090Y-104648559D01*
X138401890Y-104503569D01*
X138150000Y-104452560D01*
X136450000Y-104452560D01*
X136214683Y-104496838D01*
X135998559Y-104635910D01*
X135899367Y-104781083D01*
X135814090Y-104648559D01*
X135601890Y-104503569D01*
X135350000Y-104452560D01*
X135230672Y-104452560D01*
X135202148Y-104309161D01*
X135037401Y-104062599D01*
X134737401Y-103762599D01*
X134627002Y-103688833D01*
X134627002Y-103576252D01*
X134785750Y-103735000D01*
X135476310Y-103735000D01*
X135709699Y-103638327D01*
X135888327Y-103459698D01*
X135900000Y-103431517D01*
X135911673Y-103459698D01*
X136090301Y-103638327D01*
X136323690Y-103735000D01*
X137014250Y-103735000D01*
X137173000Y-103576250D01*
X137173000Y-102777000D01*
X137427000Y-102777000D01*
X137427000Y-103576250D01*
X137585750Y-103735000D01*
X138276310Y-103735000D01*
X138509699Y-103638327D01*
X138688327Y-103459698D01*
X138785000Y-103226309D01*
X138785000Y-102935750D01*
X138626250Y-102777000D01*
X137427000Y-102777000D01*
X137173000Y-102777000D01*
X135973750Y-102777000D01*
X135900000Y-102850750D01*
X135826250Y-102777000D01*
X134627000Y-102777000D01*
X134627000Y-102797000D01*
X134373000Y-102797000D01*
X134373000Y-102777000D01*
X134353000Y-102777000D01*
X134353000Y-102523000D01*
X134373000Y-102523000D01*
X134373000Y-101723750D01*
X134627000Y-101723750D01*
X134627000Y-102523000D01*
X135826250Y-102523000D01*
X135900000Y-102449250D01*
X135973750Y-102523000D01*
X137173000Y-102523000D01*
X137173000Y-101723750D01*
X137427000Y-101723750D01*
X137427000Y-102523000D01*
X138626250Y-102523000D01*
X138785000Y-102364250D01*
X138785000Y-102073691D01*
X138688327Y-101840302D01*
X138509699Y-101661673D01*
X138276310Y-101565000D01*
X137585750Y-101565000D01*
X137427000Y-101723750D01*
X137173000Y-101723750D01*
X137014250Y-101565000D01*
X136323690Y-101565000D01*
X136090301Y-101661673D01*
X135911673Y-101840302D01*
X135900000Y-101868483D01*
X135888327Y-101840302D01*
X135709699Y-101661673D01*
X135476310Y-101565000D01*
X134785750Y-101565000D01*
X134627000Y-101723750D01*
X134373000Y-101723750D01*
X134214250Y-101565000D01*
X133523690Y-101565000D01*
X133290301Y-101661673D01*
X133111673Y-101840302D01*
X133046841Y-101996819D01*
X133003162Y-101764683D01*
X132864090Y-101548559D01*
X132651890Y-101403569D01*
X132560000Y-101384961D01*
X132560000Y-100914802D01*
X132797401Y-100677401D01*
X132962148Y-100430840D01*
X133020000Y-100140000D01*
X133020000Y-99972954D01*
X133310054Y-99779147D01*
X133530000Y-99449974D01*
X133749946Y-99779147D01*
X134231715Y-100101054D01*
X134800000Y-100214093D01*
X135368285Y-100101054D01*
X135850054Y-99779147D01*
X136171961Y-99297378D01*
X136285000Y-98729093D01*
X136285000Y-98670907D01*
X136171961Y-98102622D01*
X135850054Y-97620853D01*
X135368285Y-97298946D01*
X134800000Y-97185907D01*
X134231715Y-97298946D01*
X133749946Y-97620853D01*
X133530000Y-97950026D01*
X133310054Y-97620853D01*
X132828285Y-97298946D01*
X132260000Y-97185907D01*
X131691715Y-97298946D01*
X131209946Y-97620853D01*
X130990000Y-97950026D01*
X130770054Y-97620853D01*
X130288285Y-97298946D01*
X129720000Y-97185907D01*
X129151715Y-97298946D01*
X128669946Y-97620853D01*
X128450000Y-97950026D01*
X128230054Y-97620853D01*
X127748285Y-97298946D01*
X127180000Y-97185907D01*
X126611715Y-97298946D01*
X126129946Y-97620853D01*
X125910000Y-97950026D01*
X125690054Y-97620853D01*
X125208285Y-97298946D01*
X124640000Y-97185907D01*
X124071715Y-97298946D01*
X123589946Y-97620853D01*
X123562150Y-97662452D01*
X123553162Y-97614683D01*
X123414090Y-97398559D01*
X123201890Y-97253569D01*
X122950000Y-97202560D01*
X121250000Y-97202560D01*
X121014683Y-97246838D01*
X120798559Y-97385910D01*
X120653569Y-97598110D01*
X120602560Y-97850000D01*
X120602560Y-99550000D01*
X120646838Y-99785317D01*
X120785910Y-100001441D01*
X120998110Y-100146431D01*
X121250000Y-100197440D01*
X122522638Y-100197440D01*
X123762599Y-101437401D01*
X123953565Y-101565000D01*
X123323690Y-101565000D01*
X123090301Y-101661673D01*
X122911673Y-101840302D01*
X122833942Y-102027960D01*
X122651890Y-101903569D01*
X122400000Y-101852560D01*
X121200000Y-101852560D01*
X120964683Y-101896838D01*
X120811226Y-101995585D01*
X120788327Y-101940302D01*
X120609699Y-101761673D01*
X120376310Y-101665000D01*
X119685750Y-101665000D01*
X119527000Y-101823750D01*
X119527000Y-102623000D01*
X119547000Y-102623000D01*
X119547000Y-102877000D01*
X119527000Y-102877000D01*
X119527000Y-103676250D01*
X119685750Y-103835000D01*
X120376310Y-103835000D01*
X120563382Y-103757512D01*
X120596838Y-103935317D01*
X120735910Y-104151441D01*
X120805711Y-104199134D01*
X120748559Y-104235910D01*
X120603569Y-104448110D01*
X120563555Y-104645703D01*
X120501890Y-104603569D01*
X120250000Y-104552560D01*
X118550000Y-104552560D01*
X118314683Y-104596838D01*
X118098559Y-104735910D01*
X117953569Y-104948110D01*
X117902560Y-105200000D01*
X117902560Y-106100000D01*
X117946838Y-106335317D01*
X118085910Y-106551441D01*
X118298110Y-106696431D01*
X118550000Y-106747440D01*
X118802489Y-106747440D01*
X118862599Y-106837401D01*
X119162599Y-107137401D01*
X119409161Y-107302148D01*
X119700000Y-107360000D01*
X121400000Y-107360000D01*
X121690839Y-107302148D01*
X121937401Y-107137401D01*
X122140000Y-106934802D01*
X122140000Y-108185198D01*
X122107873Y-108217325D01*
X121790409Y-108005203D01*
X121336929Y-107915000D01*
X119863071Y-107915000D01*
X119409591Y-108005203D01*
X119025149Y-108262078D01*
X118938301Y-108392055D01*
X118909160Y-108397852D01*
X118662599Y-108562599D01*
X116735000Y-110490198D01*
X116735000Y-110235750D01*
X116576250Y-110077000D01*
X114327000Y-110077000D01*
X114327000Y-111426250D01*
X114485750Y-111585000D01*
X115640198Y-111585000D01*
X115462599Y-111762599D01*
X115297852Y-112009161D01*
X115240000Y-112300000D01*
X115240000Y-112652560D01*
X114700000Y-112652560D01*
X114464683Y-112696838D01*
X114248559Y-112835910D01*
X114202031Y-112904006D01*
X114059698Y-112761673D01*
X113826309Y-112665000D01*
X112685750Y-112665000D01*
X112527000Y-112823750D01*
X112527000Y-113973000D01*
X112547000Y-113973000D01*
X112547000Y-114227000D01*
X112527000Y-114227000D01*
X112527000Y-115376250D01*
X112685750Y-115535000D01*
X113826309Y-115535000D01*
X114059698Y-115438327D01*
X114200936Y-115297090D01*
X114235910Y-115351441D01*
X114448110Y-115496431D01*
X114681504Y-115543694D01*
X113862599Y-116362599D01*
X113697852Y-116609161D01*
X113686745Y-116665000D01*
X113185750Y-116665000D01*
X113027000Y-116823750D01*
X113027000Y-117623000D01*
X113047000Y-117623000D01*
X113047000Y-117877000D01*
X113027000Y-117877000D01*
X113027000Y-117897000D01*
X112773000Y-117897000D01*
X112773000Y-117877000D01*
X111573750Y-117877000D01*
X111415000Y-118035750D01*
X111415000Y-118310198D01*
X111062599Y-118662599D01*
X110897852Y-118909161D01*
X110840000Y-119200000D01*
X110840000Y-121200000D01*
X110876943Y-121385723D01*
X110803569Y-121493110D01*
X110752560Y-121745000D01*
X110752560Y-123295000D01*
X110796838Y-123530317D01*
X110935910Y-123746441D01*
X111148110Y-123891431D01*
X111290000Y-123920164D01*
X111290000Y-129078258D01*
X111164683Y-129101838D01*
X110948559Y-129240910D01*
X110803569Y-129453110D01*
X110752560Y-129705000D01*
X110752560Y-131255000D01*
X110759146Y-131290000D01*
X107269931Y-131290000D01*
X106711660Y-131178953D01*
X106297669Y-130902333D01*
X106021046Y-130488338D01*
X105910000Y-129930069D01*
X105910000Y-129743599D01*
X106064699Y-129743599D01*
X106328281Y-130381515D01*
X106815918Y-130870004D01*
X107453373Y-131134699D01*
X108143599Y-131135301D01*
X108781515Y-130871719D01*
X109270004Y-130384082D01*
X109534699Y-129746627D01*
X109535301Y-129056401D01*
X109271719Y-128418485D01*
X108784082Y-127929996D01*
X108146627Y-127665301D01*
X107456401Y-127664699D01*
X106818485Y-127928281D01*
X106329996Y-128415918D01*
X106065301Y-129053373D01*
X106064699Y-129743599D01*
X105910000Y-129743599D01*
X105910000Y-117173691D01*
X111415000Y-117173691D01*
X111415000Y-117464250D01*
X111573750Y-117623000D01*
X112773000Y-117623000D01*
X112773000Y-116823750D01*
X112614250Y-116665000D01*
X111923690Y-116665000D01*
X111690301Y-116761673D01*
X111511673Y-116940302D01*
X111415000Y-117173691D01*
X105910000Y-117173691D01*
X105910000Y-114385750D01*
X110465000Y-114385750D01*
X110465000Y-115026310D01*
X110561673Y-115259699D01*
X110740302Y-115438327D01*
X110973691Y-115535000D01*
X112114250Y-115535000D01*
X112273000Y-115376250D01*
X112273000Y-114227000D01*
X110623750Y-114227000D01*
X110465000Y-114385750D01*
X105910000Y-114385750D01*
X105910000Y-113173690D01*
X110465000Y-113173690D01*
X110465000Y-113814250D01*
X110623750Y-113973000D01*
X112273000Y-113973000D01*
X112273000Y-112823750D01*
X112114250Y-112665000D01*
X110973691Y-112665000D01*
X110740302Y-112761673D01*
X110561673Y-112940301D01*
X110465000Y-113173690D01*
X105910000Y-113173690D01*
X105910000Y-110235750D01*
X111665000Y-110235750D01*
X111665000Y-111076309D01*
X111761673Y-111309698D01*
X111940301Y-111488327D01*
X112173690Y-111585000D01*
X113914250Y-111585000D01*
X114073000Y-111426250D01*
X114073000Y-110077000D01*
X111823750Y-110077000D01*
X111665000Y-110235750D01*
X105910000Y-110235750D01*
X105910000Y-108823691D01*
X111665000Y-108823691D01*
X111665000Y-109664250D01*
X111823750Y-109823000D01*
X114073000Y-109823000D01*
X114073000Y-108473750D01*
X114327000Y-108473750D01*
X114327000Y-109823000D01*
X116576250Y-109823000D01*
X116735000Y-109664250D01*
X116735000Y-108823691D01*
X116638327Y-108590302D01*
X116459699Y-108411673D01*
X116226310Y-108315000D01*
X114485750Y-108315000D01*
X114327000Y-108473750D01*
X114073000Y-108473750D01*
X113914250Y-108315000D01*
X112173690Y-108315000D01*
X111940301Y-108411673D01*
X111761673Y-108590302D01*
X111665000Y-108823691D01*
X105910000Y-108823691D01*
X105910000Y-101200000D01*
X110414999Y-101200000D01*
X110415000Y-101200005D01*
X110415000Y-101899995D01*
X110414999Y-101900000D01*
X110464352Y-102148110D01*
X110482367Y-102238675D01*
X110571431Y-102371969D01*
X110553569Y-102398110D01*
X110502560Y-102650000D01*
X110502560Y-104650000D01*
X110546838Y-104885317D01*
X110685910Y-105101441D01*
X110898110Y-105246431D01*
X111150000Y-105297440D01*
X112650000Y-105297440D01*
X112885317Y-105253162D01*
X113049492Y-105147518D01*
X113090301Y-105188327D01*
X113323690Y-105285000D01*
X113914250Y-105285000D01*
X114073000Y-105126250D01*
X114073000Y-103777000D01*
X114053000Y-103777000D01*
X114053000Y-103523000D01*
X114073000Y-103523000D01*
X114073000Y-102173750D01*
X113914250Y-102015000D01*
X113584983Y-102015000D01*
X113696431Y-101851890D01*
X113747440Y-101600000D01*
X113747440Y-101478141D01*
X113825790Y-101425790D01*
X114188389Y-101063191D01*
X114452560Y-101327362D01*
X114452560Y-101600000D01*
X114496838Y-101835317D01*
X114612461Y-102015000D01*
X114485750Y-102015000D01*
X114327000Y-102173750D01*
X114327000Y-103523000D01*
X114347000Y-103523000D01*
X114347000Y-103777000D01*
X114327000Y-103777000D01*
X114327000Y-105126250D01*
X114485750Y-105285000D01*
X115076310Y-105285000D01*
X115309699Y-105188327D01*
X115351660Y-105146366D01*
X115498110Y-105246431D01*
X115750000Y-105297440D01*
X117250000Y-105297440D01*
X117485317Y-105253162D01*
X117701441Y-105114090D01*
X117846431Y-104901890D01*
X117897440Y-104650000D01*
X117897440Y-103035750D01*
X117915000Y-103035750D01*
X117915000Y-103326309D01*
X118011673Y-103559698D01*
X118190301Y-103738327D01*
X118423690Y-103835000D01*
X119114250Y-103835000D01*
X119273000Y-103676250D01*
X119273000Y-102877000D01*
X118073750Y-102877000D01*
X117915000Y-103035750D01*
X117897440Y-103035750D01*
X117897440Y-102650000D01*
X117853162Y-102414683D01*
X117718989Y-102206173D01*
X117725450Y-102173691D01*
X117915000Y-102173691D01*
X117915000Y-102464250D01*
X118073750Y-102623000D01*
X119273000Y-102623000D01*
X119273000Y-101823750D01*
X119114250Y-101665000D01*
X118423690Y-101665000D01*
X118190301Y-101761673D01*
X118011673Y-101940302D01*
X117915000Y-102173691D01*
X117725450Y-102173691D01*
X117760000Y-102000000D01*
X117760000Y-101000000D01*
X117702148Y-100709161D01*
X117537401Y-100462599D01*
X117337401Y-100262599D01*
X117090839Y-100097852D01*
X116800000Y-100040000D01*
X116747440Y-100040000D01*
X116747440Y-100000000D01*
X116703162Y-99764683D01*
X116564090Y-99548559D01*
X116351890Y-99403569D01*
X116100000Y-99352560D01*
X115922242Y-99352560D01*
X115937401Y-99337401D01*
X116102148Y-99090839D01*
X116160000Y-98800000D01*
X116160000Y-98473897D01*
X116282514Y-98423275D01*
X116721732Y-97984823D01*
X116959728Y-97411664D01*
X116960270Y-96791058D01*
X116816703Y-96443599D01*
X144664699Y-96443599D01*
X144928281Y-97081515D01*
X145415918Y-97570004D01*
X146053373Y-97834699D01*
X146743599Y-97835301D01*
X147381515Y-97571719D01*
X147870004Y-97084082D01*
X148134699Y-96446627D01*
X148135301Y-95756401D01*
X147871719Y-95118485D01*
X147384082Y-94629996D01*
X146746627Y-94365301D01*
X146056401Y-94364699D01*
X145418485Y-94628281D01*
X144929996Y-95115918D01*
X144665301Y-95753373D01*
X144664699Y-96443599D01*
X116816703Y-96443599D01*
X116723275Y-96217486D01*
X116284823Y-95778268D01*
X115711664Y-95540272D01*
X115091058Y-95539730D01*
X114517486Y-95776725D01*
X114399251Y-95894754D01*
X114289090Y-95723559D01*
X114076890Y-95578569D01*
X113825000Y-95527560D01*
X111975000Y-95527560D01*
X111739683Y-95571838D01*
X111523559Y-95710910D01*
X111378569Y-95923110D01*
X111327560Y-96175000D01*
X111327560Y-98025000D01*
X111371838Y-98260317D01*
X111510910Y-98476441D01*
X111723110Y-98621431D01*
X111975000Y-98672440D01*
X112015000Y-98672440D01*
X112015000Y-98799995D01*
X112014999Y-98800000D01*
X112064895Y-99050839D01*
X112082367Y-99138675D01*
X112225280Y-99352560D01*
X112100000Y-99352560D01*
X111864683Y-99396838D01*
X111648559Y-99535910D01*
X111503569Y-99748110D01*
X111460110Y-99962717D01*
X111361325Y-99982367D01*
X111074210Y-100174210D01*
X111074208Y-100174213D01*
X110674210Y-100574210D01*
X110482367Y-100861325D01*
X110482367Y-100861326D01*
X110414999Y-101200000D01*
X105910000Y-101200000D01*
X105910000Y-90743599D01*
X106064699Y-90743599D01*
X106328281Y-91381515D01*
X106815918Y-91870004D01*
X107453373Y-92134699D01*
X108143599Y-92135301D01*
X108781515Y-91871719D01*
X109270004Y-91384082D01*
X109534699Y-90746627D01*
X109534701Y-90743599D01*
X154564699Y-90743599D01*
X154828281Y-91381515D01*
X155315918Y-91870004D01*
X155953373Y-92134699D01*
X156643599Y-92135301D01*
X157281515Y-91871719D01*
X157770004Y-91384082D01*
X158034699Y-90746627D01*
X158035301Y-90056401D01*
X157771719Y-89418485D01*
X157284082Y-88929996D01*
X156646627Y-88665301D01*
X155956401Y-88664699D01*
X155318485Y-88928281D01*
X154829996Y-89415918D01*
X154565301Y-90053373D01*
X154564699Y-90743599D01*
X109534701Y-90743599D01*
X109535301Y-90056401D01*
X109271719Y-89418485D01*
X108784082Y-88929996D01*
X108146627Y-88665301D01*
X107456401Y-88664699D01*
X106818485Y-88928281D01*
X106329996Y-89415918D01*
X106065301Y-90053373D01*
X106064699Y-90743599D01*
X105910000Y-90743599D01*
X105910000Y-89869931D01*
X106021046Y-89311662D01*
X106297669Y-88897667D01*
X106711660Y-88621047D01*
X107269931Y-88510000D01*
X156830069Y-88510000D01*
X157388338Y-88621046D01*
G36*
X133046838Y-106235317D02*
X133185910Y-106451441D01*
X133398110Y-106596431D01*
X133650000Y-106647440D01*
X135350000Y-106647440D01*
X135585317Y-106603162D01*
X135801441Y-106464090D01*
X135900633Y-106318917D01*
X135985910Y-106451441D01*
X136198110Y-106596431D01*
X136450000Y-106647440D01*
X136540000Y-106647440D01*
X136540000Y-107200000D01*
X136597852Y-107490839D01*
X136762599Y-107737401D01*
X136991712Y-107966514D01*
X136827000Y-107915000D01*
X136127000Y-107915000D01*
X136127000Y-108973000D01*
X136147000Y-108973000D01*
X136147000Y-109227000D01*
X136127000Y-109227000D01*
X136127000Y-109247000D01*
X135873000Y-109247000D01*
X135873000Y-109227000D01*
X134281639Y-109227000D01*
X134156197Y-109409744D01*
X134156602Y-109436146D01*
X134372276Y-109848118D01*
X134671137Y-110097715D01*
X134425149Y-110262078D01*
X134168274Y-110646520D01*
X134078071Y-111100000D01*
X134168274Y-111553480D01*
X134425149Y-111937922D01*
X134667717Y-112100000D01*
X134425149Y-112262078D01*
X134168274Y-112646520D01*
X134078071Y-113100000D01*
X134168274Y-113553480D01*
X134425149Y-113937922D01*
X134667717Y-114100000D01*
X134425149Y-114262078D01*
X134168274Y-114646520D01*
X134078071Y-115100000D01*
X134168274Y-115553480D01*
X134425149Y-115937922D01*
X134667717Y-116100000D01*
X134425149Y-116262078D01*
X134168274Y-116646520D01*
X134078071Y-117100000D01*
X134168274Y-117553480D01*
X134425149Y-117937922D01*
X134667717Y-118100000D01*
X134425149Y-118262078D01*
X134168274Y-118646520D01*
X134078071Y-119100000D01*
X134168274Y-119553480D01*
X134425149Y-119937922D01*
X134667717Y-120100000D01*
X134425149Y-120262078D01*
X134168274Y-120646520D01*
X134078071Y-121100000D01*
X134168274Y-121553480D01*
X134425149Y-121937922D01*
X134475871Y-121971813D01*
X134298559Y-122085910D01*
X134153569Y-122298110D01*
X134145086Y-122340000D01*
X133114802Y-122340000D01*
X132560000Y-121785198D01*
X132560000Y-108790256D01*
X134156197Y-108790256D01*
X134281639Y-108973000D01*
X135873000Y-108973000D01*
X135873000Y-107915000D01*
X135173000Y-107915000D01*
X134729187Y-108053804D01*
X134372276Y-108351882D01*
X134156602Y-108763854D01*
X134156197Y-108790256D01*
X132560000Y-108790256D01*
X132560000Y-106817334D01*
X132635317Y-106803162D01*
X132851441Y-106664090D01*
X132996431Y-106451890D01*
X133043683Y-106218551D01*
X133046838Y-106235317D01*
X133046838Y-106235317D01*
G37*
X133046838Y-106235317D02*
X133185910Y-106451441D01*
X133398110Y-106596431D01*
X133650000Y-106647440D01*
X135350000Y-106647440D01*
X135585317Y-106603162D01*
X135801441Y-106464090D01*
X135900633Y-106318917D01*
X135985910Y-106451441D01*
X136198110Y-106596431D01*
X136450000Y-106647440D01*
X136540000Y-106647440D01*
X136540000Y-107200000D01*
X136597852Y-107490839D01*
X136762599Y-107737401D01*
X136991712Y-107966514D01*
X136827000Y-107915000D01*
X136127000Y-107915000D01*
X136127000Y-108973000D01*
X136147000Y-108973000D01*
X136147000Y-109227000D01*
X136127000Y-109227000D01*
X136127000Y-109247000D01*
X135873000Y-109247000D01*
X135873000Y-109227000D01*
X134281639Y-109227000D01*
X134156197Y-109409744D01*
X134156602Y-109436146D01*
X134372276Y-109848118D01*
X134671137Y-110097715D01*
X134425149Y-110262078D01*
X134168274Y-110646520D01*
X134078071Y-111100000D01*
X134168274Y-111553480D01*
X134425149Y-111937922D01*
X134667717Y-112100000D01*
X134425149Y-112262078D01*
X134168274Y-112646520D01*
X134078071Y-113100000D01*
X134168274Y-113553480D01*
X134425149Y-113937922D01*
X134667717Y-114100000D01*
X134425149Y-114262078D01*
X134168274Y-114646520D01*
X134078071Y-115100000D01*
X134168274Y-115553480D01*
X134425149Y-115937922D01*
X134667717Y-116100000D01*
X134425149Y-116262078D01*
X134168274Y-116646520D01*
X134078071Y-117100000D01*
X134168274Y-117553480D01*
X134425149Y-117937922D01*
X134667717Y-118100000D01*
X134425149Y-118262078D01*
X134168274Y-118646520D01*
X134078071Y-119100000D01*
X134168274Y-119553480D01*
X134425149Y-119937922D01*
X134667717Y-120100000D01*
X134425149Y-120262078D01*
X134168274Y-120646520D01*
X134078071Y-121100000D01*
X134168274Y-121553480D01*
X134425149Y-121937922D01*
X134475871Y-121971813D01*
X134298559Y-122085910D01*
X134153569Y-122298110D01*
X134145086Y-122340000D01*
X133114802Y-122340000D01*
X132560000Y-121785198D01*
X132560000Y-108790256D01*
X134156197Y-108790256D01*
X134281639Y-108973000D01*
X135873000Y-108973000D01*
X135873000Y-107915000D01*
X135173000Y-107915000D01*
X134729187Y-108053804D01*
X134372276Y-108351882D01*
X134156602Y-108763854D01*
X134156197Y-108790256D01*
X132560000Y-108790256D01*
X132560000Y-106817334D01*
X132635317Y-106803162D01*
X132851441Y-106664090D01*
X132996431Y-106451890D01*
X133043683Y-106218551D01*
X133046838Y-106235317D01*
G36*
X124427000Y-102523000D02*
X124447000Y-102523000D01*
X124447000Y-102777000D01*
X124427000Y-102777000D01*
X124427000Y-103576250D01*
X124585750Y-103735000D01*
X125276310Y-103735000D01*
X125370612Y-103695939D01*
X125396838Y-103835317D01*
X125535910Y-104051441D01*
X125605711Y-104099134D01*
X125548559Y-104135910D01*
X125403569Y-104348110D01*
X125373262Y-104497772D01*
X125150000Y-104452560D01*
X123610781Y-104452560D01*
X123602148Y-104409161D01*
X123602148Y-104409160D01*
X123437401Y-104162599D01*
X123037401Y-103762599D01*
X123035078Y-103761047D01*
X123047440Y-103700000D01*
X123047440Y-103595466D01*
X123090301Y-103638327D01*
X123323690Y-103735000D01*
X124014250Y-103735000D01*
X124173000Y-103576250D01*
X124173000Y-102777000D01*
X124153000Y-102777000D01*
X124153000Y-102523000D01*
X124173000Y-102523000D01*
X124173000Y-102503000D01*
X124427000Y-102503000D01*
X124427000Y-102523000D01*
X124427000Y-102523000D01*
G37*
X124427000Y-102523000D02*
X124447000Y-102523000D01*
X124447000Y-102777000D01*
X124427000Y-102777000D01*
X124427000Y-103576250D01*
X124585750Y-103735000D01*
X125276310Y-103735000D01*
X125370612Y-103695939D01*
X125396838Y-103835317D01*
X125535910Y-104051441D01*
X125605711Y-104099134D01*
X125548559Y-104135910D01*
X125403569Y-104348110D01*
X125373262Y-104497772D01*
X125150000Y-104452560D01*
X123610781Y-104452560D01*
X123602148Y-104409161D01*
X123602148Y-104409160D01*
X123437401Y-104162599D01*
X123037401Y-103762599D01*
X123035078Y-103761047D01*
X123047440Y-103700000D01*
X123047440Y-103595466D01*
X123090301Y-103638327D01*
X123323690Y-103735000D01*
X124014250Y-103735000D01*
X124173000Y-103576250D01*
X124173000Y-102777000D01*
X124153000Y-102777000D01*
X124153000Y-102523000D01*
X124173000Y-102523000D01*
X124173000Y-102503000D01*
X124427000Y-102503000D01*
X124427000Y-102523000D01*
M02*
