G04 #@! TF.FileFunction,Copper,L2,Bot,Signal*
%FSLAX46Y46*%
G04 Gerber Fmt 4.6, Leading zero omitted, Abs format (unit mm)*
G04 Created by KiCad (PCBNEW 4.0.7-e2-6376~61~ubuntu18.04.1) date Sat Jun  9 20:52:15 2018*
%MOMM*%
%LPD*%
G01*
G04 APERTURE LIST*
%ADD10C,0.100000*%
%ADD11R,1.700000X1.700000*%
%ADD12O,1.700000X1.700000*%
%ADD13R,1.850000X1.850000*%
%ADD14C,1.850000*%
%ADD15R,1.998980X1.998980*%
%ADD16R,1.727200X2.032000*%
%ADD17O,1.727200X2.032000*%
%ADD18R,2.500000X1.100000*%
%ADD19O,2.500000X1.100000*%
%ADD20C,0.250000*%
%ADD21C,0.254000*%
G04 APERTURE END LIST*
D10*
D11*
X122100000Y-98700000D03*
D12*
X124640000Y-98700000D03*
X127180000Y-98700000D03*
X129720000Y-98700000D03*
X132260000Y-98700000D03*
X134800000Y-98700000D03*
D13*
X112900000Y-97100000D03*
D14*
X115400000Y-97100000D03*
D15*
X141098740Y-130100000D03*
X151101260Y-130100000D03*
D16*
X142590000Y-123600000D03*
D17*
X145130000Y-123600000D03*
X147670000Y-123600000D03*
X150210000Y-123600000D03*
D18*
X136000000Y-123100000D03*
D19*
X136000000Y-121100000D03*
X136000000Y-119100000D03*
X136000000Y-117100000D03*
X136000000Y-115100000D03*
X136000000Y-113100000D03*
X136000000Y-111100000D03*
X136000000Y-109100000D03*
X120600000Y-109100000D03*
X120700000Y-111100000D03*
X120600000Y-113100000D03*
X120600000Y-115100000D03*
X120600000Y-117100000D03*
X120600000Y-119100000D03*
X120600000Y-121100000D03*
X120600000Y-123100000D03*
D20*
X129720000Y-98700000D02*
X129720000Y-97620000D01*
X129720000Y-97620000D02*
X128800000Y-96700000D01*
X113200000Y-95800000D02*
X113300000Y-95800000D01*
X118100000Y-96700000D02*
X128800000Y-96700000D01*
X117200000Y-95800000D02*
X118100000Y-96700000D01*
X114200000Y-95800000D02*
X117200000Y-95800000D01*
X113300000Y-95800000D02*
X114200000Y-95800000D01*
X112900000Y-97100000D02*
X112900000Y-96100000D01*
X112900000Y-96100000D02*
X113200000Y-95800000D01*
X112900000Y-97100000D02*
X112900000Y-96200000D01*
X121300000Y-117100000D02*
X119600000Y-117100000D01*
X119600000Y-117100000D02*
X118500000Y-118200000D01*
X144700000Y-125000000D02*
X145130000Y-124570000D01*
X119600000Y-125000000D02*
X144700000Y-125000000D01*
X118500000Y-123900000D02*
X119600000Y-125000000D01*
X118500000Y-118200000D02*
X118500000Y-123900000D01*
X145130000Y-124570000D02*
X145130000Y-123600000D01*
D21*
G36*
X157388338Y-88621046D02*
X157802333Y-88897669D01*
X158078953Y-89311660D01*
X158190000Y-89869931D01*
X158190000Y-129930069D01*
X158078953Y-130488340D01*
X157802333Y-130902331D01*
X157388338Y-131178954D01*
X156830069Y-131290000D01*
X152709611Y-131290000D01*
X152748190Y-131099490D01*
X152748190Y-129743599D01*
X154564699Y-129743599D01*
X154828281Y-130381515D01*
X155315918Y-130870004D01*
X155953373Y-131134699D01*
X156643599Y-131135301D01*
X157281515Y-130871719D01*
X157770004Y-130384082D01*
X158034699Y-129746627D01*
X158035301Y-129056401D01*
X157771719Y-128418485D01*
X157284082Y-127929996D01*
X156646627Y-127665301D01*
X155956401Y-127664699D01*
X155318485Y-127928281D01*
X154829996Y-128415918D01*
X154565301Y-129053373D01*
X154564699Y-129743599D01*
X152748190Y-129743599D01*
X152748190Y-129100510D01*
X152703912Y-128865193D01*
X152564840Y-128649069D01*
X152352640Y-128504079D01*
X152100750Y-128453070D01*
X150101770Y-128453070D01*
X149866453Y-128497348D01*
X149650329Y-128636420D01*
X149505339Y-128848620D01*
X149454330Y-129100510D01*
X149454330Y-131099490D01*
X149490177Y-131290000D01*
X142707091Y-131290000D01*
X142745670Y-131099490D01*
X142745670Y-129100510D01*
X142701392Y-128865193D01*
X142562320Y-128649069D01*
X142350120Y-128504079D01*
X142098230Y-128453070D01*
X140099250Y-128453070D01*
X139863933Y-128497348D01*
X139647809Y-128636420D01*
X139502819Y-128848620D01*
X139451810Y-129100510D01*
X139451810Y-131099490D01*
X139487657Y-131290000D01*
X136627000Y-131290000D01*
X136627000Y-125760000D01*
X144700000Y-125760000D01*
X144990839Y-125702148D01*
X145237401Y-125537401D01*
X145581208Y-125193594D01*
X145703489Y-125169271D01*
X146189670Y-124844415D01*
X146400000Y-124529634D01*
X146610330Y-124844415D01*
X147096511Y-125169271D01*
X147670000Y-125283345D01*
X148243489Y-125169271D01*
X148729670Y-124844415D01*
X148936461Y-124534931D01*
X149307964Y-124950732D01*
X149835209Y-125204709D01*
X149850974Y-125207358D01*
X150083000Y-125086217D01*
X150083000Y-123727000D01*
X150337000Y-123727000D01*
X150337000Y-125086217D01*
X150569026Y-125207358D01*
X150584791Y-125204709D01*
X151112036Y-124950732D01*
X151501954Y-124514320D01*
X151695184Y-123961913D01*
X151550924Y-123727000D01*
X150337000Y-123727000D01*
X150083000Y-123727000D01*
X150063000Y-123727000D01*
X150063000Y-123473000D01*
X150083000Y-123473000D01*
X150083000Y-122113783D01*
X150337000Y-122113783D01*
X150337000Y-123473000D01*
X151550924Y-123473000D01*
X151695184Y-123238087D01*
X151501954Y-122685680D01*
X151112036Y-122249268D01*
X150584791Y-121995291D01*
X150569026Y-121992642D01*
X150337000Y-122113783D01*
X150083000Y-122113783D01*
X149850974Y-121992642D01*
X149835209Y-121995291D01*
X149307964Y-122249268D01*
X148936461Y-122665069D01*
X148729670Y-122355585D01*
X148243489Y-122030729D01*
X147670000Y-121916655D01*
X147096511Y-122030729D01*
X146610330Y-122355585D01*
X146400000Y-122670366D01*
X146189670Y-122355585D01*
X145703489Y-122030729D01*
X145130000Y-121916655D01*
X144556511Y-122030729D01*
X144070330Y-122355585D01*
X144060757Y-122369913D01*
X144056762Y-122348683D01*
X143917690Y-122132559D01*
X143705490Y-121987569D01*
X143453600Y-121936560D01*
X141726400Y-121936560D01*
X141491083Y-121980838D01*
X141274959Y-122119910D01*
X141129969Y-122332110D01*
X141078960Y-122584000D01*
X141078960Y-124240000D01*
X137505771Y-124240000D01*
X137701441Y-124114090D01*
X137846431Y-123901890D01*
X137897440Y-123650000D01*
X137897440Y-122550000D01*
X137853162Y-122314683D01*
X137714090Y-122098559D01*
X137526385Y-121970306D01*
X137574851Y-121937922D01*
X137831726Y-121553480D01*
X137921929Y-121100000D01*
X137831726Y-120646520D01*
X137574851Y-120262078D01*
X137332283Y-120100000D01*
X137574851Y-119937922D01*
X137831726Y-119553480D01*
X137921929Y-119100000D01*
X137831726Y-118646520D01*
X137574851Y-118262078D01*
X137332283Y-118100000D01*
X137574851Y-117937922D01*
X137831726Y-117553480D01*
X137921929Y-117100000D01*
X137831726Y-116646520D01*
X137574851Y-116262078D01*
X137332283Y-116100000D01*
X137574851Y-115937922D01*
X137831726Y-115553480D01*
X137921929Y-115100000D01*
X137831726Y-114646520D01*
X137574851Y-114262078D01*
X137332283Y-114100000D01*
X137574851Y-113937922D01*
X137831726Y-113553480D01*
X137921929Y-113100000D01*
X137831726Y-112646520D01*
X137574851Y-112262078D01*
X137332283Y-112100000D01*
X137574851Y-111937922D01*
X137831726Y-111553480D01*
X137921929Y-111100000D01*
X137831726Y-110646520D01*
X137574851Y-110262078D01*
X137332283Y-110100000D01*
X137574851Y-109937922D01*
X137831726Y-109553480D01*
X137921929Y-109100000D01*
X137831726Y-108646520D01*
X137574851Y-108262078D01*
X137190409Y-108005203D01*
X136736929Y-107915000D01*
X135263071Y-107915000D01*
X134809591Y-108005203D01*
X134425149Y-108262078D01*
X134168274Y-108646520D01*
X134078071Y-109100000D01*
X134168274Y-109553480D01*
X134425149Y-109937922D01*
X134667717Y-110100000D01*
X134425149Y-110262078D01*
X134168274Y-110646520D01*
X134078071Y-111100000D01*
X134168274Y-111553480D01*
X134425149Y-111937922D01*
X134667717Y-112100000D01*
X134425149Y-112262078D01*
X134168274Y-112646520D01*
X134078071Y-113100000D01*
X134168274Y-113553480D01*
X134425149Y-113937922D01*
X134667717Y-114100000D01*
X134425149Y-114262078D01*
X134168274Y-114646520D01*
X134078071Y-115100000D01*
X134168274Y-115553480D01*
X134425149Y-115937922D01*
X134667717Y-116100000D01*
X134425149Y-116262078D01*
X134168274Y-116646520D01*
X134078071Y-117100000D01*
X134168274Y-117553480D01*
X134425149Y-117937922D01*
X134667717Y-118100000D01*
X134425149Y-118262078D01*
X134168274Y-118646520D01*
X134078071Y-119100000D01*
X134168274Y-119553480D01*
X134425149Y-119937922D01*
X134667717Y-120100000D01*
X134425149Y-120262078D01*
X134168274Y-120646520D01*
X134078071Y-121100000D01*
X134168274Y-121553480D01*
X134425149Y-121937922D01*
X134475871Y-121971813D01*
X134298559Y-122085910D01*
X134153569Y-122298110D01*
X134102560Y-122550000D01*
X134102560Y-123650000D01*
X134146838Y-123885317D01*
X134285910Y-124101441D01*
X134488698Y-124240000D01*
X121563159Y-124240000D01*
X121790409Y-124194797D01*
X122174851Y-123937922D01*
X122431726Y-123553480D01*
X122521929Y-123100000D01*
X122431726Y-122646520D01*
X122174851Y-122262078D01*
X121932283Y-122100000D01*
X122174851Y-121937922D01*
X122431726Y-121553480D01*
X122521929Y-121100000D01*
X122431726Y-120646520D01*
X122174851Y-120262078D01*
X121932283Y-120100000D01*
X122174851Y-119937922D01*
X122431726Y-119553480D01*
X122521929Y-119100000D01*
X122431726Y-118646520D01*
X122174851Y-118262078D01*
X121932283Y-118100000D01*
X122174851Y-117937922D01*
X122431726Y-117553480D01*
X122521929Y-117100000D01*
X122431726Y-116646520D01*
X122174851Y-116262078D01*
X121932283Y-116100000D01*
X122174851Y-115937922D01*
X122431726Y-115553480D01*
X122521929Y-115100000D01*
X122431726Y-114646520D01*
X122174851Y-114262078D01*
X121932283Y-114100000D01*
X122174851Y-113937922D01*
X122431726Y-113553480D01*
X122521929Y-113100000D01*
X122431726Y-112646520D01*
X122174851Y-112262078D01*
X121982283Y-112133409D01*
X122274851Y-111937922D01*
X122531726Y-111553480D01*
X122621929Y-111100000D01*
X122531726Y-110646520D01*
X122274851Y-110262078D01*
X121973309Y-110060595D01*
X122227724Y-109848118D01*
X122443398Y-109436146D01*
X122443803Y-109409744D01*
X122318361Y-109227000D01*
X120727000Y-109227000D01*
X120727000Y-109247000D01*
X120473000Y-109247000D01*
X120473000Y-109227000D01*
X118881639Y-109227000D01*
X118756197Y-109409744D01*
X118756602Y-109436146D01*
X118972276Y-109848118D01*
X119315583Y-110134835D01*
X119125149Y-110262078D01*
X118868274Y-110646520D01*
X118778071Y-111100000D01*
X118868274Y-111553480D01*
X119125149Y-111937922D01*
X119317717Y-112066591D01*
X119025149Y-112262078D01*
X118768274Y-112646520D01*
X118678071Y-113100000D01*
X118768274Y-113553480D01*
X119025149Y-113937922D01*
X119267717Y-114100000D01*
X119025149Y-114262078D01*
X118768274Y-114646520D01*
X118678071Y-115100000D01*
X118768274Y-115553480D01*
X119025149Y-115937922D01*
X119267717Y-116100000D01*
X119025149Y-116262078D01*
X118768274Y-116646520D01*
X118716030Y-116909168D01*
X117962599Y-117662599D01*
X117797852Y-117909161D01*
X117740000Y-118200000D01*
X117740000Y-123900000D01*
X117797852Y-124190839D01*
X117962599Y-124437401D01*
X119062599Y-125537401D01*
X119309161Y-125702148D01*
X119600000Y-125760000D01*
X119973000Y-125760000D01*
X119973000Y-131290000D01*
X107269931Y-131290000D01*
X106711660Y-131178953D01*
X106297669Y-130902333D01*
X106021046Y-130488338D01*
X105910000Y-129930069D01*
X105910000Y-129743599D01*
X106064699Y-129743599D01*
X106328281Y-130381515D01*
X106815918Y-130870004D01*
X107453373Y-131134699D01*
X108143599Y-131135301D01*
X108781515Y-130871719D01*
X109270004Y-130384082D01*
X109534699Y-129746627D01*
X109535301Y-129056401D01*
X109271719Y-128418485D01*
X108784082Y-127929996D01*
X108146627Y-127665301D01*
X107456401Y-127664699D01*
X106818485Y-127928281D01*
X106329996Y-128415918D01*
X106065301Y-129053373D01*
X106064699Y-129743599D01*
X105910000Y-129743599D01*
X105910000Y-108790256D01*
X118756197Y-108790256D01*
X118881639Y-108973000D01*
X120473000Y-108973000D01*
X120473000Y-107915000D01*
X120727000Y-107915000D01*
X120727000Y-108973000D01*
X122318361Y-108973000D01*
X122443803Y-108790256D01*
X122443398Y-108763854D01*
X122227724Y-108351882D01*
X121870813Y-108053804D01*
X121427000Y-107915000D01*
X120727000Y-107915000D01*
X120473000Y-107915000D01*
X119773000Y-107915000D01*
X119329187Y-108053804D01*
X118972276Y-108351882D01*
X118756602Y-108763854D01*
X118756197Y-108790256D01*
X105910000Y-108790256D01*
X105910000Y-96175000D01*
X111327560Y-96175000D01*
X111327560Y-98025000D01*
X111371838Y-98260317D01*
X111510910Y-98476441D01*
X111723110Y-98621431D01*
X111975000Y-98672440D01*
X113825000Y-98672440D01*
X114060317Y-98628162D01*
X114276441Y-98489090D01*
X114421431Y-98276890D01*
X114426183Y-98253425D01*
X114481350Y-98198258D01*
X114570821Y-98457332D01*
X115153368Y-98671325D01*
X115773461Y-98646097D01*
X116229179Y-98457332D01*
X116318651Y-98198256D01*
X115400000Y-97279605D01*
X115385858Y-97293748D01*
X115206253Y-97114143D01*
X115220395Y-97100000D01*
X115206253Y-97085858D01*
X115385858Y-96906253D01*
X115400000Y-96920395D01*
X115414143Y-96906253D01*
X115593748Y-97085858D01*
X115579605Y-97100000D01*
X116498256Y-98018651D01*
X116757332Y-97929179D01*
X116971325Y-97346632D01*
X116946097Y-96726539D01*
X116877114Y-96560000D01*
X116885198Y-96560000D01*
X117562599Y-97237401D01*
X117809160Y-97402148D01*
X118100000Y-97460000D01*
X120747935Y-97460000D01*
X120653569Y-97598110D01*
X120602560Y-97850000D01*
X120602560Y-99550000D01*
X120646838Y-99785317D01*
X120785910Y-100001441D01*
X120998110Y-100146431D01*
X121250000Y-100197440D01*
X122950000Y-100197440D01*
X123185317Y-100153162D01*
X123401441Y-100014090D01*
X123546431Y-99801890D01*
X123560086Y-99734459D01*
X123589946Y-99779147D01*
X124071715Y-100101054D01*
X124640000Y-100214093D01*
X125208285Y-100101054D01*
X125690054Y-99779147D01*
X125910000Y-99449974D01*
X126129946Y-99779147D01*
X126611715Y-100101054D01*
X127180000Y-100214093D01*
X127748285Y-100101054D01*
X128230054Y-99779147D01*
X128450000Y-99449974D01*
X128669946Y-99779147D01*
X129151715Y-100101054D01*
X129720000Y-100214093D01*
X130288285Y-100101054D01*
X130770054Y-99779147D01*
X130990000Y-99449974D01*
X131209946Y-99779147D01*
X131691715Y-100101054D01*
X132260000Y-100214093D01*
X132828285Y-100101054D01*
X133310054Y-99779147D01*
X133537702Y-99438447D01*
X133604817Y-99581358D01*
X134033076Y-99971645D01*
X134443110Y-100141476D01*
X134673000Y-100020155D01*
X134673000Y-98827000D01*
X134927000Y-98827000D01*
X134927000Y-100020155D01*
X135156890Y-100141476D01*
X135566924Y-99971645D01*
X135995183Y-99581358D01*
X136241486Y-99056892D01*
X136120819Y-98827000D01*
X134927000Y-98827000D01*
X134673000Y-98827000D01*
X134653000Y-98827000D01*
X134653000Y-98573000D01*
X134673000Y-98573000D01*
X134673000Y-97379845D01*
X134927000Y-97379845D01*
X134927000Y-98573000D01*
X136120819Y-98573000D01*
X136241486Y-98343108D01*
X135995183Y-97818642D01*
X135566924Y-97428355D01*
X135156890Y-97258524D01*
X134927000Y-97379845D01*
X134673000Y-97379845D01*
X134443110Y-97258524D01*
X134033076Y-97428355D01*
X133604817Y-97818642D01*
X133537702Y-97961553D01*
X133310054Y-97620853D01*
X132828285Y-97298946D01*
X132260000Y-97185907D01*
X131691715Y-97298946D01*
X131209946Y-97620853D01*
X130990000Y-97950026D01*
X130770054Y-97620853D01*
X130435735Y-97397469D01*
X130422148Y-97329161D01*
X130422148Y-97329160D01*
X130257401Y-97082599D01*
X129618401Y-96443599D01*
X144664699Y-96443599D01*
X144928281Y-97081515D01*
X145415918Y-97570004D01*
X146053373Y-97834699D01*
X146743599Y-97835301D01*
X147381515Y-97571719D01*
X147870004Y-97084082D01*
X148134699Y-96446627D01*
X148135301Y-95756401D01*
X147871719Y-95118485D01*
X147384082Y-94629996D01*
X146746627Y-94365301D01*
X146056401Y-94364699D01*
X145418485Y-94628281D01*
X144929996Y-95115918D01*
X144665301Y-95753373D01*
X144664699Y-96443599D01*
X129618401Y-96443599D01*
X129337401Y-96162599D01*
X129090839Y-95997852D01*
X128800000Y-95940000D01*
X118414802Y-95940000D01*
X117737401Y-95262599D01*
X117490839Y-95097852D01*
X117200000Y-95040000D01*
X113200000Y-95040000D01*
X112909161Y-95097852D01*
X112662599Y-95262599D01*
X112397638Y-95527560D01*
X111975000Y-95527560D01*
X111739683Y-95571838D01*
X111523559Y-95710910D01*
X111378569Y-95923110D01*
X111327560Y-96175000D01*
X105910000Y-96175000D01*
X105910000Y-90743599D01*
X106064699Y-90743599D01*
X106328281Y-91381515D01*
X106815918Y-91870004D01*
X107453373Y-92134699D01*
X108143599Y-92135301D01*
X108781515Y-91871719D01*
X109270004Y-91384082D01*
X109534699Y-90746627D01*
X109534701Y-90743599D01*
X154564699Y-90743599D01*
X154828281Y-91381515D01*
X155315918Y-91870004D01*
X155953373Y-92134699D01*
X156643599Y-92135301D01*
X157281515Y-91871719D01*
X157770004Y-91384082D01*
X158034699Y-90746627D01*
X158035301Y-90056401D01*
X157771719Y-89418485D01*
X157284082Y-88929996D01*
X156646627Y-88665301D01*
X155956401Y-88664699D01*
X155318485Y-88928281D01*
X154829996Y-89415918D01*
X154565301Y-90053373D01*
X154564699Y-90743599D01*
X109534701Y-90743599D01*
X109535301Y-90056401D01*
X109271719Y-89418485D01*
X108784082Y-88929996D01*
X108146627Y-88665301D01*
X107456401Y-88664699D01*
X106818485Y-88928281D01*
X106329996Y-89415918D01*
X106065301Y-90053373D01*
X106064699Y-90743599D01*
X105910000Y-90743599D01*
X105910000Y-89869931D01*
X106021046Y-89311662D01*
X106297669Y-88897667D01*
X106711660Y-88621047D01*
X107269931Y-88510000D01*
X156830069Y-88510000D01*
X157388338Y-88621046D01*
X157388338Y-88621046D01*
G37*
X157388338Y-88621046D02*
X157802333Y-88897669D01*
X158078953Y-89311660D01*
X158190000Y-89869931D01*
X158190000Y-129930069D01*
X158078953Y-130488340D01*
X157802333Y-130902331D01*
X157388338Y-131178954D01*
X156830069Y-131290000D01*
X152709611Y-131290000D01*
X152748190Y-131099490D01*
X152748190Y-129743599D01*
X154564699Y-129743599D01*
X154828281Y-130381515D01*
X155315918Y-130870004D01*
X155953373Y-131134699D01*
X156643599Y-131135301D01*
X157281515Y-130871719D01*
X157770004Y-130384082D01*
X158034699Y-129746627D01*
X158035301Y-129056401D01*
X157771719Y-128418485D01*
X157284082Y-127929996D01*
X156646627Y-127665301D01*
X155956401Y-127664699D01*
X155318485Y-127928281D01*
X154829996Y-128415918D01*
X154565301Y-129053373D01*
X154564699Y-129743599D01*
X152748190Y-129743599D01*
X152748190Y-129100510D01*
X152703912Y-128865193D01*
X152564840Y-128649069D01*
X152352640Y-128504079D01*
X152100750Y-128453070D01*
X150101770Y-128453070D01*
X149866453Y-128497348D01*
X149650329Y-128636420D01*
X149505339Y-128848620D01*
X149454330Y-129100510D01*
X149454330Y-131099490D01*
X149490177Y-131290000D01*
X142707091Y-131290000D01*
X142745670Y-131099490D01*
X142745670Y-129100510D01*
X142701392Y-128865193D01*
X142562320Y-128649069D01*
X142350120Y-128504079D01*
X142098230Y-128453070D01*
X140099250Y-128453070D01*
X139863933Y-128497348D01*
X139647809Y-128636420D01*
X139502819Y-128848620D01*
X139451810Y-129100510D01*
X139451810Y-131099490D01*
X139487657Y-131290000D01*
X136627000Y-131290000D01*
X136627000Y-125760000D01*
X144700000Y-125760000D01*
X144990839Y-125702148D01*
X145237401Y-125537401D01*
X145581208Y-125193594D01*
X145703489Y-125169271D01*
X146189670Y-124844415D01*
X146400000Y-124529634D01*
X146610330Y-124844415D01*
X147096511Y-125169271D01*
X147670000Y-125283345D01*
X148243489Y-125169271D01*
X148729670Y-124844415D01*
X148936461Y-124534931D01*
X149307964Y-124950732D01*
X149835209Y-125204709D01*
X149850974Y-125207358D01*
X150083000Y-125086217D01*
X150083000Y-123727000D01*
X150337000Y-123727000D01*
X150337000Y-125086217D01*
X150569026Y-125207358D01*
X150584791Y-125204709D01*
X151112036Y-124950732D01*
X151501954Y-124514320D01*
X151695184Y-123961913D01*
X151550924Y-123727000D01*
X150337000Y-123727000D01*
X150083000Y-123727000D01*
X150063000Y-123727000D01*
X150063000Y-123473000D01*
X150083000Y-123473000D01*
X150083000Y-122113783D01*
X150337000Y-122113783D01*
X150337000Y-123473000D01*
X151550924Y-123473000D01*
X151695184Y-123238087D01*
X151501954Y-122685680D01*
X151112036Y-122249268D01*
X150584791Y-121995291D01*
X150569026Y-121992642D01*
X150337000Y-122113783D01*
X150083000Y-122113783D01*
X149850974Y-121992642D01*
X149835209Y-121995291D01*
X149307964Y-122249268D01*
X148936461Y-122665069D01*
X148729670Y-122355585D01*
X148243489Y-122030729D01*
X147670000Y-121916655D01*
X147096511Y-122030729D01*
X146610330Y-122355585D01*
X146400000Y-122670366D01*
X146189670Y-122355585D01*
X145703489Y-122030729D01*
X145130000Y-121916655D01*
X144556511Y-122030729D01*
X144070330Y-122355585D01*
X144060757Y-122369913D01*
X144056762Y-122348683D01*
X143917690Y-122132559D01*
X143705490Y-121987569D01*
X143453600Y-121936560D01*
X141726400Y-121936560D01*
X141491083Y-121980838D01*
X141274959Y-122119910D01*
X141129969Y-122332110D01*
X141078960Y-122584000D01*
X141078960Y-124240000D01*
X137505771Y-124240000D01*
X137701441Y-124114090D01*
X137846431Y-123901890D01*
X137897440Y-123650000D01*
X137897440Y-122550000D01*
X137853162Y-122314683D01*
X137714090Y-122098559D01*
X137526385Y-121970306D01*
X137574851Y-121937922D01*
X137831726Y-121553480D01*
X137921929Y-121100000D01*
X137831726Y-120646520D01*
X137574851Y-120262078D01*
X137332283Y-120100000D01*
X137574851Y-119937922D01*
X137831726Y-119553480D01*
X137921929Y-119100000D01*
X137831726Y-118646520D01*
X137574851Y-118262078D01*
X137332283Y-118100000D01*
X137574851Y-117937922D01*
X137831726Y-117553480D01*
X137921929Y-117100000D01*
X137831726Y-116646520D01*
X137574851Y-116262078D01*
X137332283Y-116100000D01*
X137574851Y-115937922D01*
X137831726Y-115553480D01*
X137921929Y-115100000D01*
X137831726Y-114646520D01*
X137574851Y-114262078D01*
X137332283Y-114100000D01*
X137574851Y-113937922D01*
X137831726Y-113553480D01*
X137921929Y-113100000D01*
X137831726Y-112646520D01*
X137574851Y-112262078D01*
X137332283Y-112100000D01*
X137574851Y-111937922D01*
X137831726Y-111553480D01*
X137921929Y-111100000D01*
X137831726Y-110646520D01*
X137574851Y-110262078D01*
X137332283Y-110100000D01*
X137574851Y-109937922D01*
X137831726Y-109553480D01*
X137921929Y-109100000D01*
X137831726Y-108646520D01*
X137574851Y-108262078D01*
X137190409Y-108005203D01*
X136736929Y-107915000D01*
X135263071Y-107915000D01*
X134809591Y-108005203D01*
X134425149Y-108262078D01*
X134168274Y-108646520D01*
X134078071Y-109100000D01*
X134168274Y-109553480D01*
X134425149Y-109937922D01*
X134667717Y-110100000D01*
X134425149Y-110262078D01*
X134168274Y-110646520D01*
X134078071Y-111100000D01*
X134168274Y-111553480D01*
X134425149Y-111937922D01*
X134667717Y-112100000D01*
X134425149Y-112262078D01*
X134168274Y-112646520D01*
X134078071Y-113100000D01*
X134168274Y-113553480D01*
X134425149Y-113937922D01*
X134667717Y-114100000D01*
X134425149Y-114262078D01*
X134168274Y-114646520D01*
X134078071Y-115100000D01*
X134168274Y-115553480D01*
X134425149Y-115937922D01*
X134667717Y-116100000D01*
X134425149Y-116262078D01*
X134168274Y-116646520D01*
X134078071Y-117100000D01*
X134168274Y-117553480D01*
X134425149Y-117937922D01*
X134667717Y-118100000D01*
X134425149Y-118262078D01*
X134168274Y-118646520D01*
X134078071Y-119100000D01*
X134168274Y-119553480D01*
X134425149Y-119937922D01*
X134667717Y-120100000D01*
X134425149Y-120262078D01*
X134168274Y-120646520D01*
X134078071Y-121100000D01*
X134168274Y-121553480D01*
X134425149Y-121937922D01*
X134475871Y-121971813D01*
X134298559Y-122085910D01*
X134153569Y-122298110D01*
X134102560Y-122550000D01*
X134102560Y-123650000D01*
X134146838Y-123885317D01*
X134285910Y-124101441D01*
X134488698Y-124240000D01*
X121563159Y-124240000D01*
X121790409Y-124194797D01*
X122174851Y-123937922D01*
X122431726Y-123553480D01*
X122521929Y-123100000D01*
X122431726Y-122646520D01*
X122174851Y-122262078D01*
X121932283Y-122100000D01*
X122174851Y-121937922D01*
X122431726Y-121553480D01*
X122521929Y-121100000D01*
X122431726Y-120646520D01*
X122174851Y-120262078D01*
X121932283Y-120100000D01*
X122174851Y-119937922D01*
X122431726Y-119553480D01*
X122521929Y-119100000D01*
X122431726Y-118646520D01*
X122174851Y-118262078D01*
X121932283Y-118100000D01*
X122174851Y-117937922D01*
X122431726Y-117553480D01*
X122521929Y-117100000D01*
X122431726Y-116646520D01*
X122174851Y-116262078D01*
X121932283Y-116100000D01*
X122174851Y-115937922D01*
X122431726Y-115553480D01*
X122521929Y-115100000D01*
X122431726Y-114646520D01*
X122174851Y-114262078D01*
X121932283Y-114100000D01*
X122174851Y-113937922D01*
X122431726Y-113553480D01*
X122521929Y-113100000D01*
X122431726Y-112646520D01*
X122174851Y-112262078D01*
X121982283Y-112133409D01*
X122274851Y-111937922D01*
X122531726Y-111553480D01*
X122621929Y-111100000D01*
X122531726Y-110646520D01*
X122274851Y-110262078D01*
X121973309Y-110060595D01*
X122227724Y-109848118D01*
X122443398Y-109436146D01*
X122443803Y-109409744D01*
X122318361Y-109227000D01*
X120727000Y-109227000D01*
X120727000Y-109247000D01*
X120473000Y-109247000D01*
X120473000Y-109227000D01*
X118881639Y-109227000D01*
X118756197Y-109409744D01*
X118756602Y-109436146D01*
X118972276Y-109848118D01*
X119315583Y-110134835D01*
X119125149Y-110262078D01*
X118868274Y-110646520D01*
X118778071Y-111100000D01*
X118868274Y-111553480D01*
X119125149Y-111937922D01*
X119317717Y-112066591D01*
X119025149Y-112262078D01*
X118768274Y-112646520D01*
X118678071Y-113100000D01*
X118768274Y-113553480D01*
X119025149Y-113937922D01*
X119267717Y-114100000D01*
X119025149Y-114262078D01*
X118768274Y-114646520D01*
X118678071Y-115100000D01*
X118768274Y-115553480D01*
X119025149Y-115937922D01*
X119267717Y-116100000D01*
X119025149Y-116262078D01*
X118768274Y-116646520D01*
X118716030Y-116909168D01*
X117962599Y-117662599D01*
X117797852Y-117909161D01*
X117740000Y-118200000D01*
X117740000Y-123900000D01*
X117797852Y-124190839D01*
X117962599Y-124437401D01*
X119062599Y-125537401D01*
X119309161Y-125702148D01*
X119600000Y-125760000D01*
X119973000Y-125760000D01*
X119973000Y-131290000D01*
X107269931Y-131290000D01*
X106711660Y-131178953D01*
X106297669Y-130902333D01*
X106021046Y-130488338D01*
X105910000Y-129930069D01*
X105910000Y-129743599D01*
X106064699Y-129743599D01*
X106328281Y-130381515D01*
X106815918Y-130870004D01*
X107453373Y-131134699D01*
X108143599Y-131135301D01*
X108781515Y-130871719D01*
X109270004Y-130384082D01*
X109534699Y-129746627D01*
X109535301Y-129056401D01*
X109271719Y-128418485D01*
X108784082Y-127929996D01*
X108146627Y-127665301D01*
X107456401Y-127664699D01*
X106818485Y-127928281D01*
X106329996Y-128415918D01*
X106065301Y-129053373D01*
X106064699Y-129743599D01*
X105910000Y-129743599D01*
X105910000Y-108790256D01*
X118756197Y-108790256D01*
X118881639Y-108973000D01*
X120473000Y-108973000D01*
X120473000Y-107915000D01*
X120727000Y-107915000D01*
X120727000Y-108973000D01*
X122318361Y-108973000D01*
X122443803Y-108790256D01*
X122443398Y-108763854D01*
X122227724Y-108351882D01*
X121870813Y-108053804D01*
X121427000Y-107915000D01*
X120727000Y-107915000D01*
X120473000Y-107915000D01*
X119773000Y-107915000D01*
X119329187Y-108053804D01*
X118972276Y-108351882D01*
X118756602Y-108763854D01*
X118756197Y-108790256D01*
X105910000Y-108790256D01*
X105910000Y-96175000D01*
X111327560Y-96175000D01*
X111327560Y-98025000D01*
X111371838Y-98260317D01*
X111510910Y-98476441D01*
X111723110Y-98621431D01*
X111975000Y-98672440D01*
X113825000Y-98672440D01*
X114060317Y-98628162D01*
X114276441Y-98489090D01*
X114421431Y-98276890D01*
X114426183Y-98253425D01*
X114481350Y-98198258D01*
X114570821Y-98457332D01*
X115153368Y-98671325D01*
X115773461Y-98646097D01*
X116229179Y-98457332D01*
X116318651Y-98198256D01*
X115400000Y-97279605D01*
X115385858Y-97293748D01*
X115206253Y-97114143D01*
X115220395Y-97100000D01*
X115206253Y-97085858D01*
X115385858Y-96906253D01*
X115400000Y-96920395D01*
X115414143Y-96906253D01*
X115593748Y-97085858D01*
X115579605Y-97100000D01*
X116498256Y-98018651D01*
X116757332Y-97929179D01*
X116971325Y-97346632D01*
X116946097Y-96726539D01*
X116877114Y-96560000D01*
X116885198Y-96560000D01*
X117562599Y-97237401D01*
X117809160Y-97402148D01*
X118100000Y-97460000D01*
X120747935Y-97460000D01*
X120653569Y-97598110D01*
X120602560Y-97850000D01*
X120602560Y-99550000D01*
X120646838Y-99785317D01*
X120785910Y-100001441D01*
X120998110Y-100146431D01*
X121250000Y-100197440D01*
X122950000Y-100197440D01*
X123185317Y-100153162D01*
X123401441Y-100014090D01*
X123546431Y-99801890D01*
X123560086Y-99734459D01*
X123589946Y-99779147D01*
X124071715Y-100101054D01*
X124640000Y-100214093D01*
X125208285Y-100101054D01*
X125690054Y-99779147D01*
X125910000Y-99449974D01*
X126129946Y-99779147D01*
X126611715Y-100101054D01*
X127180000Y-100214093D01*
X127748285Y-100101054D01*
X128230054Y-99779147D01*
X128450000Y-99449974D01*
X128669946Y-99779147D01*
X129151715Y-100101054D01*
X129720000Y-100214093D01*
X130288285Y-100101054D01*
X130770054Y-99779147D01*
X130990000Y-99449974D01*
X131209946Y-99779147D01*
X131691715Y-100101054D01*
X132260000Y-100214093D01*
X132828285Y-100101054D01*
X133310054Y-99779147D01*
X133537702Y-99438447D01*
X133604817Y-99581358D01*
X134033076Y-99971645D01*
X134443110Y-100141476D01*
X134673000Y-100020155D01*
X134673000Y-98827000D01*
X134927000Y-98827000D01*
X134927000Y-100020155D01*
X135156890Y-100141476D01*
X135566924Y-99971645D01*
X135995183Y-99581358D01*
X136241486Y-99056892D01*
X136120819Y-98827000D01*
X134927000Y-98827000D01*
X134673000Y-98827000D01*
X134653000Y-98827000D01*
X134653000Y-98573000D01*
X134673000Y-98573000D01*
X134673000Y-97379845D01*
X134927000Y-97379845D01*
X134927000Y-98573000D01*
X136120819Y-98573000D01*
X136241486Y-98343108D01*
X135995183Y-97818642D01*
X135566924Y-97428355D01*
X135156890Y-97258524D01*
X134927000Y-97379845D01*
X134673000Y-97379845D01*
X134443110Y-97258524D01*
X134033076Y-97428355D01*
X133604817Y-97818642D01*
X133537702Y-97961553D01*
X133310054Y-97620853D01*
X132828285Y-97298946D01*
X132260000Y-97185907D01*
X131691715Y-97298946D01*
X131209946Y-97620853D01*
X130990000Y-97950026D01*
X130770054Y-97620853D01*
X130435735Y-97397469D01*
X130422148Y-97329161D01*
X130422148Y-97329160D01*
X130257401Y-97082599D01*
X129618401Y-96443599D01*
X144664699Y-96443599D01*
X144928281Y-97081515D01*
X145415918Y-97570004D01*
X146053373Y-97834699D01*
X146743599Y-97835301D01*
X147381515Y-97571719D01*
X147870004Y-97084082D01*
X148134699Y-96446627D01*
X148135301Y-95756401D01*
X147871719Y-95118485D01*
X147384082Y-94629996D01*
X146746627Y-94365301D01*
X146056401Y-94364699D01*
X145418485Y-94628281D01*
X144929996Y-95115918D01*
X144665301Y-95753373D01*
X144664699Y-96443599D01*
X129618401Y-96443599D01*
X129337401Y-96162599D01*
X129090839Y-95997852D01*
X128800000Y-95940000D01*
X118414802Y-95940000D01*
X117737401Y-95262599D01*
X117490839Y-95097852D01*
X117200000Y-95040000D01*
X113200000Y-95040000D01*
X112909161Y-95097852D01*
X112662599Y-95262599D01*
X112397638Y-95527560D01*
X111975000Y-95527560D01*
X111739683Y-95571838D01*
X111523559Y-95710910D01*
X111378569Y-95923110D01*
X111327560Y-96175000D01*
X105910000Y-96175000D01*
X105910000Y-90743599D01*
X106064699Y-90743599D01*
X106328281Y-91381515D01*
X106815918Y-91870004D01*
X107453373Y-92134699D01*
X108143599Y-92135301D01*
X108781515Y-91871719D01*
X109270004Y-91384082D01*
X109534699Y-90746627D01*
X109534701Y-90743599D01*
X154564699Y-90743599D01*
X154828281Y-91381515D01*
X155315918Y-91870004D01*
X155953373Y-92134699D01*
X156643599Y-92135301D01*
X157281515Y-91871719D01*
X157770004Y-91384082D01*
X158034699Y-90746627D01*
X158035301Y-90056401D01*
X157771719Y-89418485D01*
X157284082Y-88929996D01*
X156646627Y-88665301D01*
X155956401Y-88664699D01*
X155318485Y-88928281D01*
X154829996Y-89415918D01*
X154565301Y-90053373D01*
X154564699Y-90743599D01*
X109534701Y-90743599D01*
X109535301Y-90056401D01*
X109271719Y-89418485D01*
X108784082Y-88929996D01*
X108146627Y-88665301D01*
X107456401Y-88664699D01*
X106818485Y-88928281D01*
X106329996Y-89415918D01*
X106065301Y-90053373D01*
X106064699Y-90743599D01*
X105910000Y-90743599D01*
X105910000Y-89869931D01*
X106021046Y-89311662D01*
X106297669Y-88897667D01*
X106711660Y-88621047D01*
X107269931Y-88510000D01*
X156830069Y-88510000D01*
X157388338Y-88621046D01*
M02*
