M48
;DRILL file {KiCad 4.0.7-e2-6376~61~ubuntu18.04.1} date Sat Jun  9 20:52:23 2018
;FORMAT={-:-/ absolute / inch / decimal}
FMAT,2
INCH,TZ
T1C0.026
T2C0.035
T3C0.039
T4C0.039
T5C0.040
%
G90
G05
M72
T1
X4.7756Y-4.2953
X4.7756Y-4.374
X4.7756Y-4.4528
X4.7756Y-4.5315
X4.7756Y-4.6102
X4.7756Y-4.689
X4.7756Y-4.7677
X4.7756Y-4.8465
X5.3268Y-4.2953
X5.3268Y-4.374
X5.3268Y-4.4528
X5.3268Y-4.5315
X5.3268Y-4.6102
X5.3268Y-4.689
X5.3268Y-4.7677
X5.3268Y-4.8465
T2
X4.4449Y-3.8228
X4.5433Y-3.8228
T3
X4.8071Y-3.8858
X4.9071Y-3.8858
X5.0071Y-3.8858
X5.1071Y-3.8858
X5.2071Y-3.8858
X5.3071Y-3.8858
T4
X5.5551Y-5.122
X5.9489Y-5.122
T5
X5.6138Y-4.8661
X5.7138Y-4.8661
X5.8138Y-4.8661
X5.9138Y-4.8661
T0
M30
