G04 #@! TF.FileFunction,Legend,Top*
%FSLAX46Y46*%
G04 Gerber Fmt 4.6, Leading zero omitted, Abs format (unit mm)*
G04 Created by KiCad (PCBNEW 4.0.7-e2-6376~61~ubuntu18.04.1) date Sat Jun  9 20:52:15 2018*
%MOMM*%
%LPD*%
G01*
G04 APERTURE LIST*
%ADD10C,0.100000*%
%ADD11C,0.300000*%
%ADD12C,0.120000*%
%ADD13C,0.152400*%
%ADD14C,0.010000*%
%ADD15C,0.150000*%
G04 APERTURE END LIST*
D10*
D11*
X134342857Y-100585714D02*
X135257143Y-100585714D01*
X131642858Y-101242857D02*
X131242858Y-100671429D01*
X130957143Y-101242857D02*
X130957143Y-100042857D01*
X131414286Y-100042857D01*
X131528572Y-100100000D01*
X131585715Y-100157143D01*
X131642858Y-100271429D01*
X131642858Y-100442857D01*
X131585715Y-100557143D01*
X131528572Y-100614286D01*
X131414286Y-100671429D01*
X130957143Y-100671429D01*
X132100000Y-101185714D02*
X132271429Y-101242857D01*
X132557143Y-101242857D01*
X132671429Y-101185714D01*
X132728572Y-101128571D01*
X132785715Y-101014286D01*
X132785715Y-100900000D01*
X132728572Y-100785714D01*
X132671429Y-100728571D01*
X132557143Y-100671429D01*
X132328572Y-100614286D01*
X132214286Y-100557143D01*
X132157143Y-100500000D01*
X132100000Y-100385714D01*
X132100000Y-100271429D01*
X132157143Y-100157143D01*
X132214286Y-100100000D01*
X132328572Y-100042857D01*
X132614286Y-100042857D01*
X132785715Y-100100000D01*
X133128572Y-100042857D02*
X133814286Y-100042857D01*
X133471429Y-101242857D02*
X133471429Y-100042857D01*
X129342857Y-100585714D02*
X130257143Y-100585714D01*
X129800000Y-101042857D02*
X129800000Y-100128571D01*
X127000001Y-101242857D02*
X126600001Y-100671429D01*
X126314286Y-101242857D02*
X126314286Y-100042857D01*
X126771429Y-100042857D01*
X126885715Y-100100000D01*
X126942858Y-100157143D01*
X127000001Y-100271429D01*
X127000001Y-100442857D01*
X126942858Y-100557143D01*
X126885715Y-100614286D01*
X126771429Y-100671429D01*
X126314286Y-100671429D01*
X127400001Y-100042857D02*
X128200001Y-101242857D01*
X128200001Y-100042857D02*
X127400001Y-101242857D01*
X123685715Y-100042857D02*
X124371429Y-100042857D01*
X124028572Y-101242857D02*
X124028572Y-100042857D01*
X124657144Y-100042857D02*
X125457144Y-101242857D01*
X125457144Y-100042857D02*
X124657144Y-101242857D01*
X122042858Y-100042857D02*
X122157143Y-100042857D01*
X122271429Y-100100000D01*
X122328572Y-100157143D01*
X122385715Y-100271429D01*
X122442858Y-100500000D01*
X122442858Y-100785714D01*
X122385715Y-101014286D01*
X122328572Y-101128571D01*
X122271429Y-101185714D01*
X122157143Y-101242857D01*
X122042858Y-101242857D01*
X121928572Y-101185714D01*
X121871429Y-101128571D01*
X121814286Y-101014286D01*
X121757143Y-100785714D01*
X121757143Y-100500000D01*
X121814286Y-100271429D01*
X121871429Y-100157143D01*
X121928572Y-100100000D01*
X122042858Y-100042857D01*
D12*
X112680000Y-111810000D02*
X111910000Y-112580000D01*
X122500000Y-102400000D02*
X121100000Y-102400000D01*
X121100000Y-102400000D02*
X121100000Y-105200000D01*
X122500000Y-102400000D02*
X122500000Y-105200000D01*
X132800000Y-101850000D02*
X130800000Y-101850000D01*
X130800000Y-101850000D02*
X130800000Y-105750000D01*
X132800000Y-101850000D02*
X132800000Y-105750000D01*
X130000000Y-101850000D02*
X128000000Y-101850000D01*
X128000000Y-101850000D02*
X128000000Y-105750000D01*
X130000000Y-101850000D02*
X130000000Y-105750000D01*
X127300000Y-102300000D02*
X125900000Y-102300000D01*
X125900000Y-102300000D02*
X125900000Y-105100000D01*
X127300000Y-102300000D02*
X127300000Y-105100000D01*
X111070000Y-123270000D02*
X111100000Y-123270000D01*
D13*
X136316000Y-108241000D02*
X136316000Y-107479000D01*
X136316000Y-107479000D02*
X120314000Y-107479000D01*
X120314000Y-107479000D02*
X120314000Y-108241000D01*
D14*
G36*
X147132653Y-99883923D02*
X147776209Y-100002859D01*
X148359585Y-100168471D01*
X148980712Y-100410549D01*
X149574676Y-100717321D01*
X150135287Y-101084006D01*
X150656356Y-101505823D01*
X151131691Y-101977992D01*
X151555104Y-102495731D01*
X151762817Y-102796959D01*
X151846161Y-102934888D01*
X151942182Y-103108220D01*
X152043654Y-103302225D01*
X152143352Y-103502173D01*
X152234051Y-103693332D01*
X152308525Y-103860973D01*
X152359550Y-103990365D01*
X152377353Y-104049857D01*
X152389066Y-104117572D01*
X152379062Y-104122044D01*
X152359775Y-104094451D01*
X152309185Y-104050533D01*
X152267753Y-104071353D01*
X152250857Y-104148031D01*
X152261602Y-104214338D01*
X152290458Y-104330047D01*
X152332353Y-104475794D01*
X152359409Y-104562656D01*
X152434575Y-104846608D01*
X152488520Y-105166901D01*
X152521974Y-105531800D01*
X152535665Y-105949572D01*
X152530325Y-106428482D01*
X152528742Y-106481000D01*
X152512215Y-106927883D01*
X152492488Y-107310263D01*
X152468497Y-107636178D01*
X152439176Y-107913666D01*
X152403462Y-108150762D01*
X152360288Y-108355505D01*
X152308590Y-108535933D01*
X152247303Y-108700082D01*
X152229110Y-108742346D01*
X152137875Y-108924019D01*
X152054671Y-109036360D01*
X151977121Y-109081860D01*
X151915642Y-109070802D01*
X151873022Y-109037017D01*
X151858391Y-108982648D01*
X151866604Y-108884520D01*
X151869643Y-108863563D01*
X151894942Y-108750391D01*
X151940074Y-108598092D01*
X151996606Y-108434378D01*
X152014987Y-108386000D01*
X152072092Y-108220612D01*
X152118033Y-108041773D01*
X152153771Y-107840216D01*
X152180268Y-107606678D01*
X152198485Y-107331893D01*
X152209382Y-107006595D01*
X152213921Y-106621521D01*
X152214183Y-106465626D01*
X152203967Y-105866441D01*
X152172471Y-105309738D01*
X152117532Y-104767994D01*
X152037212Y-104215058D01*
X152005071Y-104018264D01*
X151973093Y-103819021D01*
X151945636Y-103644651D01*
X151931284Y-103550987D01*
X151898323Y-103391901D01*
X151850902Y-103232607D01*
X151811477Y-103134551D01*
X151748085Y-103027482D01*
X151659978Y-102908784D01*
X151559737Y-102791936D01*
X151459945Y-102690418D01*
X151373183Y-102617710D01*
X151312031Y-102587291D01*
X151301448Y-102588108D01*
X151265979Y-102631628D01*
X151243488Y-102716880D01*
X151242243Y-102728848D01*
X151240519Y-102780249D01*
X151247765Y-102833360D01*
X151268587Y-102899218D01*
X151307592Y-102988860D01*
X151369384Y-103113324D01*
X151458571Y-103283646D01*
X151528855Y-103415638D01*
X151573989Y-103532178D01*
X151621006Y-103711344D01*
X151668600Y-103943260D01*
X151715463Y-104218050D01*
X151760288Y-104525839D01*
X151801769Y-104856752D01*
X151838597Y-105200912D01*
X151869465Y-105548445D01*
X151893068Y-105889474D01*
X151908097Y-106214124D01*
X151910562Y-106299571D01*
X151922664Y-106646129D01*
X151940152Y-106924104D01*
X151962920Y-107132131D01*
X151984587Y-107246190D01*
X152016141Y-107398486D01*
X152020792Y-107524067D01*
X152000013Y-107663010D01*
X151999916Y-107663476D01*
X151951032Y-107827649D01*
X151876191Y-107995384D01*
X151784788Y-108152633D01*
X151686212Y-108285347D01*
X151589855Y-108379477D01*
X151505109Y-108420975D01*
X151492981Y-108421790D01*
X151359519Y-108401722D01*
X151262953Y-108338496D01*
X151196579Y-108223667D01*
X151153691Y-108048789D01*
X151144306Y-107982584D01*
X151141845Y-107737393D01*
X151403278Y-107737393D01*
X151404894Y-107860089D01*
X151448795Y-107953808D01*
X151469106Y-107972025D01*
X151525861Y-108012021D01*
X151560709Y-108019296D01*
X151612103Y-108001421D01*
X151614232Y-108000603D01*
X151687776Y-107937678D01*
X151744556Y-107823352D01*
X151775771Y-107678352D01*
X151779143Y-107612102D01*
X151762885Y-107481356D01*
X151718771Y-107399394D01*
X151653788Y-107375034D01*
X151605565Y-107393053D01*
X151508271Y-107484115D01*
X151439289Y-107605481D01*
X151403278Y-107737393D01*
X151141845Y-107737393D01*
X151141620Y-107715042D01*
X151196506Y-107456807D01*
X151304142Y-107230203D01*
X151308105Y-107224173D01*
X151415975Y-107061571D01*
X151416131Y-106278821D01*
X151417262Y-106000608D01*
X151420973Y-105784269D01*
X151427925Y-105619132D01*
X151438780Y-105494526D01*
X151454199Y-105399778D01*
X151474845Y-105324217D01*
X151475412Y-105322545D01*
X151517151Y-105103310D01*
X151506169Y-104868519D01*
X151447919Y-104636966D01*
X151347851Y-104427446D01*
X151211415Y-104258754D01*
X151152880Y-104210501D01*
X150992766Y-104125323D01*
X150845839Y-104104045D01*
X150716004Y-104138591D01*
X150607167Y-104220885D01*
X150523232Y-104342851D01*
X150468105Y-104496414D01*
X150445692Y-104673498D01*
X150459897Y-104866026D01*
X150514625Y-105065924D01*
X150613783Y-105265115D01*
X150630406Y-105290938D01*
X150745000Y-105463965D01*
X150737251Y-106053101D01*
X150724293Y-106445643D01*
X150696028Y-106893617D01*
X150654165Y-107381909D01*
X150600416Y-107895404D01*
X150536492Y-108418987D01*
X150464105Y-108937545D01*
X150384964Y-109435960D01*
X150303321Y-109886110D01*
X150263888Y-110096863D01*
X150239935Y-110248274D01*
X150230376Y-110351656D01*
X150234124Y-110418324D01*
X150248491Y-110457118D01*
X150287746Y-110567908D01*
X150268836Y-110691152D01*
X150189659Y-110838076D01*
X150172585Y-110862667D01*
X150010687Y-111052331D01*
X149823219Y-111209658D01*
X149625492Y-111324805D01*
X149432819Y-111387928D01*
X149341521Y-111396917D01*
X149210998Y-111378893D01*
X149132696Y-111318074D01*
X149100922Y-111207181D01*
X149103617Y-111092684D01*
X149110969Y-111046249D01*
X149425101Y-111046249D01*
X149458255Y-111130258D01*
X149464114Y-111136457D01*
X149512857Y-111170994D01*
X149570003Y-111171706D01*
X149652361Y-111134671D01*
X149759265Y-111067591D01*
X149882157Y-110965768D01*
X149949253Y-110868606D01*
X149963919Y-110786702D01*
X149929520Y-110730652D01*
X149849420Y-110711052D01*
X149726985Y-110738500D01*
X149663698Y-110766632D01*
X149534368Y-110852307D01*
X149452654Y-110949555D01*
X149425101Y-111046249D01*
X149110969Y-111046249D01*
X149122216Y-110975221D01*
X149161589Y-110890314D01*
X149238718Y-110806009D01*
X149272022Y-110775823D01*
X149343186Y-110706309D01*
X149400402Y-110631428D01*
X149446504Y-110541127D01*
X149484327Y-110425356D01*
X149516706Y-110274062D01*
X149546476Y-110077195D01*
X149576471Y-109824702D01*
X149598073Y-109619714D01*
X149624156Y-109363135D01*
X149645791Y-109143326D01*
X149663527Y-108949478D01*
X149677913Y-108770779D01*
X149689500Y-108596421D01*
X149698835Y-108415592D01*
X149706469Y-108217482D01*
X149712951Y-107991280D01*
X149718830Y-107726177D01*
X149724656Y-107411361D01*
X149730978Y-107036023D01*
X149731753Y-106989000D01*
X149739766Y-106285018D01*
X149739123Y-105639564D01*
X149729257Y-105039049D01*
X149709602Y-104469880D01*
X149679593Y-103918469D01*
X149638662Y-103371224D01*
X149586243Y-102814554D01*
X149540234Y-102392998D01*
X149537332Y-102253521D01*
X149569745Y-102155119D01*
X149579549Y-102139996D01*
X149633682Y-102002780D01*
X149626108Y-101845873D01*
X149558327Y-101685245D01*
X149533334Y-101648007D01*
X149404491Y-101494743D01*
X149261510Y-101382241D01*
X149078219Y-101290990D01*
X149027489Y-101270910D01*
X148798605Y-101204662D01*
X148609785Y-101195552D01*
X148462838Y-101243215D01*
X148359575Y-101347284D01*
X148327839Y-101412424D01*
X148322718Y-101506280D01*
X148354231Y-101629650D01*
X148411722Y-101757002D01*
X148484532Y-101862804D01*
X148534539Y-101907607D01*
X148590175Y-101949930D01*
X148635291Y-102002048D01*
X148671930Y-102072725D01*
X148702133Y-102170721D01*
X148727943Y-102304802D01*
X148751402Y-102483730D01*
X148774552Y-102716267D01*
X148799434Y-103011177D01*
X148803462Y-103061583D01*
X148826765Y-103375177D01*
X148850731Y-103733791D01*
X148873692Y-104109913D01*
X148893978Y-104476029D01*
X148909921Y-104804625D01*
X148911799Y-104848143D01*
X148921203Y-105110269D01*
X148929319Y-105415941D01*
X148936109Y-105755058D01*
X148941531Y-106117519D01*
X148945547Y-106493220D01*
X148948118Y-106872062D01*
X148949203Y-107243942D01*
X148948764Y-107598758D01*
X148946760Y-107926409D01*
X148943152Y-108216793D01*
X148937901Y-108459809D01*
X148930967Y-108645354D01*
X148926919Y-108712571D01*
X148917089Y-108863377D01*
X148917062Y-108962797D01*
X148931027Y-109031798D01*
X148963171Y-109091347D01*
X149016467Y-109160894D01*
X149120708Y-109330204D01*
X149156118Y-109498623D01*
X149125019Y-109679524D01*
X149112622Y-109714225D01*
X148983979Y-109959640D01*
X148802144Y-110157163D01*
X148592004Y-110296628D01*
X148380644Y-110387318D01*
X148193000Y-110418189D01*
X148012508Y-110389788D01*
X147855214Y-110321023D01*
X147740521Y-110244873D01*
X147644707Y-110157688D01*
X147609790Y-110112380D01*
X147529424Y-109915457D01*
X147519678Y-109788303D01*
X147989362Y-109788303D01*
X148015361Y-109905423D01*
X148092231Y-109994585D01*
X148117151Y-110009251D01*
X148230797Y-110049043D01*
X148345478Y-110042343D01*
X148454073Y-110005111D01*
X148585851Y-109923087D01*
X148678716Y-109812199D01*
X148725077Y-109688826D01*
X148717341Y-109569349D01*
X148684632Y-109507713D01*
X148566990Y-109407383D01*
X148424525Y-109371339D01*
X148269068Y-109401229D01*
X148193745Y-109439216D01*
X148080839Y-109538198D01*
X148011950Y-109660228D01*
X147989362Y-109788303D01*
X147519678Y-109788303D01*
X147513763Y-109711151D01*
X147561167Y-109514899D01*
X147669997Y-109342139D01*
X147694329Y-109316376D01*
X147736087Y-109275752D01*
X147772219Y-109239797D01*
X147803151Y-109203242D01*
X147829310Y-109160816D01*
X147851124Y-109107252D01*
X147869019Y-109037280D01*
X147883422Y-108945631D01*
X147894761Y-108827036D01*
X147903462Y-108676226D01*
X147909952Y-108487932D01*
X147914658Y-108256884D01*
X147918008Y-107977815D01*
X147920428Y-107645455D01*
X147922344Y-107254534D01*
X147924185Y-106799784D01*
X147925563Y-106462857D01*
X147936411Y-103904714D01*
X148041266Y-103795857D01*
X148157909Y-103637499D01*
X148214112Y-103458706D01*
X148222346Y-103330852D01*
X148186313Y-103110135D01*
X148084366Y-102909335D01*
X147922138Y-102736232D01*
X147705265Y-102598611D01*
X147685359Y-102589199D01*
X147563485Y-102539746D01*
X147452010Y-102515160D01*
X147318456Y-102510055D01*
X147228057Y-102513385D01*
X146994342Y-102548406D01*
X146809771Y-102630976D01*
X146664056Y-102767001D01*
X146589067Y-102880141D01*
X146525508Y-103055522D01*
X146510759Y-103251447D01*
X146541661Y-103446648D01*
X146615052Y-103619858D01*
X146717026Y-103741213D01*
X146750640Y-103769976D01*
X146779300Y-103799933D01*
X146803402Y-103836768D01*
X146823340Y-103886166D01*
X146839509Y-103953814D01*
X146852304Y-104045395D01*
X146862119Y-104166595D01*
X146869351Y-104323100D01*
X146874392Y-104520594D01*
X146877639Y-104764763D01*
X146879487Y-105061291D01*
X146880329Y-105415865D01*
X146880561Y-105834168D01*
X146880572Y-106095991D01*
X146880572Y-108200157D01*
X147025521Y-108367633D01*
X147107786Y-108474713D01*
X147169037Y-108576553D01*
X147190992Y-108632912D01*
X147212105Y-108734295D01*
X147225730Y-108800546D01*
X147225622Y-108927170D01*
X147189174Y-109083926D01*
X147124844Y-109243855D01*
X147045923Y-109373757D01*
X146868878Y-109551958D01*
X146663569Y-109670654D01*
X146441427Y-109731095D01*
X146213885Y-109734528D01*
X145992377Y-109682199D01*
X145788334Y-109575356D01*
X145613189Y-109415248D01*
X145478376Y-109203121D01*
X145478176Y-109202692D01*
X145405999Y-108973066D01*
X145404741Y-108878008D01*
X145909888Y-108878008D01*
X145910702Y-109019313D01*
X145964640Y-109139673D01*
X146062076Y-109231227D01*
X146193378Y-109286115D01*
X146348920Y-109296474D01*
X146519071Y-109254444D01*
X146584397Y-109223723D01*
X146684366Y-109135569D01*
X146729874Y-109018459D01*
X146724144Y-108887475D01*
X146670401Y-108757696D01*
X146571867Y-108644201D01*
X146443999Y-108566954D01*
X146296079Y-108541892D01*
X146146536Y-108576348D01*
X146019954Y-108662165D01*
X145971829Y-108723619D01*
X145909888Y-108878008D01*
X145404741Y-108878008D01*
X145403047Y-108750088D01*
X145468038Y-108541888D01*
X145599688Y-108356594D01*
X145614000Y-108342072D01*
X145755714Y-108201767D01*
X145755714Y-107185457D01*
X145897347Y-106996514D01*
X146033770Y-106771166D01*
X146104599Y-106540591D01*
X146118369Y-106369535D01*
X146085377Y-106126250D01*
X145992296Y-105909413D01*
X145849011Y-105726237D01*
X145665408Y-105583931D01*
X145451373Y-105489707D01*
X145216792Y-105450776D01*
X144971550Y-105474349D01*
X144912586Y-105489993D01*
X144754121Y-105566488D01*
X144593763Y-105692767D01*
X144451813Y-105849521D01*
X144348574Y-106017440D01*
X144341621Y-106033032D01*
X144280395Y-106263506D01*
X144284185Y-106504899D01*
X144350017Y-106742758D01*
X144474916Y-106962628D01*
X144551785Y-107054172D01*
X144585800Y-107092419D01*
X144611121Y-107132251D01*
X144629557Y-107185029D01*
X144642917Y-107262115D01*
X144653010Y-107374871D01*
X144661642Y-107534659D01*
X144670623Y-107752840D01*
X144673071Y-107816172D01*
X144682414Y-108038947D01*
X144692532Y-108246575D01*
X144702588Y-108424096D01*
X144711747Y-108556553D01*
X144718109Y-108621857D01*
X144726785Y-108710989D01*
X144736978Y-108854765D01*
X144747572Y-109035305D01*
X144757453Y-109234731D01*
X144760008Y-109293143D01*
X144771716Y-109515529D01*
X144789024Y-109773137D01*
X144810663Y-110052439D01*
X144835365Y-110339904D01*
X144861862Y-110622005D01*
X144888885Y-110885210D01*
X144915166Y-111115992D01*
X144939436Y-111300821D01*
X144959613Y-111422201D01*
X144993923Y-111546455D01*
X145048877Y-111638374D01*
X145144563Y-111730188D01*
X145159007Y-111742131D01*
X145275184Y-111864318D01*
X145321567Y-111977742D01*
X145300880Y-112076315D01*
X145215850Y-112153949D01*
X145069204Y-112204559D01*
X144945015Y-112219910D01*
X144795544Y-112215578D01*
X144642599Y-112191403D01*
X144594572Y-112178257D01*
X144439220Y-112113602D01*
X144281522Y-112024229D01*
X144142211Y-111924066D01*
X144042027Y-111827045D01*
X144035873Y-111818175D01*
X144384178Y-111818175D01*
X144397558Y-111897480D01*
X144467652Y-111965199D01*
X144601940Y-112028173D01*
X144621442Y-112035279D01*
X144735043Y-112072409D01*
X144806930Y-112081977D01*
X144862425Y-112064225D01*
X144901961Y-112037961D01*
X144948761Y-111972130D01*
X144924699Y-111896531D01*
X144830542Y-111813064D01*
X144804433Y-111796252D01*
X144688657Y-111746415D01*
X144568951Y-111728523D01*
X144465416Y-111741526D01*
X144398155Y-111784376D01*
X144384178Y-111818175D01*
X144035873Y-111818175D01*
X144016084Y-111789658D01*
X143984349Y-111720665D01*
X143989187Y-111665500D01*
X144035190Y-111591904D01*
X144046408Y-111576627D01*
X144099827Y-111488874D01*
X144116929Y-111401853D01*
X144107883Y-111293540D01*
X144040357Y-110800558D01*
X143979045Y-110326834D01*
X143926186Y-109890169D01*
X143886530Y-109532502D01*
X143865686Y-109341503D01*
X143846035Y-109176466D01*
X143829291Y-109050714D01*
X143817168Y-108977570D01*
X143813543Y-108965138D01*
X143805882Y-108920717D01*
X143796709Y-108818349D01*
X143787102Y-108672613D01*
X143778142Y-108498085D01*
X143776984Y-108471779D01*
X143768636Y-108281440D01*
X143757859Y-108040449D01*
X143745641Y-107770643D01*
X143732969Y-107493859D01*
X143722195Y-107261143D01*
X143710972Y-106967078D01*
X143701949Y-106622648D01*
X143695172Y-106241917D01*
X143690683Y-105838950D01*
X143688527Y-105427809D01*
X143688748Y-105022559D01*
X143691389Y-104637263D01*
X143696495Y-104285986D01*
X143704110Y-103982790D01*
X143711365Y-103798093D01*
X143735301Y-103298998D01*
X143859112Y-103150806D01*
X144013386Y-102934297D01*
X144100239Y-102733296D01*
X144122722Y-102572660D01*
X144091661Y-102392553D01*
X144006670Y-102244418D01*
X143879532Y-102138782D01*
X143722032Y-102086173D01*
X143581777Y-102089396D01*
X143339817Y-102164211D01*
X143117195Y-102293423D01*
X142928050Y-102464947D01*
X142786522Y-102666700D01*
X142721939Y-102824250D01*
X142691849Y-102935765D01*
X142684471Y-103013318D01*
X142703099Y-103087796D01*
X142751026Y-103190090D01*
X142763609Y-103215007D01*
X142812775Y-103319466D01*
X142840385Y-103407662D01*
X142850585Y-103505447D01*
X142847520Y-103638675D01*
X142843253Y-103711737D01*
X142814239Y-104173841D01*
X142789482Y-104571526D01*
X142768738Y-104912803D01*
X142751759Y-105205685D01*
X142738298Y-105458183D01*
X142728111Y-105678310D01*
X142720949Y-105874077D01*
X142716567Y-106053497D01*
X142714717Y-106224581D01*
X142715155Y-106395342D01*
X142717632Y-106573792D01*
X142721903Y-106767942D01*
X142727721Y-106985805D01*
X142734839Y-107235392D01*
X142734845Y-107235584D01*
X142770023Y-108462671D01*
X142881959Y-108578550D01*
X143011898Y-108750613D01*
X143097372Y-108942904D01*
X143137930Y-109141704D01*
X143133122Y-109333291D01*
X143082496Y-109503946D01*
X142985602Y-109639949D01*
X142918541Y-109691355D01*
X142777136Y-109751424D01*
X142632927Y-109753849D01*
X142470198Y-109697610D01*
X142394517Y-109657383D01*
X142188791Y-109506915D01*
X142026236Y-109322353D01*
X141911606Y-109115563D01*
X141877521Y-108996085D01*
X142166226Y-108996085D01*
X142225470Y-109129227D01*
X142304303Y-109224840D01*
X142436227Y-109328113D01*
X142558090Y-109368202D01*
X142662573Y-109344054D01*
X142723800Y-109285069D01*
X142773121Y-109178540D01*
X142765064Y-109067821D01*
X142704211Y-108942760D01*
X142600426Y-108818483D01*
X142480219Y-108742447D01*
X142358472Y-108719988D01*
X142250064Y-108756443D01*
X142229786Y-108772624D01*
X142167006Y-108873220D01*
X142166226Y-108996085D01*
X141877521Y-108996085D01*
X141849656Y-108898411D01*
X141845141Y-108682764D01*
X141902815Y-108480488D01*
X141913949Y-108458046D01*
X141947818Y-108387818D01*
X141967841Y-108323239D01*
X141975262Y-108246286D01*
X141971327Y-108138935D01*
X141957282Y-107983164D01*
X141951018Y-107921714D01*
X141935152Y-107742991D01*
X141918828Y-107516561D01*
X141903639Y-107267256D01*
X141891181Y-107019912D01*
X141887564Y-106933390D01*
X141864132Y-106333495D01*
X141985815Y-106098819D01*
X142049579Y-105967222D01*
X142086314Y-105859037D01*
X142103246Y-105743124D01*
X142107600Y-105588345D01*
X142107621Y-105573857D01*
X142086815Y-105317157D01*
X142024960Y-105116316D01*
X141923262Y-104973128D01*
X141782929Y-104889388D01*
X141631996Y-104866286D01*
X141475309Y-104896436D01*
X141337272Y-104989299D01*
X141213629Y-105148489D01*
X141142364Y-105282011D01*
X141055021Y-105541856D01*
X141039169Y-105798684D01*
X141094883Y-106048825D01*
X141125282Y-106121410D01*
X141165462Y-106221588D01*
X141194352Y-106332779D01*
X141215117Y-106473002D01*
X141230920Y-106660274D01*
X141236789Y-106756410D01*
X141258285Y-107066245D01*
X141288920Y-107387180D01*
X141330414Y-107733212D01*
X141384485Y-108118342D01*
X141452852Y-108556568D01*
X141472875Y-108679071D01*
X141549127Y-109105136D01*
X141625693Y-109459258D01*
X141702748Y-109742064D01*
X141780468Y-109954182D01*
X141859031Y-110096241D01*
X141877744Y-110119652D01*
X141996748Y-110280681D01*
X142080255Y-110444330D01*
X142119420Y-110591339D01*
X142120171Y-110647456D01*
X142100671Y-110730999D01*
X142050338Y-110766838D01*
X142008641Y-110774251D01*
X141948600Y-110770316D01*
X141881238Y-110738650D01*
X141792882Y-110670481D01*
X141669859Y-110557033D01*
X141669341Y-110556537D01*
X141494531Y-110375909D01*
X141373087Y-110215865D01*
X141354221Y-110177920D01*
X141494947Y-110177920D01*
X141522891Y-110263762D01*
X141585446Y-110358203D01*
X141677676Y-110446395D01*
X141681627Y-110449369D01*
X141786278Y-110512830D01*
X141850020Y-110516487D01*
X141873050Y-110460345D01*
X141873143Y-110454390D01*
X141849427Y-110387644D01*
X141789913Y-110297683D01*
X141712052Y-110204909D01*
X141633299Y-110129721D01*
X141571103Y-110092519D01*
X141562634Y-110091428D01*
X141506549Y-110115526D01*
X141494947Y-110177920D01*
X141354221Y-110177920D01*
X141295749Y-110060320D01*
X141253257Y-109893186D01*
X141243710Y-109817085D01*
X141224804Y-109676020D01*
X141193514Y-109497887D01*
X141155796Y-109315836D01*
X141145873Y-109272800D01*
X141117490Y-109137020D01*
X141082661Y-108945840D01*
X141044142Y-108715842D01*
X141004688Y-108463613D01*
X140967055Y-108205736D01*
X140959328Y-108150143D01*
X140927505Y-107912769D01*
X140902073Y-107704600D01*
X140882134Y-107511735D01*
X140866791Y-107320273D01*
X140855145Y-107116313D01*
X140846299Y-106885954D01*
X140839354Y-106615296D01*
X140833413Y-106290437D01*
X140831569Y-106172179D01*
X140826645Y-105704195D01*
X140827601Y-105301498D01*
X140835146Y-104956992D01*
X140849990Y-104663576D01*
X140872840Y-104414153D01*
X140904406Y-104201622D01*
X140945398Y-104018887D01*
X140996523Y-103858847D01*
X141058492Y-103714405D01*
X141081597Y-103668655D01*
X141181528Y-103451865D01*
X141239577Y-103266535D01*
X141254713Y-103119545D01*
X141225907Y-103017774D01*
X141184686Y-102979948D01*
X141135001Y-102961637D01*
X141087365Y-102973201D01*
X141024171Y-103023546D01*
X140949371Y-103098995D01*
X140801965Y-103275481D01*
X140695831Y-103461178D01*
X140623712Y-103674143D01*
X140578355Y-103932436D01*
X140566018Y-104053203D01*
X140547810Y-104246679D01*
X140526880Y-104442660D01*
X140506435Y-104612101D01*
X140496102Y-104686509D01*
X140471646Y-104887110D01*
X140449201Y-105141570D01*
X140429641Y-105431186D01*
X140413838Y-105737255D01*
X140402666Y-106041074D01*
X140396996Y-106323940D01*
X140397703Y-106567150D01*
X140402185Y-106698714D01*
X140419717Y-106987972D01*
X140441553Y-107284680D01*
X140466457Y-107576555D01*
X140493194Y-107851316D01*
X140520528Y-108096681D01*
X140547224Y-108300367D01*
X140572047Y-108450093D01*
X140583532Y-108501511D01*
X140625123Y-108631735D01*
X140687395Y-108793246D01*
X140757514Y-108952961D01*
X140763732Y-108966034D01*
X140843641Y-109157076D01*
X140885497Y-109313632D01*
X140888194Y-109427865D01*
X140850621Y-109491940D01*
X140838915Y-109497768D01*
X140774482Y-109486023D01*
X140698144Y-109414251D01*
X140615256Y-109292913D01*
X140531175Y-109132471D01*
X140451256Y-108943386D01*
X140380854Y-108736119D01*
X140325326Y-108521133D01*
X140316199Y-108476714D01*
X140251359Y-108120746D01*
X140200592Y-107780883D01*
X140162181Y-107439141D01*
X140134407Y-107077538D01*
X140115552Y-106678092D01*
X140104614Y-106262191D01*
X140099497Y-105972756D01*
X140096688Y-105744920D01*
X140096747Y-105567734D01*
X140100236Y-105430246D01*
X140107718Y-105321505D01*
X140119754Y-105230561D01*
X140136905Y-105146464D01*
X140159733Y-105058262D01*
X140167866Y-105029033D01*
X140221524Y-104820192D01*
X140259838Y-104634600D01*
X140281136Y-104483898D01*
X140283748Y-104379730D01*
X140267538Y-104334560D01*
X140215153Y-104332237D01*
X140178879Y-104394218D01*
X140161357Y-104513495D01*
X140161202Y-104616637D01*
X140159640Y-104765065D01*
X140135977Y-104877022D01*
X140082860Y-104987090D01*
X140082215Y-104988196D01*
X140027412Y-105125192D01*
X139983506Y-105322512D01*
X139950791Y-105568686D01*
X139929562Y-105852245D01*
X139920113Y-106161720D01*
X139922740Y-106485642D01*
X139937737Y-106812541D01*
X139965398Y-107130948D01*
X140006018Y-107429393D01*
X140017769Y-107497000D01*
X140049371Y-107664444D01*
X140078822Y-107809689D01*
X140102447Y-107915216D01*
X140114826Y-107959643D01*
X140118325Y-108012375D01*
X140099717Y-108023143D01*
X140081464Y-108020053D01*
X140065753Y-108003786D01*
X140049603Y-107963846D01*
X140030034Y-107889738D01*
X140004064Y-107770965D01*
X139968713Y-107597034D01*
X139945146Y-107478857D01*
X139903043Y-107209252D01*
X139871856Y-106891158D01*
X139852474Y-106547961D01*
X139845787Y-106203045D01*
X139852682Y-105879798D01*
X139873862Y-105603213D01*
X139912430Y-105341418D01*
X139969526Y-105046176D01*
X140040262Y-104736861D01*
X140119748Y-104432849D01*
X140203097Y-104153514D01*
X140285420Y-103918231D01*
X140320717Y-103832143D01*
X140634612Y-103192614D01*
X140993832Y-102609244D01*
X141400177Y-102080122D01*
X141855445Y-101603339D01*
X142361435Y-101176983D01*
X142919946Y-100799145D01*
X143450804Y-100507993D01*
X143934393Y-100287661D01*
X144398576Y-100118732D01*
X144866152Y-99993571D01*
X145157000Y-99936445D01*
X145832099Y-99851371D01*
X146487633Y-99833645D01*
X147132653Y-99883923D01*
X147132653Y-99883923D01*
G37*
X147132653Y-99883923D02*
X147776209Y-100002859D01*
X148359585Y-100168471D01*
X148980712Y-100410549D01*
X149574676Y-100717321D01*
X150135287Y-101084006D01*
X150656356Y-101505823D01*
X151131691Y-101977992D01*
X151555104Y-102495731D01*
X151762817Y-102796959D01*
X151846161Y-102934888D01*
X151942182Y-103108220D01*
X152043654Y-103302225D01*
X152143352Y-103502173D01*
X152234051Y-103693332D01*
X152308525Y-103860973D01*
X152359550Y-103990365D01*
X152377353Y-104049857D01*
X152389066Y-104117572D01*
X152379062Y-104122044D01*
X152359775Y-104094451D01*
X152309185Y-104050533D01*
X152267753Y-104071353D01*
X152250857Y-104148031D01*
X152261602Y-104214338D01*
X152290458Y-104330047D01*
X152332353Y-104475794D01*
X152359409Y-104562656D01*
X152434575Y-104846608D01*
X152488520Y-105166901D01*
X152521974Y-105531800D01*
X152535665Y-105949572D01*
X152530325Y-106428482D01*
X152528742Y-106481000D01*
X152512215Y-106927883D01*
X152492488Y-107310263D01*
X152468497Y-107636178D01*
X152439176Y-107913666D01*
X152403462Y-108150762D01*
X152360288Y-108355505D01*
X152308590Y-108535933D01*
X152247303Y-108700082D01*
X152229110Y-108742346D01*
X152137875Y-108924019D01*
X152054671Y-109036360D01*
X151977121Y-109081860D01*
X151915642Y-109070802D01*
X151873022Y-109037017D01*
X151858391Y-108982648D01*
X151866604Y-108884520D01*
X151869643Y-108863563D01*
X151894942Y-108750391D01*
X151940074Y-108598092D01*
X151996606Y-108434378D01*
X152014987Y-108386000D01*
X152072092Y-108220612D01*
X152118033Y-108041773D01*
X152153771Y-107840216D01*
X152180268Y-107606678D01*
X152198485Y-107331893D01*
X152209382Y-107006595D01*
X152213921Y-106621521D01*
X152214183Y-106465626D01*
X152203967Y-105866441D01*
X152172471Y-105309738D01*
X152117532Y-104767994D01*
X152037212Y-104215058D01*
X152005071Y-104018264D01*
X151973093Y-103819021D01*
X151945636Y-103644651D01*
X151931284Y-103550987D01*
X151898323Y-103391901D01*
X151850902Y-103232607D01*
X151811477Y-103134551D01*
X151748085Y-103027482D01*
X151659978Y-102908784D01*
X151559737Y-102791936D01*
X151459945Y-102690418D01*
X151373183Y-102617710D01*
X151312031Y-102587291D01*
X151301448Y-102588108D01*
X151265979Y-102631628D01*
X151243488Y-102716880D01*
X151242243Y-102728848D01*
X151240519Y-102780249D01*
X151247765Y-102833360D01*
X151268587Y-102899218D01*
X151307592Y-102988860D01*
X151369384Y-103113324D01*
X151458571Y-103283646D01*
X151528855Y-103415638D01*
X151573989Y-103532178D01*
X151621006Y-103711344D01*
X151668600Y-103943260D01*
X151715463Y-104218050D01*
X151760288Y-104525839D01*
X151801769Y-104856752D01*
X151838597Y-105200912D01*
X151869465Y-105548445D01*
X151893068Y-105889474D01*
X151908097Y-106214124D01*
X151910562Y-106299571D01*
X151922664Y-106646129D01*
X151940152Y-106924104D01*
X151962920Y-107132131D01*
X151984587Y-107246190D01*
X152016141Y-107398486D01*
X152020792Y-107524067D01*
X152000013Y-107663010D01*
X151999916Y-107663476D01*
X151951032Y-107827649D01*
X151876191Y-107995384D01*
X151784788Y-108152633D01*
X151686212Y-108285347D01*
X151589855Y-108379477D01*
X151505109Y-108420975D01*
X151492981Y-108421790D01*
X151359519Y-108401722D01*
X151262953Y-108338496D01*
X151196579Y-108223667D01*
X151153691Y-108048789D01*
X151144306Y-107982584D01*
X151141845Y-107737393D01*
X151403278Y-107737393D01*
X151404894Y-107860089D01*
X151448795Y-107953808D01*
X151469106Y-107972025D01*
X151525861Y-108012021D01*
X151560709Y-108019296D01*
X151612103Y-108001421D01*
X151614232Y-108000603D01*
X151687776Y-107937678D01*
X151744556Y-107823352D01*
X151775771Y-107678352D01*
X151779143Y-107612102D01*
X151762885Y-107481356D01*
X151718771Y-107399394D01*
X151653788Y-107375034D01*
X151605565Y-107393053D01*
X151508271Y-107484115D01*
X151439289Y-107605481D01*
X151403278Y-107737393D01*
X151141845Y-107737393D01*
X151141620Y-107715042D01*
X151196506Y-107456807D01*
X151304142Y-107230203D01*
X151308105Y-107224173D01*
X151415975Y-107061571D01*
X151416131Y-106278821D01*
X151417262Y-106000608D01*
X151420973Y-105784269D01*
X151427925Y-105619132D01*
X151438780Y-105494526D01*
X151454199Y-105399778D01*
X151474845Y-105324217D01*
X151475412Y-105322545D01*
X151517151Y-105103310D01*
X151506169Y-104868519D01*
X151447919Y-104636966D01*
X151347851Y-104427446D01*
X151211415Y-104258754D01*
X151152880Y-104210501D01*
X150992766Y-104125323D01*
X150845839Y-104104045D01*
X150716004Y-104138591D01*
X150607167Y-104220885D01*
X150523232Y-104342851D01*
X150468105Y-104496414D01*
X150445692Y-104673498D01*
X150459897Y-104866026D01*
X150514625Y-105065924D01*
X150613783Y-105265115D01*
X150630406Y-105290938D01*
X150745000Y-105463965D01*
X150737251Y-106053101D01*
X150724293Y-106445643D01*
X150696028Y-106893617D01*
X150654165Y-107381909D01*
X150600416Y-107895404D01*
X150536492Y-108418987D01*
X150464105Y-108937545D01*
X150384964Y-109435960D01*
X150303321Y-109886110D01*
X150263888Y-110096863D01*
X150239935Y-110248274D01*
X150230376Y-110351656D01*
X150234124Y-110418324D01*
X150248491Y-110457118D01*
X150287746Y-110567908D01*
X150268836Y-110691152D01*
X150189659Y-110838076D01*
X150172585Y-110862667D01*
X150010687Y-111052331D01*
X149823219Y-111209658D01*
X149625492Y-111324805D01*
X149432819Y-111387928D01*
X149341521Y-111396917D01*
X149210998Y-111378893D01*
X149132696Y-111318074D01*
X149100922Y-111207181D01*
X149103617Y-111092684D01*
X149110969Y-111046249D01*
X149425101Y-111046249D01*
X149458255Y-111130258D01*
X149464114Y-111136457D01*
X149512857Y-111170994D01*
X149570003Y-111171706D01*
X149652361Y-111134671D01*
X149759265Y-111067591D01*
X149882157Y-110965768D01*
X149949253Y-110868606D01*
X149963919Y-110786702D01*
X149929520Y-110730652D01*
X149849420Y-110711052D01*
X149726985Y-110738500D01*
X149663698Y-110766632D01*
X149534368Y-110852307D01*
X149452654Y-110949555D01*
X149425101Y-111046249D01*
X149110969Y-111046249D01*
X149122216Y-110975221D01*
X149161589Y-110890314D01*
X149238718Y-110806009D01*
X149272022Y-110775823D01*
X149343186Y-110706309D01*
X149400402Y-110631428D01*
X149446504Y-110541127D01*
X149484327Y-110425356D01*
X149516706Y-110274062D01*
X149546476Y-110077195D01*
X149576471Y-109824702D01*
X149598073Y-109619714D01*
X149624156Y-109363135D01*
X149645791Y-109143326D01*
X149663527Y-108949478D01*
X149677913Y-108770779D01*
X149689500Y-108596421D01*
X149698835Y-108415592D01*
X149706469Y-108217482D01*
X149712951Y-107991280D01*
X149718830Y-107726177D01*
X149724656Y-107411361D01*
X149730978Y-107036023D01*
X149731753Y-106989000D01*
X149739766Y-106285018D01*
X149739123Y-105639564D01*
X149729257Y-105039049D01*
X149709602Y-104469880D01*
X149679593Y-103918469D01*
X149638662Y-103371224D01*
X149586243Y-102814554D01*
X149540234Y-102392998D01*
X149537332Y-102253521D01*
X149569745Y-102155119D01*
X149579549Y-102139996D01*
X149633682Y-102002780D01*
X149626108Y-101845873D01*
X149558327Y-101685245D01*
X149533334Y-101648007D01*
X149404491Y-101494743D01*
X149261510Y-101382241D01*
X149078219Y-101290990D01*
X149027489Y-101270910D01*
X148798605Y-101204662D01*
X148609785Y-101195552D01*
X148462838Y-101243215D01*
X148359575Y-101347284D01*
X148327839Y-101412424D01*
X148322718Y-101506280D01*
X148354231Y-101629650D01*
X148411722Y-101757002D01*
X148484532Y-101862804D01*
X148534539Y-101907607D01*
X148590175Y-101949930D01*
X148635291Y-102002048D01*
X148671930Y-102072725D01*
X148702133Y-102170721D01*
X148727943Y-102304802D01*
X148751402Y-102483730D01*
X148774552Y-102716267D01*
X148799434Y-103011177D01*
X148803462Y-103061583D01*
X148826765Y-103375177D01*
X148850731Y-103733791D01*
X148873692Y-104109913D01*
X148893978Y-104476029D01*
X148909921Y-104804625D01*
X148911799Y-104848143D01*
X148921203Y-105110269D01*
X148929319Y-105415941D01*
X148936109Y-105755058D01*
X148941531Y-106117519D01*
X148945547Y-106493220D01*
X148948118Y-106872062D01*
X148949203Y-107243942D01*
X148948764Y-107598758D01*
X148946760Y-107926409D01*
X148943152Y-108216793D01*
X148937901Y-108459809D01*
X148930967Y-108645354D01*
X148926919Y-108712571D01*
X148917089Y-108863377D01*
X148917062Y-108962797D01*
X148931027Y-109031798D01*
X148963171Y-109091347D01*
X149016467Y-109160894D01*
X149120708Y-109330204D01*
X149156118Y-109498623D01*
X149125019Y-109679524D01*
X149112622Y-109714225D01*
X148983979Y-109959640D01*
X148802144Y-110157163D01*
X148592004Y-110296628D01*
X148380644Y-110387318D01*
X148193000Y-110418189D01*
X148012508Y-110389788D01*
X147855214Y-110321023D01*
X147740521Y-110244873D01*
X147644707Y-110157688D01*
X147609790Y-110112380D01*
X147529424Y-109915457D01*
X147519678Y-109788303D01*
X147989362Y-109788303D01*
X148015361Y-109905423D01*
X148092231Y-109994585D01*
X148117151Y-110009251D01*
X148230797Y-110049043D01*
X148345478Y-110042343D01*
X148454073Y-110005111D01*
X148585851Y-109923087D01*
X148678716Y-109812199D01*
X148725077Y-109688826D01*
X148717341Y-109569349D01*
X148684632Y-109507713D01*
X148566990Y-109407383D01*
X148424525Y-109371339D01*
X148269068Y-109401229D01*
X148193745Y-109439216D01*
X148080839Y-109538198D01*
X148011950Y-109660228D01*
X147989362Y-109788303D01*
X147519678Y-109788303D01*
X147513763Y-109711151D01*
X147561167Y-109514899D01*
X147669997Y-109342139D01*
X147694329Y-109316376D01*
X147736087Y-109275752D01*
X147772219Y-109239797D01*
X147803151Y-109203242D01*
X147829310Y-109160816D01*
X147851124Y-109107252D01*
X147869019Y-109037280D01*
X147883422Y-108945631D01*
X147894761Y-108827036D01*
X147903462Y-108676226D01*
X147909952Y-108487932D01*
X147914658Y-108256884D01*
X147918008Y-107977815D01*
X147920428Y-107645455D01*
X147922344Y-107254534D01*
X147924185Y-106799784D01*
X147925563Y-106462857D01*
X147936411Y-103904714D01*
X148041266Y-103795857D01*
X148157909Y-103637499D01*
X148214112Y-103458706D01*
X148222346Y-103330852D01*
X148186313Y-103110135D01*
X148084366Y-102909335D01*
X147922138Y-102736232D01*
X147705265Y-102598611D01*
X147685359Y-102589199D01*
X147563485Y-102539746D01*
X147452010Y-102515160D01*
X147318456Y-102510055D01*
X147228057Y-102513385D01*
X146994342Y-102548406D01*
X146809771Y-102630976D01*
X146664056Y-102767001D01*
X146589067Y-102880141D01*
X146525508Y-103055522D01*
X146510759Y-103251447D01*
X146541661Y-103446648D01*
X146615052Y-103619858D01*
X146717026Y-103741213D01*
X146750640Y-103769976D01*
X146779300Y-103799933D01*
X146803402Y-103836768D01*
X146823340Y-103886166D01*
X146839509Y-103953814D01*
X146852304Y-104045395D01*
X146862119Y-104166595D01*
X146869351Y-104323100D01*
X146874392Y-104520594D01*
X146877639Y-104764763D01*
X146879487Y-105061291D01*
X146880329Y-105415865D01*
X146880561Y-105834168D01*
X146880572Y-106095991D01*
X146880572Y-108200157D01*
X147025521Y-108367633D01*
X147107786Y-108474713D01*
X147169037Y-108576553D01*
X147190992Y-108632912D01*
X147212105Y-108734295D01*
X147225730Y-108800546D01*
X147225622Y-108927170D01*
X147189174Y-109083926D01*
X147124844Y-109243855D01*
X147045923Y-109373757D01*
X146868878Y-109551958D01*
X146663569Y-109670654D01*
X146441427Y-109731095D01*
X146213885Y-109734528D01*
X145992377Y-109682199D01*
X145788334Y-109575356D01*
X145613189Y-109415248D01*
X145478376Y-109203121D01*
X145478176Y-109202692D01*
X145405999Y-108973066D01*
X145404741Y-108878008D01*
X145909888Y-108878008D01*
X145910702Y-109019313D01*
X145964640Y-109139673D01*
X146062076Y-109231227D01*
X146193378Y-109286115D01*
X146348920Y-109296474D01*
X146519071Y-109254444D01*
X146584397Y-109223723D01*
X146684366Y-109135569D01*
X146729874Y-109018459D01*
X146724144Y-108887475D01*
X146670401Y-108757696D01*
X146571867Y-108644201D01*
X146443999Y-108566954D01*
X146296079Y-108541892D01*
X146146536Y-108576348D01*
X146019954Y-108662165D01*
X145971829Y-108723619D01*
X145909888Y-108878008D01*
X145404741Y-108878008D01*
X145403047Y-108750088D01*
X145468038Y-108541888D01*
X145599688Y-108356594D01*
X145614000Y-108342072D01*
X145755714Y-108201767D01*
X145755714Y-107185457D01*
X145897347Y-106996514D01*
X146033770Y-106771166D01*
X146104599Y-106540591D01*
X146118369Y-106369535D01*
X146085377Y-106126250D01*
X145992296Y-105909413D01*
X145849011Y-105726237D01*
X145665408Y-105583931D01*
X145451373Y-105489707D01*
X145216792Y-105450776D01*
X144971550Y-105474349D01*
X144912586Y-105489993D01*
X144754121Y-105566488D01*
X144593763Y-105692767D01*
X144451813Y-105849521D01*
X144348574Y-106017440D01*
X144341621Y-106033032D01*
X144280395Y-106263506D01*
X144284185Y-106504899D01*
X144350017Y-106742758D01*
X144474916Y-106962628D01*
X144551785Y-107054172D01*
X144585800Y-107092419D01*
X144611121Y-107132251D01*
X144629557Y-107185029D01*
X144642917Y-107262115D01*
X144653010Y-107374871D01*
X144661642Y-107534659D01*
X144670623Y-107752840D01*
X144673071Y-107816172D01*
X144682414Y-108038947D01*
X144692532Y-108246575D01*
X144702588Y-108424096D01*
X144711747Y-108556553D01*
X144718109Y-108621857D01*
X144726785Y-108710989D01*
X144736978Y-108854765D01*
X144747572Y-109035305D01*
X144757453Y-109234731D01*
X144760008Y-109293143D01*
X144771716Y-109515529D01*
X144789024Y-109773137D01*
X144810663Y-110052439D01*
X144835365Y-110339904D01*
X144861862Y-110622005D01*
X144888885Y-110885210D01*
X144915166Y-111115992D01*
X144939436Y-111300821D01*
X144959613Y-111422201D01*
X144993923Y-111546455D01*
X145048877Y-111638374D01*
X145144563Y-111730188D01*
X145159007Y-111742131D01*
X145275184Y-111864318D01*
X145321567Y-111977742D01*
X145300880Y-112076315D01*
X145215850Y-112153949D01*
X145069204Y-112204559D01*
X144945015Y-112219910D01*
X144795544Y-112215578D01*
X144642599Y-112191403D01*
X144594572Y-112178257D01*
X144439220Y-112113602D01*
X144281522Y-112024229D01*
X144142211Y-111924066D01*
X144042027Y-111827045D01*
X144035873Y-111818175D01*
X144384178Y-111818175D01*
X144397558Y-111897480D01*
X144467652Y-111965199D01*
X144601940Y-112028173D01*
X144621442Y-112035279D01*
X144735043Y-112072409D01*
X144806930Y-112081977D01*
X144862425Y-112064225D01*
X144901961Y-112037961D01*
X144948761Y-111972130D01*
X144924699Y-111896531D01*
X144830542Y-111813064D01*
X144804433Y-111796252D01*
X144688657Y-111746415D01*
X144568951Y-111728523D01*
X144465416Y-111741526D01*
X144398155Y-111784376D01*
X144384178Y-111818175D01*
X144035873Y-111818175D01*
X144016084Y-111789658D01*
X143984349Y-111720665D01*
X143989187Y-111665500D01*
X144035190Y-111591904D01*
X144046408Y-111576627D01*
X144099827Y-111488874D01*
X144116929Y-111401853D01*
X144107883Y-111293540D01*
X144040357Y-110800558D01*
X143979045Y-110326834D01*
X143926186Y-109890169D01*
X143886530Y-109532502D01*
X143865686Y-109341503D01*
X143846035Y-109176466D01*
X143829291Y-109050714D01*
X143817168Y-108977570D01*
X143813543Y-108965138D01*
X143805882Y-108920717D01*
X143796709Y-108818349D01*
X143787102Y-108672613D01*
X143778142Y-108498085D01*
X143776984Y-108471779D01*
X143768636Y-108281440D01*
X143757859Y-108040449D01*
X143745641Y-107770643D01*
X143732969Y-107493859D01*
X143722195Y-107261143D01*
X143710972Y-106967078D01*
X143701949Y-106622648D01*
X143695172Y-106241917D01*
X143690683Y-105838950D01*
X143688527Y-105427809D01*
X143688748Y-105022559D01*
X143691389Y-104637263D01*
X143696495Y-104285986D01*
X143704110Y-103982790D01*
X143711365Y-103798093D01*
X143735301Y-103298998D01*
X143859112Y-103150806D01*
X144013386Y-102934297D01*
X144100239Y-102733296D01*
X144122722Y-102572660D01*
X144091661Y-102392553D01*
X144006670Y-102244418D01*
X143879532Y-102138782D01*
X143722032Y-102086173D01*
X143581777Y-102089396D01*
X143339817Y-102164211D01*
X143117195Y-102293423D01*
X142928050Y-102464947D01*
X142786522Y-102666700D01*
X142721939Y-102824250D01*
X142691849Y-102935765D01*
X142684471Y-103013318D01*
X142703099Y-103087796D01*
X142751026Y-103190090D01*
X142763609Y-103215007D01*
X142812775Y-103319466D01*
X142840385Y-103407662D01*
X142850585Y-103505447D01*
X142847520Y-103638675D01*
X142843253Y-103711737D01*
X142814239Y-104173841D01*
X142789482Y-104571526D01*
X142768738Y-104912803D01*
X142751759Y-105205685D01*
X142738298Y-105458183D01*
X142728111Y-105678310D01*
X142720949Y-105874077D01*
X142716567Y-106053497D01*
X142714717Y-106224581D01*
X142715155Y-106395342D01*
X142717632Y-106573792D01*
X142721903Y-106767942D01*
X142727721Y-106985805D01*
X142734839Y-107235392D01*
X142734845Y-107235584D01*
X142770023Y-108462671D01*
X142881959Y-108578550D01*
X143011898Y-108750613D01*
X143097372Y-108942904D01*
X143137930Y-109141704D01*
X143133122Y-109333291D01*
X143082496Y-109503946D01*
X142985602Y-109639949D01*
X142918541Y-109691355D01*
X142777136Y-109751424D01*
X142632927Y-109753849D01*
X142470198Y-109697610D01*
X142394517Y-109657383D01*
X142188791Y-109506915D01*
X142026236Y-109322353D01*
X141911606Y-109115563D01*
X141877521Y-108996085D01*
X142166226Y-108996085D01*
X142225470Y-109129227D01*
X142304303Y-109224840D01*
X142436227Y-109328113D01*
X142558090Y-109368202D01*
X142662573Y-109344054D01*
X142723800Y-109285069D01*
X142773121Y-109178540D01*
X142765064Y-109067821D01*
X142704211Y-108942760D01*
X142600426Y-108818483D01*
X142480219Y-108742447D01*
X142358472Y-108719988D01*
X142250064Y-108756443D01*
X142229786Y-108772624D01*
X142167006Y-108873220D01*
X142166226Y-108996085D01*
X141877521Y-108996085D01*
X141849656Y-108898411D01*
X141845141Y-108682764D01*
X141902815Y-108480488D01*
X141913949Y-108458046D01*
X141947818Y-108387818D01*
X141967841Y-108323239D01*
X141975262Y-108246286D01*
X141971327Y-108138935D01*
X141957282Y-107983164D01*
X141951018Y-107921714D01*
X141935152Y-107742991D01*
X141918828Y-107516561D01*
X141903639Y-107267256D01*
X141891181Y-107019912D01*
X141887564Y-106933390D01*
X141864132Y-106333495D01*
X141985815Y-106098819D01*
X142049579Y-105967222D01*
X142086314Y-105859037D01*
X142103246Y-105743124D01*
X142107600Y-105588345D01*
X142107621Y-105573857D01*
X142086815Y-105317157D01*
X142024960Y-105116316D01*
X141923262Y-104973128D01*
X141782929Y-104889388D01*
X141631996Y-104866286D01*
X141475309Y-104896436D01*
X141337272Y-104989299D01*
X141213629Y-105148489D01*
X141142364Y-105282011D01*
X141055021Y-105541856D01*
X141039169Y-105798684D01*
X141094883Y-106048825D01*
X141125282Y-106121410D01*
X141165462Y-106221588D01*
X141194352Y-106332779D01*
X141215117Y-106473002D01*
X141230920Y-106660274D01*
X141236789Y-106756410D01*
X141258285Y-107066245D01*
X141288920Y-107387180D01*
X141330414Y-107733212D01*
X141384485Y-108118342D01*
X141452852Y-108556568D01*
X141472875Y-108679071D01*
X141549127Y-109105136D01*
X141625693Y-109459258D01*
X141702748Y-109742064D01*
X141780468Y-109954182D01*
X141859031Y-110096241D01*
X141877744Y-110119652D01*
X141996748Y-110280681D01*
X142080255Y-110444330D01*
X142119420Y-110591339D01*
X142120171Y-110647456D01*
X142100671Y-110730999D01*
X142050338Y-110766838D01*
X142008641Y-110774251D01*
X141948600Y-110770316D01*
X141881238Y-110738650D01*
X141792882Y-110670481D01*
X141669859Y-110557033D01*
X141669341Y-110556537D01*
X141494531Y-110375909D01*
X141373087Y-110215865D01*
X141354221Y-110177920D01*
X141494947Y-110177920D01*
X141522891Y-110263762D01*
X141585446Y-110358203D01*
X141677676Y-110446395D01*
X141681627Y-110449369D01*
X141786278Y-110512830D01*
X141850020Y-110516487D01*
X141873050Y-110460345D01*
X141873143Y-110454390D01*
X141849427Y-110387644D01*
X141789913Y-110297683D01*
X141712052Y-110204909D01*
X141633299Y-110129721D01*
X141571103Y-110092519D01*
X141562634Y-110091428D01*
X141506549Y-110115526D01*
X141494947Y-110177920D01*
X141354221Y-110177920D01*
X141295749Y-110060320D01*
X141253257Y-109893186D01*
X141243710Y-109817085D01*
X141224804Y-109676020D01*
X141193514Y-109497887D01*
X141155796Y-109315836D01*
X141145873Y-109272800D01*
X141117490Y-109137020D01*
X141082661Y-108945840D01*
X141044142Y-108715842D01*
X141004688Y-108463613D01*
X140967055Y-108205736D01*
X140959328Y-108150143D01*
X140927505Y-107912769D01*
X140902073Y-107704600D01*
X140882134Y-107511735D01*
X140866791Y-107320273D01*
X140855145Y-107116313D01*
X140846299Y-106885954D01*
X140839354Y-106615296D01*
X140833413Y-106290437D01*
X140831569Y-106172179D01*
X140826645Y-105704195D01*
X140827601Y-105301498D01*
X140835146Y-104956992D01*
X140849990Y-104663576D01*
X140872840Y-104414153D01*
X140904406Y-104201622D01*
X140945398Y-104018887D01*
X140996523Y-103858847D01*
X141058492Y-103714405D01*
X141081597Y-103668655D01*
X141181528Y-103451865D01*
X141239577Y-103266535D01*
X141254713Y-103119545D01*
X141225907Y-103017774D01*
X141184686Y-102979948D01*
X141135001Y-102961637D01*
X141087365Y-102973201D01*
X141024171Y-103023546D01*
X140949371Y-103098995D01*
X140801965Y-103275481D01*
X140695831Y-103461178D01*
X140623712Y-103674143D01*
X140578355Y-103932436D01*
X140566018Y-104053203D01*
X140547810Y-104246679D01*
X140526880Y-104442660D01*
X140506435Y-104612101D01*
X140496102Y-104686509D01*
X140471646Y-104887110D01*
X140449201Y-105141570D01*
X140429641Y-105431186D01*
X140413838Y-105737255D01*
X140402666Y-106041074D01*
X140396996Y-106323940D01*
X140397703Y-106567150D01*
X140402185Y-106698714D01*
X140419717Y-106987972D01*
X140441553Y-107284680D01*
X140466457Y-107576555D01*
X140493194Y-107851316D01*
X140520528Y-108096681D01*
X140547224Y-108300367D01*
X140572047Y-108450093D01*
X140583532Y-108501511D01*
X140625123Y-108631735D01*
X140687395Y-108793246D01*
X140757514Y-108952961D01*
X140763732Y-108966034D01*
X140843641Y-109157076D01*
X140885497Y-109313632D01*
X140888194Y-109427865D01*
X140850621Y-109491940D01*
X140838915Y-109497768D01*
X140774482Y-109486023D01*
X140698144Y-109414251D01*
X140615256Y-109292913D01*
X140531175Y-109132471D01*
X140451256Y-108943386D01*
X140380854Y-108736119D01*
X140325326Y-108521133D01*
X140316199Y-108476714D01*
X140251359Y-108120746D01*
X140200592Y-107780883D01*
X140162181Y-107439141D01*
X140134407Y-107077538D01*
X140115552Y-106678092D01*
X140104614Y-106262191D01*
X140099497Y-105972756D01*
X140096688Y-105744920D01*
X140096747Y-105567734D01*
X140100236Y-105430246D01*
X140107718Y-105321505D01*
X140119754Y-105230561D01*
X140136905Y-105146464D01*
X140159733Y-105058262D01*
X140167866Y-105029033D01*
X140221524Y-104820192D01*
X140259838Y-104634600D01*
X140281136Y-104483898D01*
X140283748Y-104379730D01*
X140267538Y-104334560D01*
X140215153Y-104332237D01*
X140178879Y-104394218D01*
X140161357Y-104513495D01*
X140161202Y-104616637D01*
X140159640Y-104765065D01*
X140135977Y-104877022D01*
X140082860Y-104987090D01*
X140082215Y-104988196D01*
X140027412Y-105125192D01*
X139983506Y-105322512D01*
X139950791Y-105568686D01*
X139929562Y-105852245D01*
X139920113Y-106161720D01*
X139922740Y-106485642D01*
X139937737Y-106812541D01*
X139965398Y-107130948D01*
X140006018Y-107429393D01*
X140017769Y-107497000D01*
X140049371Y-107664444D01*
X140078822Y-107809689D01*
X140102447Y-107915216D01*
X140114826Y-107959643D01*
X140118325Y-108012375D01*
X140099717Y-108023143D01*
X140081464Y-108020053D01*
X140065753Y-108003786D01*
X140049603Y-107963846D01*
X140030034Y-107889738D01*
X140004064Y-107770965D01*
X139968713Y-107597034D01*
X139945146Y-107478857D01*
X139903043Y-107209252D01*
X139871856Y-106891158D01*
X139852474Y-106547961D01*
X139845787Y-106203045D01*
X139852682Y-105879798D01*
X139873862Y-105603213D01*
X139912430Y-105341418D01*
X139969526Y-105046176D01*
X140040262Y-104736861D01*
X140119748Y-104432849D01*
X140203097Y-104153514D01*
X140285420Y-103918231D01*
X140320717Y-103832143D01*
X140634612Y-103192614D01*
X140993832Y-102609244D01*
X141400177Y-102080122D01*
X141855445Y-101603339D01*
X142361435Y-101176983D01*
X142919946Y-100799145D01*
X143450804Y-100507993D01*
X143934393Y-100287661D01*
X144398576Y-100118732D01*
X144866152Y-99993571D01*
X145157000Y-99936445D01*
X145832099Y-99851371D01*
X146487633Y-99833645D01*
X147132653Y-99883923D01*
G36*
X152646900Y-105107974D02*
X152673493Y-105192857D01*
X152692767Y-105292721D01*
X152710303Y-105443894D01*
X152725663Y-105633093D01*
X152738407Y-105847036D01*
X152748097Y-106072440D01*
X152754295Y-106296024D01*
X152756562Y-106504503D01*
X152754459Y-106684598D01*
X152747547Y-106823023D01*
X152735389Y-106906499D01*
X152730502Y-106919112D01*
X152717457Y-106912648D01*
X152705746Y-106842691D01*
X152695223Y-106707160D01*
X152685743Y-106503974D01*
X152677159Y-106231052D01*
X152674255Y-106115092D01*
X152667657Y-105863757D01*
X152660309Y-105630076D01*
X152652684Y-105426012D01*
X152645253Y-105263527D01*
X152638489Y-105154584D01*
X152635005Y-105120286D01*
X152632998Y-105081359D01*
X152646900Y-105107974D01*
X152646900Y-105107974D01*
G37*
X152646900Y-105107974D02*
X152673493Y-105192857D01*
X152692767Y-105292721D01*
X152710303Y-105443894D01*
X152725663Y-105633093D01*
X152738407Y-105847036D01*
X152748097Y-106072440D01*
X152754295Y-106296024D01*
X152756562Y-106504503D01*
X152754459Y-106684598D01*
X152747547Y-106823023D01*
X152735389Y-106906499D01*
X152730502Y-106919112D01*
X152717457Y-106912648D01*
X152705746Y-106842691D01*
X152695223Y-106707160D01*
X152685743Y-106503974D01*
X152677159Y-106231052D01*
X152674255Y-106115092D01*
X152667657Y-105863757D01*
X152660309Y-105630076D01*
X152652684Y-105426012D01*
X152645253Y-105263527D01*
X152638489Y-105154584D01*
X152635005Y-105120286D01*
X152632998Y-105081359D01*
X152646900Y-105107974D01*
G36*
X145306117Y-105962149D02*
X145387534Y-105993214D01*
X145469063Y-106064262D01*
X145488359Y-106084441D01*
X145585326Y-106234784D01*
X145613258Y-106401879D01*
X145571020Y-106576862D01*
X145555529Y-106609188D01*
X145455615Y-106730728D01*
X145318839Y-106803435D01*
X145165114Y-106823655D01*
X145014348Y-106787730D01*
X144919789Y-106725928D01*
X144812449Y-106584464D01*
X144769380Y-106416651D01*
X144793677Y-106235180D01*
X144797388Y-106224009D01*
X144872089Y-106079320D01*
X144982084Y-105992883D01*
X145137976Y-105957434D01*
X145189001Y-105955664D01*
X145306117Y-105962149D01*
X145306117Y-105962149D01*
G37*
X145306117Y-105962149D02*
X145387534Y-105993214D01*
X145469063Y-106064262D01*
X145488359Y-106084441D01*
X145585326Y-106234784D01*
X145613258Y-106401879D01*
X145571020Y-106576862D01*
X145555529Y-106609188D01*
X145455615Y-106730728D01*
X145318839Y-106803435D01*
X145165114Y-106823655D01*
X145014348Y-106787730D01*
X144919789Y-106725928D01*
X144812449Y-106584464D01*
X144769380Y-106416651D01*
X144793677Y-106235180D01*
X144797388Y-106224009D01*
X144872089Y-106079320D01*
X144982084Y-105992883D01*
X145137976Y-105957434D01*
X145189001Y-105955664D01*
X145306117Y-105962149D01*
G36*
X141703510Y-105323638D02*
X141768101Y-105436747D01*
X141784997Y-105502213D01*
X141789488Y-105688014D01*
X141726624Y-105848990D01*
X141664195Y-105927643D01*
X141578225Y-106003875D01*
X141507349Y-106021282D01*
X141428114Y-105982526D01*
X141396377Y-105958063D01*
X141346879Y-105906724D01*
X141320887Y-105840080D01*
X141311432Y-105734747D01*
X141310714Y-105670700D01*
X141316197Y-105535925D01*
X141337606Y-105446868D01*
X141382379Y-105377178D01*
X141398682Y-105359066D01*
X141507577Y-105280638D01*
X141612928Y-105270216D01*
X141703510Y-105323638D01*
X141703510Y-105323638D01*
G37*
X141703510Y-105323638D02*
X141768101Y-105436747D01*
X141784997Y-105502213D01*
X141789488Y-105688014D01*
X141726624Y-105848990D01*
X141664195Y-105927643D01*
X141578225Y-106003875D01*
X141507349Y-106021282D01*
X141428114Y-105982526D01*
X141396377Y-105958063D01*
X141346879Y-105906724D01*
X141320887Y-105840080D01*
X141311432Y-105734747D01*
X141310714Y-105670700D01*
X141316197Y-105535925D01*
X141337606Y-105446868D01*
X141382379Y-105377178D01*
X141398682Y-105359066D01*
X141507577Y-105280638D01*
X141612928Y-105270216D01*
X141703510Y-105323638D01*
G36*
X151083817Y-104536166D02*
X151177286Y-104621225D01*
X151248290Y-104738876D01*
X151281261Y-104869390D01*
X151281845Y-104881574D01*
X151263840Y-105036725D01*
X151206409Y-105140646D01*
X151119650Y-105188094D01*
X151013662Y-105173827D01*
X150898544Y-105092602D01*
X150890728Y-105084611D01*
X150826141Y-105004614D01*
X150796643Y-104921820D01*
X150791000Y-104803114D01*
X150791236Y-104791369D01*
X150806507Y-104641090D01*
X150848522Y-104550355D01*
X150924119Y-104508918D01*
X150983454Y-104503428D01*
X151083817Y-104536166D01*
X151083817Y-104536166D01*
G37*
X151083817Y-104536166D02*
X151177286Y-104621225D01*
X151248290Y-104738876D01*
X151281261Y-104869390D01*
X151281845Y-104881574D01*
X151263840Y-105036725D01*
X151206409Y-105140646D01*
X151119650Y-105188094D01*
X151013662Y-105173827D01*
X150898544Y-105092602D01*
X150890728Y-105084611D01*
X150826141Y-105004614D01*
X150796643Y-104921820D01*
X150791000Y-104803114D01*
X150791236Y-104791369D01*
X150806507Y-104641090D01*
X150848522Y-104550355D01*
X150924119Y-104508918D01*
X150983454Y-104503428D01*
X151083817Y-104536166D01*
G36*
X141017672Y-103267426D02*
X141050708Y-103330164D01*
X141039480Y-103411690D01*
X140985167Y-103556000D01*
X140917785Y-103670674D01*
X140846535Y-103746019D01*
X140780619Y-103772343D01*
X140729237Y-103739953D01*
X140728688Y-103739074D01*
X140712996Y-103661910D01*
X140733621Y-103561602D01*
X140780574Y-103454454D01*
X140843865Y-103356768D01*
X140913505Y-103284848D01*
X140979505Y-103254996D01*
X141017672Y-103267426D01*
X141017672Y-103267426D01*
G37*
X141017672Y-103267426D02*
X141050708Y-103330164D01*
X141039480Y-103411690D01*
X140985167Y-103556000D01*
X140917785Y-103670674D01*
X140846535Y-103746019D01*
X140780619Y-103772343D01*
X140729237Y-103739953D01*
X140728688Y-103739074D01*
X140712996Y-103661910D01*
X140733621Y-103561602D01*
X140780574Y-103454454D01*
X140843865Y-103356768D01*
X140913505Y-103284848D01*
X140979505Y-103254996D01*
X141017672Y-103267426D01*
G36*
X147439697Y-102887307D02*
X147548281Y-102921167D01*
X147685056Y-103009897D01*
X147766304Y-103129617D01*
X147788530Y-103265409D01*
X147748236Y-103402353D01*
X147681649Y-103490220D01*
X147550399Y-103573377D01*
X147392449Y-103598674D01*
X147226383Y-103564955D01*
X147142903Y-103523662D01*
X147019876Y-103416626D01*
X146964163Y-103284122D01*
X146968696Y-103143760D01*
X147026064Y-103012834D01*
X147132848Y-102922932D01*
X147275306Y-102879330D01*
X147439697Y-102887307D01*
X147439697Y-102887307D01*
G37*
X147439697Y-102887307D02*
X147548281Y-102921167D01*
X147685056Y-103009897D01*
X147766304Y-103129617D01*
X147788530Y-103265409D01*
X147748236Y-103402353D01*
X147681649Y-103490220D01*
X147550399Y-103573377D01*
X147392449Y-103598674D01*
X147226383Y-103564955D01*
X147142903Y-103523662D01*
X147019876Y-103416626D01*
X146964163Y-103284122D01*
X146968696Y-103143760D01*
X147026064Y-103012834D01*
X147132848Y-102922932D01*
X147275306Y-102879330D01*
X147439697Y-102887307D01*
G36*
X151514796Y-102877233D02*
X151577196Y-102916989D01*
X151650384Y-103001249D01*
X151717878Y-103107265D01*
X151763197Y-103212286D01*
X151766645Y-103224858D01*
X151770286Y-103311219D01*
X151735994Y-103352008D01*
X151675043Y-103334942D01*
X151669434Y-103330771D01*
X151583138Y-103245660D01*
X151513947Y-103144766D01*
X151466854Y-103042728D01*
X151446848Y-102954187D01*
X151458924Y-102893785D01*
X151508072Y-102876161D01*
X151514796Y-102877233D01*
X151514796Y-102877233D01*
G37*
X151514796Y-102877233D02*
X151577196Y-102916989D01*
X151650384Y-103001249D01*
X151717878Y-103107265D01*
X151763197Y-103212286D01*
X151766645Y-103224858D01*
X151770286Y-103311219D01*
X151735994Y-103352008D01*
X151675043Y-103334942D01*
X151669434Y-103330771D01*
X151583138Y-103245660D01*
X151513947Y-103144766D01*
X151466854Y-103042728D01*
X151446848Y-102954187D01*
X151458924Y-102893785D01*
X151508072Y-102876161D01*
X151514796Y-102877233D01*
G36*
X143586287Y-102429123D02*
X143667649Y-102484350D01*
X143713455Y-102585859D01*
X143717411Y-102614037D01*
X143701592Y-102773214D01*
X143619743Y-102904119D01*
X143522136Y-102980669D01*
X143404307Y-103030559D01*
X143277033Y-103050266D01*
X143167165Y-103037962D01*
X143114115Y-103008457D01*
X143085201Y-102945244D01*
X143070900Y-102846726D01*
X143070572Y-102829812D01*
X143095598Y-102697300D01*
X143162117Y-102585369D01*
X143257286Y-102498302D01*
X143368265Y-102440383D01*
X143482212Y-102415895D01*
X143586287Y-102429123D01*
X143586287Y-102429123D01*
G37*
X143586287Y-102429123D02*
X143667649Y-102484350D01*
X143713455Y-102585859D01*
X143717411Y-102614037D01*
X143701592Y-102773214D01*
X143619743Y-102904119D01*
X143522136Y-102980669D01*
X143404307Y-103030559D01*
X143277033Y-103050266D01*
X143167165Y-103037962D01*
X143114115Y-103008457D01*
X143085201Y-102945244D01*
X143070900Y-102846726D01*
X143070572Y-102829812D01*
X143095598Y-102697300D01*
X143162117Y-102585369D01*
X143257286Y-102498302D01*
X143368265Y-102440383D01*
X143482212Y-102415895D01*
X143586287Y-102429123D01*
G36*
X149040010Y-101471810D02*
X149195045Y-101556701D01*
X149284390Y-101666699D01*
X149306054Y-101799290D01*
X149305280Y-101806869D01*
X149289403Y-101873449D01*
X149247343Y-101904659D01*
X149156677Y-101916192D01*
X149148429Y-101916641D01*
X149033993Y-101913769D01*
X148938900Y-101896860D01*
X148926655Y-101892450D01*
X148830802Y-101825664D01*
X148748138Y-101723774D01*
X148699825Y-101615597D01*
X148694857Y-101576757D01*
X148723402Y-101486600D01*
X148802949Y-101439849D01*
X148924371Y-101439279D01*
X149040010Y-101471810D01*
X149040010Y-101471810D01*
G37*
X149040010Y-101471810D02*
X149195045Y-101556701D01*
X149284390Y-101666699D01*
X149306054Y-101799290D01*
X149305280Y-101806869D01*
X149289403Y-101873449D01*
X149247343Y-101904659D01*
X149156677Y-101916192D01*
X149148429Y-101916641D01*
X149033993Y-101913769D01*
X148938900Y-101896860D01*
X148926655Y-101892450D01*
X148830802Y-101825664D01*
X148748138Y-101723774D01*
X148699825Y-101615597D01*
X148694857Y-101576757D01*
X148723402Y-101486600D01*
X148802949Y-101439849D01*
X148924371Y-101439279D01*
X149040010Y-101471810D01*
D15*
X126552381Y-96333333D02*
X127266667Y-96333333D01*
X127409524Y-96380953D01*
X127504762Y-96476191D01*
X127552381Y-96619048D01*
X127552381Y-96714286D01*
X126647619Y-95904762D02*
X126600000Y-95857143D01*
X126552381Y-95761905D01*
X126552381Y-95523809D01*
X126600000Y-95428571D01*
X126647619Y-95380952D01*
X126742857Y-95333333D01*
X126838095Y-95333333D01*
X126980952Y-95380952D01*
X127552381Y-95952381D01*
X127552381Y-95333333D01*
X119852381Y-104266666D02*
X119376190Y-104600000D01*
X119852381Y-104838095D02*
X118852381Y-104838095D01*
X118852381Y-104457142D01*
X118900000Y-104361904D01*
X118947619Y-104314285D01*
X119042857Y-104266666D01*
X119185714Y-104266666D01*
X119280952Y-104314285D01*
X119328571Y-104361904D01*
X119376190Y-104457142D01*
X119376190Y-104838095D01*
X119852381Y-103314285D02*
X119852381Y-103885714D01*
X119852381Y-103600000D02*
X118852381Y-103600000D01*
X118995238Y-103695238D01*
X119090476Y-103790476D01*
X119138095Y-103885714D01*
X114557143Y-100966666D02*
X114604762Y-101014285D01*
X114652381Y-101157142D01*
X114652381Y-101252380D01*
X114604762Y-101395238D01*
X114509524Y-101490476D01*
X114414286Y-101538095D01*
X114223810Y-101585714D01*
X114080952Y-101585714D01*
X113890476Y-101538095D01*
X113795238Y-101490476D01*
X113700000Y-101395238D01*
X113652381Y-101252380D01*
X113652381Y-101157142D01*
X113700000Y-101014285D01*
X113747619Y-100966666D01*
X114652381Y-100014285D02*
X114652381Y-100585714D01*
X114652381Y-100300000D02*
X113652381Y-100300000D01*
X113795238Y-100395238D01*
X113890476Y-100490476D01*
X113938095Y-100585714D01*
X114133334Y-112857143D02*
X114085715Y-112904762D01*
X113942858Y-112952381D01*
X113847620Y-112952381D01*
X113704762Y-112904762D01*
X113609524Y-112809524D01*
X113561905Y-112714286D01*
X113514286Y-112523810D01*
X113514286Y-112380952D01*
X113561905Y-112190476D01*
X113609524Y-112095238D01*
X113704762Y-112000000D01*
X113847620Y-111952381D01*
X113942858Y-111952381D01*
X114085715Y-112000000D01*
X114133334Y-112047619D01*
X114514286Y-112047619D02*
X114561905Y-112000000D01*
X114657143Y-111952381D01*
X114895239Y-111952381D01*
X114990477Y-112000000D01*
X115038096Y-112047619D01*
X115085715Y-112142857D01*
X115085715Y-112238095D01*
X115038096Y-112380952D01*
X114466667Y-112952381D01*
X115085715Y-112952381D01*
X111049048Y-116181429D02*
X111810953Y-116181429D01*
X111430001Y-116562381D02*
X111430001Y-115800476D01*
X132252381Y-104838095D02*
X131252381Y-104838095D01*
X131252381Y-104600000D01*
X131300000Y-104457142D01*
X131395238Y-104361904D01*
X131490476Y-104314285D01*
X131680952Y-104266666D01*
X131823810Y-104266666D01*
X132014286Y-104314285D01*
X132109524Y-104361904D01*
X132204762Y-104457142D01*
X132252381Y-104600000D01*
X132252381Y-104838095D01*
X131347619Y-103885714D02*
X131300000Y-103838095D01*
X131252381Y-103742857D01*
X131252381Y-103504761D01*
X131300000Y-103409523D01*
X131347619Y-103361904D01*
X131442857Y-103314285D01*
X131538095Y-103314285D01*
X131680952Y-103361904D01*
X132252381Y-103933333D01*
X132252381Y-103314285D01*
X129552381Y-104938095D02*
X128552381Y-104938095D01*
X128552381Y-104700000D01*
X128600000Y-104557142D01*
X128695238Y-104461904D01*
X128790476Y-104414285D01*
X128980952Y-104366666D01*
X129123810Y-104366666D01*
X129314286Y-104414285D01*
X129409524Y-104461904D01*
X129504762Y-104557142D01*
X129552381Y-104700000D01*
X129552381Y-104938095D01*
X128552381Y-104033333D02*
X128552381Y-103414285D01*
X128933333Y-103747619D01*
X128933333Y-103604761D01*
X128980952Y-103509523D01*
X129028571Y-103461904D01*
X129123810Y-103414285D01*
X129361905Y-103414285D01*
X129457143Y-103461904D01*
X129504762Y-103509523D01*
X129552381Y-103604761D01*
X129552381Y-103890476D01*
X129504762Y-103985714D01*
X129457143Y-104033333D01*
X113652381Y-95433333D02*
X114366667Y-95433333D01*
X114509524Y-95480953D01*
X114604762Y-95576191D01*
X114652381Y-95719048D01*
X114652381Y-95814286D01*
X114652381Y-94433333D02*
X114652381Y-95004762D01*
X114652381Y-94719048D02*
X113652381Y-94719048D01*
X113795238Y-94814286D01*
X113890476Y-94909524D01*
X113938095Y-95004762D01*
X124752381Y-104266666D02*
X124276190Y-104600000D01*
X124752381Y-104838095D02*
X123752381Y-104838095D01*
X123752381Y-104457142D01*
X123800000Y-104361904D01*
X123847619Y-104314285D01*
X123942857Y-104266666D01*
X124085714Y-104266666D01*
X124180952Y-104314285D01*
X124228571Y-104361904D01*
X124276190Y-104457142D01*
X124276190Y-104838095D01*
X123847619Y-103885714D02*
X123800000Y-103838095D01*
X123752381Y-103742857D01*
X123752381Y-103504761D01*
X123800000Y-103409523D01*
X123847619Y-103361904D01*
X123942857Y-103314285D01*
X124038095Y-103314285D01*
X124180952Y-103361904D01*
X124752381Y-103933333D01*
X124752381Y-103314285D01*
X137852381Y-104266666D02*
X137376190Y-104600000D01*
X137852381Y-104838095D02*
X136852381Y-104838095D01*
X136852381Y-104457142D01*
X136900000Y-104361904D01*
X136947619Y-104314285D01*
X137042857Y-104266666D01*
X137185714Y-104266666D01*
X137280952Y-104314285D01*
X137328571Y-104361904D01*
X137376190Y-104457142D01*
X137376190Y-104838095D01*
X136852381Y-103933333D02*
X136852381Y-103314285D01*
X137233333Y-103647619D01*
X137233333Y-103504761D01*
X137280952Y-103409523D01*
X137328571Y-103361904D01*
X137423810Y-103314285D01*
X137661905Y-103314285D01*
X137757143Y-103361904D01*
X137804762Y-103409523D01*
X137852381Y-103504761D01*
X137852381Y-103790476D01*
X137804762Y-103885714D01*
X137757143Y-103933333D01*
X113452381Y-119366666D02*
X112976190Y-119700000D01*
X113452381Y-119938095D02*
X112452381Y-119938095D01*
X112452381Y-119557142D01*
X112500000Y-119461904D01*
X112547619Y-119414285D01*
X112642857Y-119366666D01*
X112785714Y-119366666D01*
X112880952Y-119414285D01*
X112928571Y-119461904D01*
X112976190Y-119557142D01*
X112976190Y-119938095D01*
X112785714Y-118509523D02*
X113452381Y-118509523D01*
X112404762Y-118747619D02*
X113119048Y-118985714D01*
X113119048Y-118366666D01*
X116252381Y-119366666D02*
X115776190Y-119700000D01*
X116252381Y-119938095D02*
X115252381Y-119938095D01*
X115252381Y-119557142D01*
X115300000Y-119461904D01*
X115347619Y-119414285D01*
X115442857Y-119366666D01*
X115585714Y-119366666D01*
X115680952Y-119414285D01*
X115728571Y-119461904D01*
X115776190Y-119557142D01*
X115776190Y-119938095D01*
X115252381Y-118461904D02*
X115252381Y-118938095D01*
X115728571Y-118985714D01*
X115680952Y-118938095D01*
X115633333Y-118842857D01*
X115633333Y-118604761D01*
X115680952Y-118509523D01*
X115728571Y-118461904D01*
X115823810Y-118414285D01*
X116061905Y-118414285D01*
X116157143Y-118461904D01*
X116204762Y-118509523D01*
X116252381Y-118604761D01*
X116252381Y-118842857D01*
X116204762Y-118938095D01*
X116157143Y-118985714D01*
X134952381Y-104266666D02*
X134476190Y-104600000D01*
X134952381Y-104838095D02*
X133952381Y-104838095D01*
X133952381Y-104457142D01*
X134000000Y-104361904D01*
X134047619Y-104314285D01*
X134142857Y-104266666D01*
X134285714Y-104266666D01*
X134380952Y-104314285D01*
X134428571Y-104361904D01*
X134476190Y-104457142D01*
X134476190Y-104838095D01*
X133952381Y-103409523D02*
X133952381Y-103600000D01*
X134000000Y-103695238D01*
X134047619Y-103742857D01*
X134190476Y-103838095D01*
X134380952Y-103885714D01*
X134761905Y-103885714D01*
X134857143Y-103838095D01*
X134904762Y-103790476D01*
X134952381Y-103695238D01*
X134952381Y-103504761D01*
X134904762Y-103409523D01*
X134857143Y-103361904D01*
X134761905Y-103314285D01*
X134523810Y-103314285D01*
X134428571Y-103361904D01*
X134380952Y-103409523D01*
X134333333Y-103504761D01*
X134333333Y-103695238D01*
X134380952Y-103790476D01*
X134428571Y-103838095D01*
X134523810Y-103885714D01*
X146652381Y-130266666D02*
X146176190Y-130600000D01*
X146652381Y-130838095D02*
X145652381Y-130838095D01*
X145652381Y-130457142D01*
X145700000Y-130361904D01*
X145747619Y-130314285D01*
X145842857Y-130266666D01*
X145985714Y-130266666D01*
X146080952Y-130314285D01*
X146128571Y-130361904D01*
X146176190Y-130457142D01*
X146176190Y-130838095D01*
X145652381Y-129933333D02*
X145652381Y-129266666D01*
X146652381Y-129695238D01*
X114704762Y-128033333D02*
X114752381Y-127890476D01*
X114752381Y-127652380D01*
X114704762Y-127557142D01*
X114657143Y-127509523D01*
X114561905Y-127461904D01*
X114466667Y-127461904D01*
X114371429Y-127509523D01*
X114323810Y-127557142D01*
X114276190Y-127652380D01*
X114228571Y-127842857D01*
X114180952Y-127938095D01*
X114133333Y-127985714D01*
X114038095Y-128033333D01*
X113942857Y-128033333D01*
X113847619Y-127985714D01*
X113800000Y-127938095D01*
X113752381Y-127842857D01*
X113752381Y-127604761D01*
X113800000Y-127461904D01*
X113752381Y-127128571D02*
X114752381Y-126890476D01*
X114038095Y-126699999D01*
X114752381Y-126509523D01*
X113752381Y-126271428D01*
X114752381Y-125366666D02*
X114752381Y-125938095D01*
X114752381Y-125652381D02*
X113752381Y-125652381D01*
X113895238Y-125747619D01*
X113990476Y-125842857D01*
X114038095Y-125938095D01*
X113652381Y-107661905D02*
X114461905Y-107661905D01*
X114557143Y-107614286D01*
X114604762Y-107566667D01*
X114652381Y-107471429D01*
X114652381Y-107280952D01*
X114604762Y-107185714D01*
X114557143Y-107138095D01*
X114461905Y-107090476D01*
X113652381Y-107090476D01*
X114652381Y-106090476D02*
X114652381Y-106661905D01*
X114652381Y-106376191D02*
X113652381Y-106376191D01*
X113795238Y-106471429D01*
X113890476Y-106566667D01*
X113938095Y-106661905D01*
M02*
